<?xml version="1.0" encoding="UTF-8" standalone="no"?>
<!-- Created with Inkscape (http://www.inkscape.org/) -->

<svg
   width="100"
   height="100"
   viewBox="0 0 100 100"
   version="1.1"
   id="svg1"
   xml:space="preserve"
   sodipodi:docname="a.svg"
   inkscape:version="1.4.3 (0d15f75042, 2025-12-25)"
   xmlns:inkscape="http://www.inkscape.org/namespaces/inkscape"
   xmlns:sodipodi="http://sodipodi.sourceforge.net/DTD/sodipodi-0.dtd"
   xmlns="http://www.w3.org/2000/svg"
   xmlns:svg="http://www.w3.org/2000/svg"><sodipodi:namedview
     id="namedview1"
     pagecolor="#505050"
     bordercolor="#eeeeee"
     borderopacity="1"
     inkscape:showpageshadow="0"
     inkscape:pageopacity="0"
     inkscape:pagecheckerboard="0"
     inkscape:deskcolor="#505050"
     inkscape:document-units="px"
     inkscape:zoom="4.1373683"
     inkscape:cx="25.499301"
     inkscape:cy="79.639997"
     inkscape:window-width="1906"
     inkscape:window-height="1028"
     inkscape:window-x="0"
     inkscape:window-y="0"
     inkscape:window-maximized="1"
     inkscape:current-layer="layer1" /><defs
     id="defs1" /><g
     inkscape:label="Layer 1"
     inkscape:groupmode="layer"
     id="layer1"><path
       style="fill:#000000;stroke-width:1.03089"
       d="M 60.250726,90.083206 C 55.009144,89.794931 50.145984,88.59173 45.444822,86.420058 41.590138,84.639411 35.653436,80.798795 31.483003,77.387773 29.620571,75.86448 28.38356,74.741309 26.541288,72.900837 22.573154,68.93658 19.632163,65.12266 16.985336,60.508539 13.537051,54.497262 11.043917,47.367036 10.280908,41.334233 9.4440439,34.71749 10.476688,28.779188 13.383431,23.492924 16.876174,17.14095 22.952351,12.21511 30.330867,9.7539624 36.369946,7.7395913 42.417252,7.4634913 48.833615,8.9091874 c 5.506818,1.2407626 10.923539,3.5225966 15.5007,6.5297816 2.613888,1.717318 3.850448,2.792905 4.684193,4.074412 0.438357,0.673774 0.975332,1.748657 0.907472,1.816517 -0.01828,0.01827 -0.263737,-0.107709 -0.545463,-0.279975 -0.281724,-0.172264 -1.055859,-0.604842 -1.720297,-0.961284 -4.275185,-2.293442 -8.45645,-3.672029 -12.684732,-4.182228 -1.591894,-0.192084 -4.603142,-0.192522 -6.201424,-9.03e-4 -6.47499,0.776293 -11.891574,3.393872 -15.016805,7.256912 -3.358509,4.151392 -4.406934,9.434302 -3.10052,15.623232 2.123227,10.058472 7.789471,17.457732 16.849835,22.003346 1.442897,0.723906 2.958918,1.405479 2.95848,1.330076 -3.02e-4,-0.05197 -1.33882,-5.201724 -5.84222,-22.47713 l -2.234437,-8.571489 0.221788,-0.190775 c 0.121984,-0.104925 0.253207,-0.180023 0.291609,-0.166882 0.15291,0.05233 9.888446,8.866677 20.925515,18.945528 10.679488,9.752313 17.652257,16.101419 23.323101,21.237019 2.479031,2.245047 2.788549,2.612357 2.843688,3.374651 0.06361,0.879484 -0.356986,1.507879 -2.735639,4.087146 -6.392323,6.931445 -13.392054,10.712303 -21.426898,11.573599 -1.134149,0.121574 -4.480337,0.212991 -5.580835,0.152465 z m 8.171239,-24.157768 c -0.732098,-0.751903 -6.04046,-5.851143 -7.285321,-6.99832 -1.556404,-1.434271 -3.417007,-3.055473 -3.457856,-3.012938 -0.01632,0.01699 0.07465,0.483922 0.202157,1.037622 0.127506,0.553697 0.435042,1.98526 0.683413,3.181249 0.602124,2.899417 0.651577,3.088979 0.886042,3.39638 0.403163,0.528572 0.714541,0.635445 5.010676,1.719778 2.246784,0.567082 4.13791,1.034195 4.202503,1.038028 0.06459,0.0038 -0.04413,-0.158977 -0.241614,-0.361799 z"
       id="path1" /></g></svg>
