<?xml version="1.0" encoding="UTF-8" standalone="no"?>
<!-- Created with Inkscape (http://www.inkscape.org/) -->

<svg
   width="100"
   height="100"
   viewBox="0 0 26.458333 26.458333"
   version="1.1"
   id="svg1"
   xml:space="preserve"
   inkscape:version="1.4.3 (0d15f75042, 2025-12-25)"
   sodipodi:docname="c.svg"
   xmlns:inkscape="http://www.inkscape.org/namespaces/inkscape"
   xmlns:sodipodi="http://sodipodi.sourceforge.net/DTD/sodipodi-0.dtd"
   xmlns="http://www.w3.org/2000/svg"
   xmlns:svg="http://www.w3.org/2000/svg"><sodipodi:namedview
     id="namedview1"
     pagecolor="#505050"
     bordercolor="#eeeeee"
     borderopacity="1"
     inkscape:showpageshadow="0"
     inkscape:pageopacity="0"
     inkscape:pagecheckerboard="0"
     inkscape:deskcolor="#505050"
     inkscape:document-units="px"
     inkscape:zoom="5.6568543"
     inkscape:cx="31.55464"
     inkscape:cy="59.308581"
     inkscape:window-width="1906"
     inkscape:window-height="1028"
     inkscape:window-x="0"
     inkscape:window-y="0"
     inkscape:window-maximized="1"
     inkscape:current-layer="layer1" /><defs
     id="defs1" /><g
     inkscape:label="Layer 1"
     inkscape:groupmode="layer"
     id="layer1"><path
       style="fill:#000000;stroke-width:1.08363"
       d="M 13.313681,24.974903 C 13.295231,24.904423 13.17544,24.414659 13.04748,23.886531 12.503554,21.641599 11.877778,19.670602 11.521242,19.079356 11.154326,18.470902 10.735185,18.148434 10.078437,17.969331 9.8471315,17.906251 9.7449575,17.899351 9.0510369,17.899901 7.8801494,17.900837 6.8989284,18.050861 5.3909205,18.459513 4.9567278,18.577174 3.1086527,19.122378 2.950843,19.179365 2.8168253,19.227755 3.0915035,18.983855 4.0103504,18.23856 5.3720617,17.134047 5.6924435,16.858152 6.2127232,16.342006 7.2472122,15.315732 7.8213738,14.555322 8.027154,13.939004 8.113131,13.6815 8.107304,13.248379 8.014203,12.976329 7.9245409,12.714327 7.7112795,12.338278 7.4738864,12.023578 6.8281759,11.167592 5.4206976,9.7775326 3.584942,8.1827658 3.0684322,7.7340608 2.6458333,7.3613047 2.6458333,7.3544189 c 0,-0.00688 0.01806,-0.0062 0.040133,0.00154 0.1025326,0.035909 1.635015,0.5078734 2.0788819,0.6402409 0.6698825,0.1997684 1.5210022,0.4074532 2.0869085,0.5092342 1.975022,0.3552173 2.9601638,0.3438273 3.7403823,-0.043245 0.517658,-0.2568145 0.834549,-0.6482015 1.185518,-1.4642151 0.601415,-1.3983064 1.048436,-2.991397 1.432171,-5.1039526 0.056,-0.3083324 0.106228,-0.5652628 0.111611,-0.5709562 0.0054,-0.00569 0.04725,0.1528775 0.09303,0.3523799 0.04578,0.1995024 0.177603,0.7735747 0.292925,1.2757161 0.285526,1.2432594 0.456173,1.8685155 0.751894,2.7549704 0.587339,1.7606084 1.01876,2.448618 1.760437,2.8074532 0.584483,0.2827818 1.462379,0.3103273 2.929318,0.091912 1.11946,-0.1666785 2.409074,-0.4887519 3.977071,-0.9932502 0.360057,-0.1158475 0.668139,-0.2061452 0.684626,-0.2006618 0.04524,0.015048 -0.788755,0.8157903 -1.708499,1.6403692 -1.968585,1.7648971 -3.138728,3.1016191 -3.400828,3.8849651 -0.08271,0.247222 -0.08944,0.657611 -0.01488,0.908127 0.185593,0.623564 0.801182,1.463289 1.807829,2.466062 0.652733,0.650221 1.131725,1.063411 2.173481,1.874898 0.594502,0.463095 1.106216,0.910564 1.041295,0.910564 -0.01745,0 -0.541454,-0.137691 -1.164454,-0.30598 -2.873896,-0.776315 -3.218861,-0.845246 -4.549549,-0.909104 -1.24969,-0.05997 -1.841529,0.101243 -2.397171,0.652977 -0.278263,0.276305 -0.463364,0.55766 -0.636753,0.967859 -0.325509,0.770089 -0.899501,2.737978 -1.315923,4.511549 -0.07859,0.334761 -0.177817,0.716773 -0.220484,0.848915 l -0.07758,0.240259 z"
       id="path1" /></g></svg>
