<?xml version="1.0" encoding="UTF-8" standalone="no"?>
<!-- Created with Inkscape (http://www.inkscape.org/) -->

<svg
   width="100"
   height="100"
   viewBox="0 0 26.458333 26.458333"
   version="1.1"
   id="svg1"
   xml:space="preserve"
   inkscape:version="1.4.3 (0d15f75042, 2025-12-25)"
   sodipodi:docname="d.svg"
   xmlns:inkscape="http://www.inkscape.org/namespaces/inkscape"
   xmlns:sodipodi="http://sodipodi.sourceforge.net/DTD/sodipodi-0.dtd"
   xmlns="http://www.w3.org/2000/svg"
   xmlns:svg="http://www.w3.org/2000/svg"><sodipodi:namedview
     id="namedview1"
     pagecolor="#505050"
     bordercolor="#eeeeee"
     borderopacity="1"
     inkscape:showpageshadow="0"
     inkscape:pageopacity="0"
     inkscape:pagecheckerboard="0"
     inkscape:deskcolor="#505050"
     inkscape:document-units="px"
     inkscape:zoom="4"
     inkscape:cx="38.375"
     inkscape:cy="79.375"
     inkscape:window-width="1906"
     inkscape:window-height="1028"
     inkscape:window-x="0"
     inkscape:window-y="0"
     inkscape:window-maximized="1"
     inkscape:current-layer="layer1" /><defs
     id="defs1" /><g
     inkscape:label="Layer 1"
     inkscape:groupmode="layer"
     id="layer1"><path
       style="fill:#000000;stroke-width:0.995776"
       d="M 12.209793,22.371933 C 10.308039,22.175543 8.5304446,21.523197 6.7729456,20.376704 4.4133438,18.837432 3.0747272,16.845228 2.6982753,14.312552 2.6573055,14.036918 2.6457374,13.77363 2.6458339,13.119 c 1.073e-4,-0.727979 0.00925,-0.900783 0.068639,-1.2967 0.2760966,-1.8407344 1.0379022,-3.3713214 2.345,-4.7114736 C 6.1905491,5.9511469 7.7862512,4.9220539 9.2300828,4.4211355 9.5407746,4.313345 10.268258,4.1010416 10.326923,4.1010416 c 0.01345,0 -0.06707,0.1160398 -0.178936,0.2578663 C 9.4968222,5.1844758 9.0445456,6.1141068 8.8822456,6.9605723 8.5166833,8.8671398 9.4213443,10.662368 11.19127,11.542649 c 0.701411,0.348849 1.291087,0.48936 2.062932,0.491566 1.108199,0.0032 2.012968,-0.337868 2.827461,-1.065758 1.906845,-1.7040936 1.985089,-3.8300483 0.240261,-6.5280724 -0.104669,-0.1618495 -0.185732,-0.2988468 -0.180141,-0.3044385 0.03554,-0.035538 1.128121,0.3184971 1.680339,0.5444903 0.791117,0.3237619 1.79099,0.9018549 2.431311,1.4057018 0.342535,0.2695295 0.809507,0.7060339 1.170963,1.0945653 2.189628,2.3536421 2.933414,5.5279645 1.981826,8.4580195 -0.683313,2.104004 -2.187801,3.898593 -4.243195,5.061383 -1.554191,0.879246 -3.10096,1.417378 -4.685802,1.630225 -0.423458,0.05687 -1.863681,0.0833 -2.267432,0.0416 z"
       id="path1" /></g></svg>
