<?xml version="1.0" encoding="UTF-8" standalone="no"?>
<!-- Created with Inkscape (http://www.inkscape.org/) -->

<svg
   width="100"
   height="100"
   viewBox="0 0 100 100"
   version="1.1"
   id="svg1"
   xml:space="preserve"
   inkscape:version="1.4.3 (0d15f75042, 2025-12-25)"
   sodipodi:docname="f.svg"
   xmlns:inkscape="http://www.inkscape.org/namespaces/inkscape"
   xmlns:sodipodi="http://sodipodi.sourceforge.net/DTD/sodipodi-0.dtd"
   xmlns="http://www.w3.org/2000/svg"
   xmlns:svg="http://www.w3.org/2000/svg"><sodipodi:namedview
     id="namedview1"
     pagecolor="#505050"
     bordercolor="#eeeeee"
     borderopacity="1"
     inkscape:showpageshadow="0"
     inkscape:pageopacity="0"
     inkscape:pagecheckerboard="0"
     inkscape:deskcolor="#505050"
     inkscape:document-units="px"
     inkscape:zoom="2.9255612"
     inkscape:cx="5.2981288"
     inkscape:cy="123.56604"
     inkscape:window-width="1906"
     inkscape:window-height="1028"
     inkscape:window-x="0"
     inkscape:window-y="0"
     inkscape:window-maximized="1"
     inkscape:current-layer="layer1" /><defs
     id="defs1" /><g
     inkscape:label="Layer 1"
     inkscape:groupmode="layer"
     id="layer1"><path
       style="fill:#000000;stroke-width:0.978327"
       d="m 34.233121,87.957172 c -0.206149,-0.105353 -0.473817,-0.326883 -0.594819,-0.492287 -0.206904,-0.28283 -0.219644,-0.462445 -0.21396,-3.016725 0.008,-3.612663 0.0189,-3.632407 2.161197,-3.928128 1.408533,-0.194432 2.246837,-0.592232 3.170092,-1.5043 0.767243,-0.757948 1.180589,-1.409985 1.56353,-2.466414 0.245215,-0.676483 0.264986,-0.898188 0.294254,-3.299754 0.03609,-2.961058 0.133014,-3.416902 1.006839,-4.735174 0.583107,-0.879687 1.257858,-1.483076 2.236789,-2.000224 1.162535,-0.614143 1.819422,-0.716201 4.428095,-0.687979 1.945594,0.02104 2.378334,-0.0048 2.934679,-0.175239 1.377666,-0.422073 2.135676,-1.02505 3.093429,-2.46074 1.020931,-1.530398 1.025928,-1.559994 1.052918,-6.237519 0.02583,-4.475067 0.04406,-4.616749 0.792272,-6.152284 0.748206,-1.535538 2.28442,-2.701345 4.137429,-3.139825 0.67845,-0.160541 1.818219,-0.182088 10.056551,-0.190112 8.61518,-0.0084 9.339109,0.0052 9.947239,0.186452 2.18795,0.652192 3.852266,2.277435 4.499355,4.393723 C 84.987704,52.667762 85,53.304451 85,62.458382 v 9.750408 l -0.242173,0.771435 c -0.438144,1.395699 -1.489058,2.700172 -2.818517,3.498561 -1.224898,0.735596 -1.300888,0.746097 -6.012068,0.83075 -4.740973,0.08519 -5.076873,0.128803 -6.413416,0.83271 -0.877157,0.461965 -1.696394,1.301314 -2.09506,2.146492 -0.542794,1.150729 -0.650629,1.829299 -0.718917,4.523888 -0.06959,2.745933 -0.12745,3.00115 -0.73268,3.231773 -0.169894,0.06474 -6.203634,0.1046 -15.816953,0.104495 -14.580924,-1.61e-4 -15.565463,-0.01201 -15.917095,-0.191722 z M 19.796387,77.029579 C 17.808365,76.628401 16.4703,75.635001 15.691471,73.982027 14.986163,72.48509 14.976022,72.304312 15.010536,61.841756 l 0.03086,-9.352892 0.294623,-0.808609 c 0.720416,-1.977219 2.138099,-3.323346 4.241755,-4.027661 0.567717,-0.190074 1.322007,-0.203036 13.540798,-0.23269 8.427739,-0.02046 13.153994,0.0074 13.554481,0.07994 2.3201,0.420129 4.858485,2.906835 5.260448,5.153351 0.0593,0.331404 0.120477,1.637849 0.135956,2.903211 0.02524,2.063763 0.0066,2.351421 -0.181879,2.793656 -0.677086,1.58938 -2.435803,3.205508 -4.151239,3.814677 -0.70209,0.249319 -1.006288,0.283209 -3.181153,0.354407 -1.574625,0.05155 -2.661882,0.139743 -3.149428,0.255472 -2.655062,0.630236 -3.8089,2.245738 -4.11687,5.764073 -0.06066,0.692935 -0.110701,1.614085 -0.111215,2.046996 -0.0039,3.27018 -1.966895,5.81289 -4.974555,6.443599 -1.047465,0.219654 -11.318484,0.219895 -12.406723,2.91e-4 z M 18.867249,44.438093 c -1.106879,-0.09379 -1.621516,-0.241657 -2.265376,-0.650895 -0.61344,-0.389905 -1.093926,-1.02307 -1.363028,-1.79615 -0.185509,-0.532928 -0.197457,-1.256716 -0.197457,-11.960989 0,-10.563376 0.01401,-11.439115 0.192236,-12.016399 0.280454,-0.908411 0.779073,-1.502109 1.616232,-1.924421 1.028615,-0.518894 2.034168,-0.601118 6.717738,-0.549307 3.335341,0.03689 4.021912,0.07206 4.504228,0.230718 1.136802,0.373948 2.078104,1.387783 2.328415,2.507836 0.167991,0.751702 0.272501,16.145043 0.138174,20.351651 -0.09236,2.892587 -0.107309,3.037003 -0.374564,3.62032 -0.641344,1.399809 -1.62527,2.017075 -3.482566,2.184788 -1.279779,0.115563 -6.461513,0.117451 -7.814032,0.0028 z m 17.98155,-7.38e-4 c -1.030088,-0.101033 -1.378606,-0.191532 -2.04005,-0.529731 -0.943864,-0.482602 -1.572402,-1.419669 -1.78444,-2.660361 -0.08339,-0.487949 -0.109988,-4.764201 -0.08783,-14.120416 0.03055,-12.896453 0.03994,-13.441606 0.24016,-13.960885 0.301119,-0.780925 1.160223,-1.616759 1.977842,-1.924266 0.644026,-0.242219 0.740469,-0.246555 5.344284,-0.240286 4.834183,0.0066 5.362166,0.04657 6.202653,0.469693 0.94714,0.476822 1.553942,1.475332 1.731994,2.85005 0.142825,1.102729 0.141772,25.43422 -0.0012,26.44531 -0.157606,1.115018 -0.425643,1.7737 -0.96807,2.378968 -0.540347,0.602947 -1.099772,0.92874 -1.97989,1.153031 -0.713905,0.181933 -7.142513,0.28533 -8.635516,0.138893 z m 18.41879,0.0037 c -1.724807,-0.173512 -2.733713,-0.792882 -3.356701,-2.060669 l -0.35985,-0.732297 -0.09194,-7.004858 c -0.05162,-3.932178 -0.04942,-10.08453 0.005,-14.02566 0.08717,-6.314383 0.116178,-7.064895 0.288297,-7.459023 0.461623,-1.057064 1.123559,-1.680332 2.110882,-1.987575 0.437931,-0.136278 1.366438,-0.164918 5.351883,-0.165076 5.196265,-2.07e-4 5.413395,0.0197 6.287749,0.576698 0.629384,0.400937 1.030389,0.96984 1.316913,1.868293 0.216938,0.680256 0.221297,0.949735 0.225596,13.949829 0.0034,10.261734 -0.02676,13.404658 -0.133488,13.913503 -0.356355,1.698996 -1.17883,2.562146 -2.844832,2.985522 -0.704852,0.179122 -7.361192,0.286028 -8.799482,0.141327 z m 17.76293,0.0037 C 72.579613,44.399631 72.006193,44.304697 71.756251,44.233807 70.71408,43.938221 69.721323,42.947257 69.397436,41.879251 69.289907,41.524679 69.259312,38.875794 69.259312,29.920504 V 18.417213 l 0.246823,-0.611246 c 0.534052,-1.32256 1.610245,-2.080088 3.269633,-2.301481 0.557691,-0.07441 2.363677,-0.103615 4.809654,-0.07779 3.678321,0.03884 3.955081,0.05565 4.548263,0.276234 1.229329,0.457143 1.981507,1.222833 2.397324,2.44039 0.242927,0.711316 0.243239,0.722802 0.280581,10.317444 0.04078,10.477361 -0.02319,12.566731 -0.416694,13.611461 -0.429971,1.141536 -1.311197,1.890973 -2.619552,2.227792 -0.687159,0.176901 -7.32598,0.28679 -8.744825,0.144749 z"
       id="path1" /></g></svg>
