<?xml version="1.0" encoding="UTF-8" standalone="no"?>
<!-- Created with Inkscape (http://www.inkscape.org/) -->

<svg
   width="100"
   height="100"
   viewBox="0 0 100 100"
   version="1.1"
   id="svg1"
   xml:space="preserve"
   inkscape:version="1.4.3 (0d15f75042, 2025-12-25)"
   sodipodi:docname="g.svg"
   xmlns:inkscape="http://www.inkscape.org/namespaces/inkscape"
   xmlns:sodipodi="http://sodipodi.sourceforge.net/DTD/sodipodi-0.dtd"
   xmlns="http://www.w3.org/2000/svg"
   xmlns:svg="http://www.w3.org/2000/svg"><sodipodi:namedview
     id="namedview1"
     pagecolor="#505050"
     bordercolor="#eeeeee"
     borderopacity="1"
     inkscape:showpageshadow="0"
     inkscape:pageopacity="0"
     inkscape:pagecheckerboard="0"
     inkscape:deskcolor="#505050"
     inkscape:document-units="px"
     inkscape:zoom="2.0686841"
     inkscape:cx="-2.1752958"
     inkscape:cy="110.45669"
     inkscape:window-width="1906"
     inkscape:window-height="1028"
     inkscape:window-x="0"
     inkscape:window-y="0"
     inkscape:window-maximized="1"
     inkscape:current-layer="layer1" /><defs
     id="defs1" /><g
     inkscape:label="Layer 1"
     inkscape:groupmode="layer"
     id="layer1"><path
       style="fill:#000000;stroke-width:0.974227"
       d="m 45.412153,91.702046 c -0.89803,-0.176198 -2.171599,-0.396841 -2.830155,-0.490317 -2.818962,-0.400127 -3.83369,-0.77833 -4.732354,-1.763814 -0.748325,-0.82062 -0.976379,-1.501083 -1.109209,-3.309632 -0.163831,-2.23065 -0.420637,-3.350022 -1.069624,-4.662306 -1.14047,-2.306089 -3.116433,-3.802039 -6.947177,-5.259528 -4.349425,-1.654832 -7.08548,-3.308822 -9.74685,-5.892131 -2.515707,-2.441919 -4.224355,-5.144422 -5.297381,-8.37867 -0.907571,-2.735541 -1.25646,-5.188546 -1.165395,-8.193762 0.114866,-3.790619 0.965745,-7.069076 2.855065,-11.000625 3.874026,-8.061592 10.305047,-14.823447 20.62737,-21.688513 6.402395,-4.258039 12.7601,-7.637725 20.515588,-10.905865 4.115914,-1.7344327 6.216044,-2.4929451 7.048194,-2.5456228 1.142064,-0.072296 1.430929,0.1489895 2.999164,2.2975134 10.334107,14.1579984 16.204291,25.1451074 19.452838,36.4094984 1.197253,4.151496 1.460751,5.975483 1.484005,10.272588 0.01507,2.785356 -0.0068,3.208393 -0.220678,4.269874 -1.051059,5.216186 -4.486677,9.307704 -10.861427,12.935002 -3.781013,2.151435 -8.689768,3.878853 -14.607135,5.140334 -2.228852,0.475152 -6.27472,1.150155 -8.503059,1.41863 -4.624943,0.557224 -4.845299,0.617221 -5.112537,1.392016 -0.14782,0.428568 -0.131542,0.685511 0.217704,3.436521 0.279328,2.200258 0.377469,3.391015 0.377469,4.579837 0,1.597642 -0.0017,1.608136 -0.292275,1.899616 -0.41895,0.42013 -1.09731,0.428792 -3.082141,0.03936 z M 42.142811,76.86513 c 0.4556,-6.410971 0.440172,-6.270424 0.760255,-6.926115 0.342983,-0.702603 1.269725,-1.598109 2.750082,-2.65739 4.75333,-3.401281 9.886621,-5.431029 15.676532,-6.198634 1.950667,-0.258613 6.577594,-0.258229 8.737481,7.24e-4 1.487156,0.178299 3.171281,0.555012 4.027528,0.900897 l 0.380982,0.153899 -0.272129,-0.226491 c -0.596815,-0.49672 -2.114499,-1.446919 -2.869393,-1.796482 -1.69986,-0.787143 -3.427724,-1.123174 -6.971407,-1.355783 -5.030573,-0.330209 -9.407622,0.0084 -13.507982,1.044978 -1.471247,0.371935 -3.95075,1.189037 -4.970407,1.637962 -0.980841,0.431837 -1.320858,0.459118 -1.554549,0.124732 -0.455952,-0.652422 0.09223,-5.067311 0.871638,-7.019884 0.488914,-1.224831 1.011483,-2.016326 1.94198,-2.941373 0.990661,-0.984857 2.140321,-1.650295 3.765764,-2.17967 0.508883,-0.165733 1.757962,-0.63274 2.775729,-1.037791 3.742395,-1.489399 5.996421,-2.020412 9.742265,-2.295125 2.700796,-0.198071 5.828321,0.04594 9.040475,0.705332 0.984672,0.202135 1.800718,0.358535 1.813435,0.347555 0.01271,-0.01098 -0.526101,-0.321259 -1.197374,-0.68951 -3.167397,-1.73759 -6.494959,-2.805526 -9.97328,-3.20079 -1.626232,-0.184799 -5.040881,-0.07481 -6.758644,0.217704 -2.437855,0.415137 -4.841908,1.148382 -7.341241,2.239104 -0.643939,0.281018 -1.193472,0.488215 -1.221186,0.460439 -0.08531,-0.08551 0.178825,-1.828792 0.404332,-2.668566 0.907992,-3.381305 3.148842,-5.462008 8.303434,-7.710013 3.644697,-1.589513 7.330899,-2.468436 11.719543,-2.794358 0.927964,-0.06892 1.700939,-0.137688 1.717722,-0.152827 0.07243,-0.06534 -2.083129,-0.717601 -3.078374,-0.931489 -1.379345,-0.296435 -4.613448,-0.413775 -6.225957,-0.225891 -2.313079,0.269512 -5.143755,1.000566 -7.80977,2.016963 -0.715016,0.272594 -1.313008,0.482618 -1.32887,0.46672 -0.01586,-0.0159 1.191812,-3.290016 2.683721,-7.275818 1.885841,-5.038234 2.630792,-7.148217 2.444264,-6.923079 -2.323848,2.804875 -4.859763,6.680866 -7.040453,10.760902 -1.821902,3.408747 -1.978237,3.458912 -4.80792,1.542778 -1.482837,-1.004112 -3.50309,-2.00812 -4.77216,-2.371628 -1.769759,-0.506926 -3.705242,-0.554561 -5.254233,-0.129318 l -0.54426,0.149416 0.380983,0.167456 c 3.969389,1.744698 5.993328,3.017422 7.790495,4.898941 1.731388,1.81265 2.323244,3.751818 1.841214,6.03258 -0.309172,1.462874 -1.224466,3.866388 -1.585952,4.164629 -0.12338,0.101794 -0.438956,-0.06354 -1.582583,-0.829111 -2.402678,-1.608416 -4.458112,-2.550402 -6.581266,-3.01613 -1.221471,-0.267937 -3.705193,-0.321361 -5.27009,-0.113359 -1.232873,0.163872 -3.594026,0.685615 -4.190807,0.926042 -0.248165,0.09998 -0.231877,0.110243 0.184966,0.11655 1.032641,0.01563 4.173666,0.733097 6.028117,1.376945 3.715959,1.290149 7.450268,4.014665 8.97037,6.544699 0.54378,0.905059 0.574913,1.443289 0.179543,3.103959 -0.178568,0.750034 -0.553687,2.517389 -0.8336,3.927453 -0.279912,1.410064 -0.524392,2.579997 -0.543287,2.59985 -0.0189,0.01985 -0.625774,-0.314658 -1.348618,-0.74336 -5.575104,-3.306459 -10.681033,-4.240594 -15.865527,-2.902614 -1.893864,0.488756 -1.845199,0.44938 -0.745066,0.602851 4.012619,0.55977 6.493889,1.340576 9.470135,2.980062 4.734247,2.607893 7.056498,5.009047 8.010479,8.28265 0.200396,0.687664 0.244649,1.218223 0.316907,3.799414 0.06984,2.495027 0.12242,3.151601 0.312276,3.899757 0.327849,1.291941 0.882655,2.670561 1.781778,4.427491 l 0.785587,1.535074 0.07669,-0.430954 c 0.04218,-0.237024 0.204037,-2.222855 0.359678,-4.412955 z"
       id="path1" /></g></svg>
