<?xml version="1.0" encoding="UTF-8" standalone="no"?>
<!-- Created with Inkscape (http://www.inkscape.org/) -->

<svg
   width="100"
   height="100"
   viewBox="0 0 26.458333 26.458333"
   version="1.1"
   id="svg1"
   xml:space="preserve"
   inkscape:version="1.4.3 (0d15f75042, 2025-12-25)"
   sodipodi:docname="l.svg"
   xmlns:inkscape="http://www.inkscape.org/namespaces/inkscape"
   xmlns:sodipodi="http://sodipodi.sourceforge.net/DTD/sodipodi-0.dtd"
   xmlns="http://www.w3.org/2000/svg"
   xmlns:svg="http://www.w3.org/2000/svg"><sodipodi:namedview
     id="namedview1"
     pagecolor="#505050"
     bordercolor="#eeeeee"
     borderopacity="1"
     inkscape:showpageshadow="0"
     inkscape:pageopacity="0"
     inkscape:pagecheckerboard="0"
     inkscape:deskcolor="#505050"
     inkscape:document-units="mm"
     inkscape:zoom="5.6568542"
     inkscape:cx="31.377863"
     inkscape:cy="40.039922"
     inkscape:window-width="1906"
     inkscape:window-height="1028"
     inkscape:window-x="0"
     inkscape:window-y="0"
     inkscape:window-maximized="1"
     inkscape:current-layer="layer1" /><defs
     id="defs1" /><g
     inkscape:label="Layer 1"
     inkscape:groupmode="layer"
     id="layer1"><path
       style="fill:#000000;stroke-width:1.00924"
       d="m 11.527537,24.385453 c -0.06182,-0.03921 -0.08286,0.04617 0.610517,-2.476845 0.283194,-1.030457 0.840059,-3.060453 1.237475,-4.511098 0.397417,-1.450645 0.818537,-2.985419 0.935822,-3.410609 0.117285,-0.42519 0.198998,-0.773072 0.181584,-0.773072 -0.01741,0 -0.206868,0.05622 -0.42101,0.124936 -0.388978,0.124816 -2.952761,0.91727 -3.36439,1.039917 -0.221115,0.06588 -3.2888588,1.013163 -4.1178906,1.271553 -1.2124813,0.377902 -1.1970772,0.373913 -1.2556407,0.325177 -0.030536,-0.02542 -0.048668,-0.07189 -0.040293,-0.103314 0.00838,-0.03141 0.2350839,-0.368159 0.5037985,-0.748327 0.268715,-0.38017 0.7315499,-1.035007 1.0285227,-1.455193 C 7.1230046,13.24839 7.9718197,12.045127 8.7122879,10.994659 9.452756,9.9441921 10.480768,8.4871796 10.99676,7.7568545 11.512752,7.0265294 12.043386,6.2734669 12.175949,6.0833822 12.403721,5.7567749 14.539296,2.7313447 14.89595,2.2300062 15.073281,1.980738 15.105439,1.9556421 15.183809,2.0053625 c 0.05166,0.032768 0.02646,0.1275519 -0.339271,1.2767727 -0.757518,2.3802983 -2.305964,7.3596988 -2.292764,7.3729348 0.01416,0.01419 0.758046,-0.19445 1.439188,-0.40366 0.0898,-0.02758 0.669385,-0.19906 1.287977,-0.3810659 0.61859,-0.1820056 2.194091,-0.6470541 3.501112,-1.0334408 1.307023,-0.3863866 2.380943,-0.6919588 2.386489,-0.6790491 0.0056,0.012909 -0.172108,0.3331462 -0.394791,0.711637 -2.521863,4.2864068 -3.669055,6.2375858 -4.051505,6.8909258 -0.169834,0.290129 -0.709041,1.206901 -1.198237,2.037271 -1.484594,2.519977 -2.545517,4.32491 -2.801267,4.765757 -0.588865,1.015053 -1.08343,1.835596 -1.111741,1.844513 -0.01689,0.0054 -0.05355,-0.0048 -0.08146,-0.02251 z"
       id="path1" /></g></svg>
