<?xml version="1.0" encoding="UTF-8" standalone="no"?>
<!-- Created with Inkscape (http://www.inkscape.org/) -->

<svg
   width="100"
   height="100"
   viewBox="0 0 100 100"
   version="1.1"
   id="svg1"
   xml:space="preserve"
   inkscape:version="1.4.3 (0d15f75042, 2025-12-25)"
   sodipodi:docname="m.svg"
   xmlns:inkscape="http://www.inkscape.org/namespaces/inkscape"
   xmlns:sodipodi="http://sodipodi.sourceforge.net/DTD/sodipodi-0.dtd"
   xmlns="http://www.w3.org/2000/svg"
   xmlns:svg="http://www.w3.org/2000/svg"><sodipodi:namedview
     id="namedview1"
     pagecolor="#505050"
     bordercolor="#eeeeee"
     borderopacity="1"
     inkscape:showpageshadow="0"
     inkscape:pageopacity="0"
     inkscape:pagecheckerboard="0"
     inkscape:deskcolor="#505050"
     inkscape:document-units="px"
     inkscape:zoom="4.1373683"
     inkscape:cx="44.593565"
     inkscape:cy="61.512532"
     inkscape:window-width="1906"
     inkscape:window-height="1028"
     inkscape:window-x="0"
     inkscape:window-y="0"
     inkscape:window-maximized="1"
     inkscape:current-layer="layer1" /><defs
     id="defs1" /><g
     inkscape:label="Layer 1"
     inkscape:groupmode="layer"
     id="layer1"><path
       style="fill:#000000;stroke-width:0.996892"
       d="m 38.135681,87.293748 c -0.447348,-0.140849 -0.946236,-0.445892 -1.241092,-0.758857 -0.134909,-0.143196 -0.753271,-1.054277 -1.374135,-2.024624 -0.620867,-0.970348 -2.083625,-3.199148 -3.250576,-4.952889 -1.16695,-1.753741 -2.204212,-3.366172 -2.305025,-3.583178 -0.210034,-0.452113 -0.23601,-0.940322 -0.07107,-1.33598 0.06255,-0.150071 0.573713,-1.012528 1.135902,-1.916572 0.562189,-0.904043 1.654474,-2.68589 2.4273,-3.959659 0.772823,-1.273769 1.448971,-2.379094 1.502546,-2.456279 0.0857,-0.123466 0.292265,0.186219 1.718315,2.576142 2.28463,3.82882 2.917104,4.91017 3.96315,6.775854 1.069751,1.907966 1.340628,2.291865 1.871752,2.652732 0.622729,0.423106 1.020086,0.490982 3.155215,0.538971 1.049459,0.02359 2.538952,0.09824 3.309983,0.165906 1.887726,0.165654 4.143026,0.169725 5.111086,0.0093 0.893801,-0.148189 1.833927,-0.468646 2.451735,-0.835713 0.625693,-0.371753 1.696565,-1.46032 2.259586,-2.296926 0.651298,-0.967779 0.943211,-1.48724 2.149575,-3.825182 0.576018,-1.116328 1.280896,-2.408179 1.566395,-2.870779 0.927893,-1.503477 1.933936,-2.96369 1.994596,-2.895035 0.0326,0.03689 0.735397,1.226339 1.561781,2.643217 0.826385,1.416879 1.941551,3.310509 2.47815,4.208068 0.985222,1.647967 1.175084,2.033348 1.176677,2.388419 0.0021,0.461844 -0.377789,1.133637 -2.140854,3.786148 -1.027383,1.545685 -2.457523,3.723697 -3.178088,4.840025 -0.720564,1.116329 -1.469335,2.193956 -1.663932,2.394726 -0.199777,0.206115 -0.560999,0.461014 -0.829704,0.585487 l -0.47589,0.220449 -11.487588,0.01482 c -9.345794,0.01206 -11.548779,-0.0044 -11.81578,-0.08852 z M 48.725074,67.18158 C 48.292172,66.43355 43.555329,58.233616 38.198758,48.959503 l -9.739221,-16.862024 10.557535,-0.01979 c 5.806644,-0.01089 15.279462,-0.01089 21.050704,0 l 10.493167,0.01979 -10.402094,18.040046 c -5.721151,9.922026 -10.457125,18.121959 -10.524386,18.222077 -0.120202,0.17892 -0.135746,0.158784 -0.909389,-1.178022 z M 14.407341,48.411925 C 13.74104,48.181122 13.673654,48.066869 10.812943,42.317728 8.9353864,38.544419 8.102024,36.79062 8.0403649,36.482875 c -0.1095595,-0.546818 0.00645,-1.22309 0.3170688,-1.848286 0.1173245,-0.236146 0.9856741,-1.746702 1.9296663,-3.356791 2.230338,-3.804104 4.932094,-8.482442 7.244873,-12.545154 2.004762,-3.52164 2.243422,-3.853886 3.026458,-4.213213 0.503377,-0.230995 0.841302,-0.264392 4.626568,-0.457227 1.30647,-0.06656 3.705969,-0.20836 5.332222,-0.315121 3.258503,-0.213914 3.526044,-0.201296 4.067457,0.191823 0.248867,0.180703 0.496658,0.588191 1.480815,2.435179 0.650064,1.21999 1.708345,3.184216 2.351731,4.364948 l 1.169796,2.146786 -0.561574,0.05599 c -0.308866,0.03079 -3.347801,0.07205 -6.753189,0.09168 -6.781562,0.03909 -6.638194,0.02913 -7.296315,0.506992 -0.428991,0.311491 -0.784689,0.774311 -1.266743,1.648244 -0.224989,0.40789 -0.887432,1.452192 -1.472096,2.320671 -2.509502,3.7277 -3.194882,4.956115 -3.56164,6.383568 -0.177749,0.691814 -0.196566,0.891694 -0.165362,1.75646 0.02968,0.822557 0.07384,1.094762 0.281178,1.733205 0.34115,1.050483 1.054478,2.422434 2.143006,4.121666 1.59548,2.490597 2.138462,3.422845 3.017199,5.180246 0.469268,0.938495 0.842403,1.715405 0.829189,1.726465 -0.01322,0.01106 -2.28455,0.03937 -5.047412,0.0629 -4.086447,0.03482 -5.079813,0.02325 -5.32592,-0.06199 z m 64.89236,0.04476 c -2.084792,-0.0243 -3.809188,-0.06289 -3.831993,-0.08575 -0.0228,-0.02286 0.346164,-0.760445 0.819927,-1.639086 2.44721,-4.538597 3.526439,-6.510141 4.378597,-7.998851 1.314541,-2.296488 1.480595,-2.768944 1.293149,-3.679257 -0.109505,-0.531801 -0.246163,-0.822156 -0.84027,-1.785288 -0.238364,-0.38642 -1.031992,-1.879413 -1.763618,-3.317759 -1.758474,-3.457086 -2.489609,-4.571253 -3.613136,-5.506017 -1.678068,-1.396137 -3.546077,-1.713993 -8.188706,-1.393368 -1.390364,0.09602 -2.454508,0.115841 -4.421182,0.08235 -1.424547,-0.02425 -2.621517,-0.06357 -2.659933,-0.08737 -0.03842,-0.0238 0.542653,-1.158646 1.291264,-2.521884 0.748611,-1.363238 1.783634,-3.269021 2.300052,-4.235074 0.516418,-0.966055 1.028336,-1.890417 1.137594,-2.054141 0.261721,-0.39219 0.762259,-0.678409 1.276788,-0.730097 0.226903,-0.02279 1.849475,0.03308 3.605713,0.124148 1.756238,0.09108 4.384754,0.213613 5.841146,0.272306 3.191044,0.1286 3.276383,0.148983 4.088804,0.976643 0.432031,0.440135 0.779307,0.984703 2.369245,3.715223 1.024656,1.759722 3.546148,6.009832 5.603313,9.444687 2.057167,3.434857 3.80719,6.438406 3.888942,6.674551 0.114149,0.329734 0.141056,0.576733 0.115965,1.064509 l -0.03267,0.635151 -1.411132,2.877771 c -0.776121,1.582773 -1.970814,4.060891 -2.654873,5.506928 -0.68406,1.446037 -1.351557,2.786228 -1.483329,2.978202 -0.159353,0.232153 -0.375649,0.417004 -0.645885,0.551987 -0.386926,0.193265 -0.460356,0.202246 -1.53977,0.188312 -0.623407,-0.0081 -2.839207,-0.03452 -4.924,-0.05883 z"
       id="path1" /></g></svg>
