<?xml version="1.0" encoding="UTF-8" standalone="no"?>
<!-- Created with Inkscape (http://www.inkscape.org/) -->

<svg
   width="100"
   height="100"
   viewBox="0 0 100 100"
   version="1.1"
   id="svg1"
   xml:space="preserve"
   inkscape:version="1.4.3 (0d15f75042, 2025-12-25)"
   sodipodi:docname="p.svg"
   xmlns:inkscape="http://www.inkscape.org/namespaces/inkscape"
   xmlns:sodipodi="http://sodipodi.sourceforge.net/DTD/sodipodi-0.dtd"
   xmlns="http://www.w3.org/2000/svg"
   xmlns:svg="http://www.w3.org/2000/svg"><sodipodi:namedview
     id="namedview1"
     pagecolor="#505050"
     bordercolor="#eeeeee"
     borderopacity="1"
     inkscape:showpageshadow="0"
     inkscape:pageopacity="0"
     inkscape:pagecheckerboard="0"
     inkscape:deskcolor="#505050"
     inkscape:document-units="px"
     inkscape:zoom="4.2335493"
     inkscape:cx="52.792582"
     inkscape:cy="85.625553"
     inkscape:window-width="1906"
     inkscape:window-height="1028"
     inkscape:window-x="0"
     inkscape:window-y="0"
     inkscape:window-maximized="1"
     inkscape:current-layer="layer1" /><defs
     id="defs1" /><g
     inkscape:label="Layer 1"
     inkscape:groupmode="layer"
     id="layer1"><path
       style="fill:#000000;stroke-width:1.00699"
       d="M 48.339316,83.157287 C 41.218846,82.778346 35.865459,81.454651 30.205636,78.673498 25.341062,76.283117 21.252079,73.28001 17.103021,69.050426 14.890993,66.795468 13.671519,65.350794 10.970561,61.785489 10.040276,60.557498 8.7371484,58.837877 8.0747223,57.964108 6.0852995,55.339973 5.4353554,54.266648 5.1433834,53.123262 4.951714,52.372669 4.9521069,51.94569 5.1451634,51.189669 5.4262663,50.088848 5.9414785,49.07465 7.3741259,46.801945 c 0.4780695,-0.758394 1.670468,-2.655364 2.6497751,-4.215489 2.601677,-4.144711 3.50376,-5.457766 5.286949,-7.695589 3.789613,-4.755797 7.952428,-8.461202 12.731334,-11.332416 1.441737,-0.86621 4.243274,-2.244104 5.821659,-2.863297 6.047184,-2.37228 12.91972,-3.500051 19.038397,-3.124167 10.449701,0.641947 19.844601,5.212485 28.441108,13.836355 5.04668,5.062743 9.073152,10.727989 12.501736,17.589944 C 94.836665,50.981833 95,51.434098 95,52.195199 c 0,0.765686 -0.171907,1.191466 -1.115777,2.763566 -2.41638,4.0247 -4.871862,7.459657 -7.649869,10.701347 -1.159967,1.35358 -3.837261,4.093619 -5.128538,5.248732 -6.18618,5.533849 -13.043994,9.185811 -20.926504,11.143901 -1.423768,0.353678 -2.894965,0.650578 -3.736875,0.754132 -1.224496,0.150612 -7.090698,0.40429 -8.103119,0.35041 z m 3.736875,-8.621257 c 7.484957,-0.408242 14.123689,-2.79322 20.061122,-7.206996 4.37972,-3.255802 8.431617,-7.688104 12.358069,-13.518281 1.328638,-1.972824 1.339095,-2.19311 0.198746,-4.186795 C 82.942977,46.562403 80.85904,43.577215 78.673382,40.99939 77.544131,39.667518 74.59563,36.724094 73.35865,35.693809 70.669512,33.454013 67.864442,31.614946 64.787859,30.0746 c -1.108297,-0.554887 -1.148184,-0.567977 -1.730763,-0.567977 -0.984064,0 -0.989022,0.03474 -0.100639,0.704997 4.939755,3.72689 8.08343,9.229063 8.871142,15.526604 0.17102,1.367259 0.171078,3.989972 1.17e-4,5.358003 -0.516002,4.129059 -1.981821,7.762692 -4.481797,11.109979 -0.932215,1.248169 -3.009565,3.328769 -4.255783,4.262443 -3.207852,2.403342 -6.587678,3.787403 -10.699265,4.381418 -0.447767,0.06469 -1.474394,0.100558 -2.792822,0.09757 -1.752539,-0.0039 -2.251672,-0.03206 -3.131985,-0.176265 -4.356091,-0.713568 -7.820377,-2.379436 -11.2575,-5.413386 -4.253755,-3.754792 -6.821949,-8.685592 -7.436688,-14.278054 -0.141358,-1.285974 -0.16301,-3.937223 -0.04211,-5.156073 0.607622,-6.125659 3.517124,-11.354495 8.763858,-15.750041 l 0.702344,-0.588401 -0.505666,-0.02569 c -0.499343,-0.02537 -0.523375,-0.0168 -1.921746,0.685093 -4.121274,2.068607 -7.416282,4.469573 -10.820044,7.884219 -1.783424,1.789125 -3.016455,3.20991 -4.483809,5.166562 -1.465541,1.954233 -3.495254,5.121986 -4.448899,6.943349 -0.65232,1.245869 -0.561462,1.82331 0.548845,3.488094 2.902492,4.351968 6.259043,8.098302 10.041298,11.20736 8.370084,6.880303 17.2576,10.104096 26.470242,9.601623 z M 51.234589,58.072687 c 3.671272,-0.749328 6.665381,-3.38044 7.832106,-6.882563 0.397437,-1.192978 0.483362,-1.792919 0.481775,-3.363855 -0.0016,-1.593844 -0.08921,-2.179077 -0.516225,-3.448678 -1.424928,-4.236608 -5.378207,-6.904247 -9.906218,-6.684629 -0.584133,0.02833 -1.193069,0.07724 -1.353192,0.108677 l -0.291132,0.05717 0.362594,0.433367 c 0.540211,0.64565 1.325564,1.874011 1.64535,2.573467 1.11724,2.443701 0.851253,4.972351 -0.771041,7.330049 -1.907027,2.771502 -4.778528,3.788509 -8.233578,2.916107 l -0.704964,-0.178004 0.14694,0.373374 c 0.276287,0.702043 0.845171,1.765946 1.342764,2.511179 0.615704,0.922127 1.940139,2.275536 2.767495,2.828039 1.222885,0.816633 2.708079,1.397999 4.026704,1.576214 0.796235,0.107612 2.244367,0.03914 3.170622,-0.149911 z"
       id="path1" /></g></svg>
