<?xml version="1.0" encoding="UTF-8" standalone="no"?>
<!-- Created with Inkscape (http://www.inkscape.org/) -->

<svg
   width="100"
   height="100"
   viewBox="0 0 100 100"
   version="1.1"
   id="svg1"
   xml:space="preserve"
   inkscape:version="1.4.3 (0d15f75042, 2025-12-25)"
   sodipodi:docname="r.svg"
   xmlns:inkscape="http://www.inkscape.org/namespaces/inkscape"
   xmlns:sodipodi="http://sodipodi.sourceforge.net/DTD/sodipodi-0.dtd"
   xmlns="http://www.w3.org/2000/svg"
   xmlns:svg="http://www.w3.org/2000/svg"><sodipodi:namedview
     id="namedview1"
     pagecolor="#505050"
     bordercolor="#eeeeee"
     borderopacity="1"
     inkscape:showpageshadow="0"
     inkscape:pageopacity="0"
     inkscape:pagecheckerboard="0"
     inkscape:deskcolor="#505050"
     inkscape:document-units="px"
     inkscape:zoom="2.1167747"
     inkscape:cx="41.808891"
     inkscape:cy="101.80583"
     inkscape:window-width="1906"
     inkscape:window-height="1028"
     inkscape:window-x="0"
     inkscape:window-y="0"
     inkscape:window-maximized="1"
     inkscape:current-layer="layer1" /><defs
     id="defs1" /><g
     inkscape:label="Layer 1"
     inkscape:groupmode="layer"
     id="layer1"><path
       style="fill:#000000"
       d="M 45.721255,93.094307 C 35.481489,92.516983 26.926143,89.141215 20.266006,83.050178 15.01921,78.251714 11.073537,71.548447 9.2352565,64.310141 c -0.146962,-0.578669 -0.2518496,-1.067504 -0.2330834,-1.0863 0.018766,-0.0188 0.2726116,0.176003 0.5641015,0.432886 2.8754434,2.534059 6.2302424,4.730687 9.1237304,5.973963 0.836925,0.35961 3.318534,1.248009 3.486127,1.248009 0.03599,0 -0.410461,-0.64001 -0.992124,-1.422244 -3.352477,-4.508498 -5.384019,-8.165754 -6.551717,-11.794641 -1.640171,-5.097205 -1.465562,-10.471594 0.49968,-15.379966 0.719971,-1.798194 2.15133,-4.183702 3.569716,-5.949301 0.831789,-1.035407 2.636025,-2.902806 3.816443,-3.950052 0.995139,-0.882868 2.545602,-2.133658 2.589882,-2.089309 0.01667,0.0167 -0.15949,0.519703 -0.391465,1.117794 -2.173439,5.603669 -2.662996,9.978018 -1.518454,13.567875 0.958137,3.005196 2.974044,5.405009 6.389005,7.60571 0.39973,0.257598 0.706572,0.421061 0.681871,0.36325 -0.0247,-0.05781 -0.255365,-0.562856 -0.512587,-1.122324 -0.581716,-1.265251 -1.039299,-2.626732 -1.305695,-3.884934 -0.299465,-1.414384 -0.354896,-3.691274 -0.123003,-5.052493 0.621174,-3.646327 2.49799,-6.919175 6.06496,-10.576265 1.974261,-2.02414 3.651988,-3.485528 7.930174,-6.907597 2.269524,-1.815365 3.502489,-2.95303 4.16414,-3.842277 2.02401,-2.720238 2.148119,-5.394255 0.415374,-8.94951 -0.543237,-1.114618 -1.155438,-2.129279 -2.28989,-3.7952638 -0.399918,-0.587294 -0.727124,-1.086957 -0.727124,-1.1103621 0,-0.05574 0.848171,0.2380539 1.875,0.6494723 5.190151,2.0795326 9.227693,5.4386026 12.056152,10.0302266 1.096528,1.780066 2.339156,4.395145 3.099085,6.521945 2.175731,6.089182 2.841406,12.735803 2.068014,20.648678 -0.213884,2.18833 -0.132194,3.007015 0.317119,3.178111 0.544585,0.207375 2.743341,-0.06965 5.334788,-0.67214 6.497998,-1.510729 10.724314,-4.591446 13.164663,-9.596206 0.308958,-0.633622 0.583379,-1.152989 0.609826,-1.154147 0.08059,-0.0035 0.957595,1.092768 1.428068,1.785145 0.908312,1.33673 1.566166,2.948426 1.809681,4.433596 0.18385,1.121272 0.116161,2.984292 -0.149247,4.107792 -0.932745,3.948412 -3.655272,8.047461 -8.4972,12.793428 -1.453411,1.424605 -3.393243,3.175002 -4.93858,4.4563 -0.786337,0.651982 -0.832227,0.705227 -0.663414,0.769745 0.318553,0.121747 2.64003,0.163121 3.470104,0.06184 3.64044,-0.444163 7.442379,-2.355534 14.470682,-7.274931 1.00206,-0.701383 1.834354,-1.262797 1.84954,-1.247586 0.09643,0.09658 -0.842204,3.735502 -1.419666,5.503797 -3.30361,10.116286 -9.987768,18.7006 -18.790456,24.132161 -7.576295,4.674834 -16.064453,6.778636 -25.258222,6.260286 z m 5.976563,-1.513708 c 2.831172,-0.344359 5.719856,-1.137812 8.407614,-2.309371 2.361399,-1.029304 3.68432,-2.374556 4.054071,-4.122506 0.307807,-1.45512 0.0028,-2.754572 -1.105743,-4.710436 -1.581311,-2.790071 -2.217162,-4.865423 -2.111924,-6.893106 0.125675,-2.421457 1.269759,-4.456613 3.599991,-6.403856 l 0.695572,-0.58125 -0.539322,0.05174 c -1.744542,0.167355 -2.871939,0.390014 -4.047772,0.799428 -2.361838,0.82237 -4.273776,2.21844 -5.975488,4.363217 L 54.2051,72.366474 54.16874,72.111633 c -0.02,-0.140163 -0.07611,-0.712588 -0.124688,-1.272056 -0.110425,-1.271646 -0.323441,-2.346203 -0.673887,-3.399415 -0.556922,-1.673744 -1.285769,-2.679043 -2.940529,-4.055877 -1.898069,-1.579277 -2.405412,-2.260356 -2.466116,-3.310617 -0.06531,-1.130042 0.4222,-2.130518 2.353916,-4.830704 0.479912,-0.670828 0.903512,-1.270312 0.941334,-1.332186 0.05829,-0.09535 -0.0072,-0.104052 -0.429688,-0.05708 -1.580315,0.17571 -3.692489,0.820115 -5.297226,1.616135 -2.746891,1.362578 -5.685118,3.848232 -6.421428,5.43234 -0.775496,1.668414 -0.21883,3.288872 2.042867,5.946792 1.204813,1.415882 1.625498,2.088679 1.932591,3.090767 0.234521,0.765278 0.276003,1.355345 0.1466,2.085365 -0.141766,0.799766 -0.475891,1.507394 -1.058434,2.241611 -0.39754,0.501045 -1.555273,1.541568 -1.715217,1.541568 -0.03181,0 -0.153664,-0.341475 -0.270788,-0.758833 -0.720199,-2.566371 -2.299478,-4.024788 -4.89163,-4.517281 -0.739279,-0.140458 -2.465889,-0.247592 -2.767675,-0.17173 -0.199264,0.05009 -0.180624,0.07451 0.48195,0.631286 1.240454,1.042392 2.118085,2.114077 2.470595,3.016871 0.07562,0.193662 0.156106,0.598592 0.178861,0.899844 0.0965,1.277589 -0.592917,2.730839 -2.282906,4.812207 -1.114437,1.372526 -1.486944,2.384385 -1.298506,3.527204 0.319985,1.940614 2.196133,4.3336 4.306582,5.492951 0.775746,0.426147 2.633935,1.198533 3.90122,1.621604 2.273716,0.759059 4.143373,1.129316 6.88003,1.362483 0.722554,0.06156 3.58938,-0.02972 4.53125,-0.144283 z"
       id="path1" /></g></svg>
