<?xml version="1.0" encoding="UTF-8" standalone="no"?>
<!-- Created with Inkscape (http://www.inkscape.org/) -->

<svg
   width="100"
   height="100"
   viewBox="0 0 100 100"
   version="1.1"
   id="svg1"
   xml:space="preserve"
   inkscape:version="1.4.3 (0d15f75042, 2025-12-25)"
   sodipodi:docname="w.svg"
   xmlns:inkscape="http://www.inkscape.org/namespaces/inkscape"
   xmlns:sodipodi="http://sodipodi.sourceforge.net/DTD/sodipodi-0.dtd"
   xmlns="http://www.w3.org/2000/svg"
   xmlns:svg="http://www.w3.org/2000/svg"><sodipodi:namedview
     id="namedview1"
     pagecolor="#505050"
     bordercolor="#eeeeee"
     borderopacity="1"
     inkscape:showpageshadow="0"
     inkscape:pageopacity="0"
     inkscape:pagecheckerboard="0"
     inkscape:deskcolor="#505050"
     inkscape:document-units="px"
     inkscape:zoom="2.9935714"
     inkscape:cx="123.09711"
     inkscape:cy="118.08638"
     inkscape:window-width="1906"
     inkscape:window-height="1028"
     inkscape:window-x="0"
     inkscape:window-y="0"
     inkscape:window-maximized="1"
     inkscape:current-layer="layer1" /><defs
     id="defs1" /><g
     inkscape:label="Layer 1"
     inkscape:groupmode="layer"
     id="layer1"><path
       style="fill:#000000;stroke-width:1.16791"
       d="M 53.072977,91.84686 C 51.133376,91.68895 47.813243,91.20435 45.569617,90.75168 32.595388,88.134017 23.171221,82.96992 16.812749,74.993974 13.293237,70.579167 11.117765,65.577723 10.242231,59.888249 9.9126835,57.746755 9.9209565,52.601172 10.257471,50.406302 11.473324,42.47618 15.130767,35.386848 20.921998,29.73492 26.681243,24.114209 34.877661,19.228622 44.683852,15.571342 50.761825,13.304524 58.80132,11.053803 65.754098,9.672558 c 6.075713,-1.207006 15.83723,-2.587587 18.767741,-2.65434 2.493557,-0.0568 5.604649,0.02671 5.474191,0.146949 -0.06819,0.06285 -1.592017,0.68544 -3.386299,1.383557 -7.038663,2.738587 -9.729435,3.979532 -12.209269,5.630734 -4.127209,2.748111 -7.500483,6.616394 -8.871559,10.173407 -0.763876,1.981745 -0.965136,3.092801 -0.964389,5.323937 6e-4,1.792793 0.04289,2.191475 0.365807,3.448203 0.682977,2.658056 1.805645,4.995369 3.934672,8.191704 1.439258,2.160778 2.93657,4.067722 6.027678,7.67672 3.821259,4.46148 4.660685,5.513892 5.991039,7.511133 2.259115,3.391576 3.740677,6.962735 4.421617,10.657861 1.713766,9.29977 -1.666037,16.38492 -9.789378,20.521678 -3.683512,1.875803 -8.326731,3.266769 -13.112711,3.928169 -1.449353,0.20029 -7.79257,0.35978 -9.330265,0.23459 z m -1.370474,-5.810575 c 1.56012,-0.253678 2.43766,-1.008048 2.804037,-2.410469 0.241583,-0.924737 0.168561,-1.566668 -0.279486,-2.456924 -0.433369,-0.861092 -1.061532,-1.529255 -2.589503,-2.7544 -4.830873,-3.873455 -9.878589,-5.864567 -16.201665,-6.390877 -2.165748,-0.180271 -3.484358,-0.03741 -4.576717,0.495873 -1.622763,0.792212 -2.32437,2.799873 -1.550321,4.436267 0.428108,0.905053 1.04905,1.581727 2.598924,2.832193 4.133882,3.335286 8.772987,5.412023 13.792339,6.174261 1.48321,0.22524 4.819516,0.266414 6.002392,0.07408 z"
       id="path1" /></g></svg>
