<?xml version="1.0" encoding="UTF-8" standalone="no"?>
<!-- Created with Inkscape (http://www.inkscape.org/) -->

<svg
   width="100"
   height="100"
   viewBox="0 0 33.333333 33.333333"
   version="1.1"
   id="svg1"
   xml:space="preserve"
   inkscape:version="1.4.3 (0d15f75042, 2025-12-25)"
   sodipodi:docname="y.svg"
   xmlns:inkscape="http://www.inkscape.org/namespaces/inkscape"
   xmlns:sodipodi="http://sodipodi.sourceforge.net/DTD/sodipodi-0.dtd"
   xmlns="http://www.w3.org/2000/svg"
   xmlns:svg="http://www.w3.org/2000/svg"><sodipodi:namedview
     id="namedview1"
     pagecolor="#505050"
     bordercolor="#eeeeee"
     borderopacity="1"
     inkscape:showpageshadow="0"
     inkscape:pageopacity="0"
     inkscape:pagecheckerboard="0"
     inkscape:deskcolor="#505050"
     inkscape:document-units="px"
     inkscape:zoom="2.9255612"
     inkscape:cx="45.290456"
     inkscape:cy="107.50074"
     inkscape:window-width="1906"
     inkscape:window-height="1028"
     inkscape:window-x="0"
     inkscape:window-y="0"
     inkscape:window-maximized="1"
     inkscape:current-layer="layer1" /><defs
     id="defs1" /><g
     inkscape:label="Layer 1"
     inkscape:groupmode="layer"
     id="layer1"><path
       style="fill:#000000;stroke-width:1.01056"
       d="M 16.272955,29.59661 C 14.987382,29.509848 13.741341,29.211258 12.315788,28.648351 10.16903,27.800661 8.1203537,26.493995 6.592098,24.997721 5.4473434,23.876922 4.8113483,22.942401 4.2751334,21.593206 3.5067895,19.659941 3.1915652,17.302445 3.3924476,14.991785 3.6011782,12.590847 4.3438275,10.482423 5.471828,9.0883019 5.6871694,8.8221566 6.0523731,8.451885 6.0761254,8.4756188 c 0.041946,0.041913 0.090604,0.3211682 0.090718,0.5206466 1.672e-4,0.2919905 -0.065237,0.5571007 -0.2642833,1.0712496 -0.2912723,0.752374 -0.4577222,1.692041 -0.4903137,2.767986 -0.025016,0.825859 0.050119,1.523221 0.2433298,2.258441 0.3074283,1.169854 0.9490551,2.272885 1.851711,3.183309 0.4746538,0.478738 0.9005743,0.82183 1.6996324,1.369108 1.2795274,0.876352 2.1838434,1.59031 3.1394764,2.478616 1.986815,1.846838 3.39844,4.005193 4.174678,6.383023 0.06846,0.209713 0.130576,0.399044 0.138034,0.420739 0.0075,0.0217 0.05894,-0.114388 0.114387,-0.302406 0.516277,-1.750385 1.411968,-3.376883 2.667663,-4.844248 1.142841,-1.335487 2.427606,-2.471794 4.818918,-4.26208 1.158126,-0.867046 1.313946,-0.994943 1.725355,-1.416168 1.029779,-1.054349 1.608689,-2.230042 1.844508,-3.745967 0.05099,-0.327817 0.05892,-0.482333 0.05917,-1.154221 2.46e-4,-0.658657 -0.0087,-0.843205 -0.05942,-1.222771 -0.105838,-0.792332 -0.250458,-1.436845 -0.542843,-2.4192436 -0.114498,-0.3847015 -0.126368,-0.4505811 -0.13859,-0.7691621 -0.0074,-0.1916331 -0.0063,-0.3484238 0.0024,-0.3484238 0.02541,0 0.463367,0.5181879 0.683938,0.8092159 0.226657,0.2990588 0.57803,0.8308956 0.759678,1.1498456 1.155691,2.029246 1.60878,4.529897 1.322164,7.297178 -0.486049,4.692796 -2.799024,8.072679 -6.919595,10.111405 -1.164587,0.576199 -2.34991,1.006953 -3.763289,1.3676 -0.701871,0.179095 -1.369984,0.321819 -1.723745,0.36823 -0.289654,0.038 -0.989581,0.06578 -1.236885,0.04909 z m 0.05263,-11.776948 c 0,-0.07302 -0.264573,-0.914643 -0.434928,-1.383524 C 15.30483,14.823715 14.522274,13.438779 13.506949,12.217542 13.200907,11.849435 12.373039,11.026481 11.99649,10.716051 11.433037,10.251533 10.769126,9.7869675 10.174058,9.4408216 10.040172,9.3629408 9.930696,9.2931801 9.9307783,9.2857975 c 8.22e-5,-0.00739 0.2339717,-0.01467 0.5197547,-0.016195 0.984296,-0.00525 1.767704,-0.184233 2.532834,-0.5786584 C 13.413357,8.469283 13.73999,8.2339739 14.109005,7.8800225 14.765206,7.2506117 15.298387,6.4504094 15.773622,5.3817623 15.949536,4.986188 16.299271,4.084547 16.299271,4.026603 16.299271,4.011971 16.309931,4 16.322961,4 c 0.04393,0 0.211981,0.4344461 0.686588,1.7749893 0.381362,1.0771674 0.711652,1.6523037 1.234287,2.1492703 0.495861,0.471506 1.115997,0.8036821 1.80865,0.968802 0.442161,0.1054057 0.74325,0.1343403 1.543029,0.1482847 0.430607,0.00751 0.782311,0.021144 0.781564,0.030304 -7.46e-4,0.00916 -0.103405,0.087652 -0.228131,0.1744297 -1.148281,0.79891 -2.417343,2.029301 -3.280855,3.180879 -0.888842,1.185359 -1.636035,2.626583 -2.120433,4.090002 -0.132772,0.401117 -0.324215,1.069066 -0.35803,1.24917 -0.0169,0.09001 -0.06404,0.129412 -0.06404,0.05353 z"
       id="path1" /></g></svg>
