<?xml version="1.0" encoding="UTF-8" standalone="no"?>
<svg
   viewBox="0 0 100 100"
   version="1.1"
   id="svg1"
   sodipodi:docname="0.svg"
   inkscape:version="1.4.2 (ebf0e940d0, 2025-05-08)"
   xmlns:inkscape="http://www.inkscape.org/namespaces/inkscape"
   xmlns:sodipodi="http://sodipodi.sourceforge.net/DTD/sodipodi-0.dtd"
   xmlns="http://www.w3.org/2000/svg"
   xmlns:svg="http://www.w3.org/2000/svg">
  <defs
     id="defs1" />
  <sodipodi:namedview
     id="namedview1"
     pagecolor="#505050"
     bordercolor="#eeeeee"
     borderopacity="1"
     inkscape:showpageshadow="0"
     inkscape:pageopacity="0"
     inkscape:pagecheckerboard="0"
     inkscape:deskcolor="#505050"
     inkscape:zoom="4"
     inkscape:cx="-23.875"
     inkscape:cy="68.125"
     inkscape:window-width="1906"
     inkscape:window-height="1028"
     inkscape:window-x="0"
     inkscape:window-y="0"
     inkscape:window-maximized="1"
     inkscape:current-layer="svg1" />
  <g
     fill="none"
     id="g1">
    <circle
       fill="#CAC5C0"
       cx="50"
       cy="50"
       id="circle1"
       style="fill:#cac5c0;fill-opacity:0;stroke:#000000;stroke-width:4;stroke-dasharray:none;stroke-opacity:1"
       r="48" />
    <path
       d="M23 52.428c0-9.787 2.061-18.813 6.191-27.072 5.117-10.236 12.123-15.355 21.012-15.355 8.797 0 15.666 4.359 20.605 13.064 4.127 7.186 6.191 15.537 6.191 25.051 0 9.881-2.064 18.814-6.191 26.803-5.031 10.058-12.035 15.081-21.011 15.081-8.531 0-15.305-4.307-20.336-12.926-4.308-7.361-6.461-15.576-6.461-24.646zm11.309-4.444c0 12.926 1.93 22.984 5.795 30.168 2.691 5.025 6.146 7.541 10.367 7.541 10.146 0 15.221-10.506 15.221-31.518 0-9.244-.809-17.059-2.422-23.434-2.785-10.504-7.498-15.76-14.145-15.76-9.879 0-14.816 10.15-14.816 30.443v2.56z"
       fill="#0D0F0F"
       id="path1" />
  </g>
</svg>
