<?xml version="1.0" encoding="UTF-8" standalone="no"?>
<svg
   viewBox="0 0 100 100"
   version="1.1"
   id="svg1"
   sodipodi:docname="10.svg"
   inkscape:version="1.4.2 (ebf0e940d0, 2025-05-08)"
   xmlns:inkscape="http://www.inkscape.org/namespaces/inkscape"
   xmlns:sodipodi="http://sodipodi.sourceforge.net/DTD/sodipodi-0.dtd"
   xmlns="http://www.w3.org/2000/svg"
   xmlns:svg="http://www.w3.org/2000/svg">
  <defs
     id="defs1" />
  <sodipodi:namedview
     id="namedview1"
     pagecolor="#505050"
     bordercolor="#eeeeee"
     borderopacity="1"
     inkscape:showpageshadow="0"
     inkscape:pageopacity="0"
     inkscape:pagecheckerboard="0"
     inkscape:deskcolor="#505050"
     inkscape:zoom="8.4004286"
     inkscape:cx="40.533646"
     inkscape:cy="59.461252"
     inkscape:window-width="1906"
     inkscape:window-height="1028"
     inkscape:window-x="0"
     inkscape:window-y="0"
     inkscape:window-maximized="1"
     inkscape:current-layer="g1" />
  <g
     transform="translate(0 -1)"
     fill="none"
     id="g1">
    <path
       d="M35.306 19.633v50.439c0 5.998 2.567 8.998 7.693 8.998h1.305v3.42h-26.866v-3.42h1.727c4.931 0 7.4-3 7.4-8.998v-33.08c0-6.08-2.155-9.123-6.467-9.123h-2.66v-3.424h1.016c5.238 0 9.969-1.604 14.191-4.813l2.661.001zm9.76 33.328c0-7.857 1.646-15.082 4.94-21.668 4.142-8.193 9.805-12.293 16.982-12.293 6.931 0 12.422 3.508 16.476 10.516 3.296 5.748 4.945 12.381 4.945 19.898 0 7.859-1.648 15.039-4.945 21.545-4.141 8.029-9.757 12.041-16.853 12.041-6.842 0-12.293-3.465-16.352-10.395-3.464-5.828-5.193-12.376-5.193-19.644zm9.122-3.676c0 6.68.718 12.676 2.156 17.996 2.197 8.195 5.785 12.295 10.771 12.295 8.111 0 12.165-8.447 12.165-25.346 0-20.869-4.394-31.301-13.182-31.301-7.941 0-11.912 8.105-11.912 24.328l.002 2.028z"
       fill="#0D0F0F"
       id="path1" />
    <circle
       fill="#CAC5C0"
       cx="50"
       cy="50"
       id="circle1-1"
       style="fill:#cac5c0;fill-opacity:0;stroke:#000000;stroke-width:4;stroke-dasharray:none;stroke-opacity:1"
       inkscape:label="circle1"
       r="48"
       transform="translate(0,1)" />
  </g>
</svg>
