<?xml version="1.0" encoding="UTF-8" standalone="no"?>
<svg
   viewBox="0 0 76 15"
   version="1.1"
   id="svg2"
   sodipodi:docname="1000000.svg"
   inkscape:version="1.4.2 (ebf0e940d0, 2025-05-08)"
   xmlns:inkscape="http://www.inkscape.org/namespaces/inkscape"
   xmlns:sodipodi="http://sodipodi.sourceforge.net/DTD/sodipodi-0.dtd"
   xmlns="http://www.w3.org/2000/svg"
   xmlns:svg="http://www.w3.org/2000/svg">
  <defs
     id="defs2" />
  <sodipodi:namedview
     id="namedview2"
     pagecolor="#505050"
     bordercolor="#eeeeee"
     borderopacity="1"
     inkscape:showpageshadow="0"
     inkscape:pageopacity="0"
     inkscape:pagecheckerboard="0"
     inkscape:deskcolor="#505050"
     inkscape:zoom="5.6568543"
     inkscape:cx="-23.422912"
     inkscape:cy="47.464543"
     inkscape:window-width="1906"
     inkscape:window-height="1028"
     inkscape:window-x="0"
     inkscape:window-y="0"
     inkscape:window-maximized="1"
     inkscape:current-layer="g2" />
  <g
     fill="none"
     fill-rule="evenodd"
     id="g2">
    <path
       d="M12.588 12.83v-.393c1.03-.113 1.545-.491 1.545-1.135 0-.382-.145-.583-.436-.606l-.146-.011c-.418-.03-.627-.236-.627-.618 0-.217.065-.387.196-.51a.73.73 0 0 1 .52-.186c.367 0 .654.184.863.55.18.308.269.66.269 1.056 0 .622-.217 1.093-.65 1.415-.38.276-.892.423-1.534.437zm30.291 0v-.393c1.03-.113 1.546-.491 1.546-1.135 0-.382-.145-.583-.437-.606l-.145-.011c-.418-.03-.628-.236-.628-.618 0-.217.066-.387.196-.51a.73.73 0 0 1 .521-.186c.366 0 .654.184.863.55.179.308.268.66.268 1.056 0 .622-.216 1.093-.649 1.415-.381.276-.892.423-1.535.437zm21.53-5.275c0-1.431.304-2.752.91-3.96.752-1.496 1.78-2.245 3.086-2.245 1.292 0 2.3.637 3.026 1.91.606 1.051.91 2.273.91 3.664 0 1.446-.304 2.752-.91 3.92-.739 1.471-1.767 2.206-3.086 2.206-1.252 0-2.247-.63-2.986-1.89-.633-1.077-.95-2.278-.95-3.605zm1.662-.65c0 1.89.283 3.361.85 4.412.396.735.903 1.103 1.523 1.103 1.49 0 2.235-1.536 2.235-4.61 0-1.352-.118-2.494-.355-3.427-.41-1.536-1.101-2.304-2.078-2.304-1.45 0-2.175 1.484-2.175 4.452v.374zm-10.787.65c0-1.431.303-2.752.91-3.96.75-1.496 1.78-2.245 3.085-2.245 1.291 0 2.3.637 3.026 1.91.606 1.051.91 2.273.91 3.664 0 1.446-.304 2.752-.91 3.92-.739 1.471-1.767 2.206-3.086 2.206-1.253 0-2.247-.63-2.986-1.89-.633-1.077-.95-2.278-.95-3.605zm1.66-.65c0 1.89.284 3.361.852 4.412.395.735.903 1.103 1.522 1.103 1.49 0 2.235-1.536 2.235-4.61 0-1.352-.118-2.494-.355-3.427-.409-1.536-1.101-2.304-2.077-2.304-1.452 0-2.176 1.484-2.176 4.452v.374zm-10.833.65c0-1.431.303-2.752.91-3.96.75-1.496 1.78-2.245 3.085-2.245 1.292 0 2.3.637 3.026 1.91.606 1.051.91 2.273.91 3.664 0 1.446-.304 2.752-.91 3.92-.74 1.471-1.768 2.206-3.086 2.206-1.252 0-2.248-.63-2.986-1.89-.633-1.077-.95-2.278-.95-3.605zm1.66-.65c0 1.89.284 3.361.852 4.412.395.735.902 1.103 1.522 1.103 1.49 0 2.235-1.536 2.235-4.61 0-1.352-.118-2.494-.355-3.427-.41-1.536-1.101-2.304-2.078-2.304-1.45 0-2.176 1.484-2.176 4.452v.374zm-13.831.65c0-1.431.303-2.752.91-3.96.75-1.496 1.78-2.245 3.085-2.245 1.292 0 2.3.637 3.026 1.91.606 1.051.91 2.273.91 3.664 0 1.446-.304 2.752-.91 3.92-.739 1.471-1.767 2.206-3.086 2.206-1.252 0-2.247-.63-2.986-1.89-.632-1.077-.95-2.278-.95-3.605zm1.66-.65c0 1.89.284 3.361.852 4.412.395.735.902 1.103 1.523 1.103 1.49 0 2.234-1.536 2.234-4.61 0-1.352-.118-2.494-.355-3.427-.409-1.536-1.1-2.304-2.078-2.304-1.45 0-2.175 1.484-2.175 4.452v.374zm-10.786.65c0-1.431.303-2.752.91-3.96.75-1.496 1.78-2.245 3.085-2.245 1.292 0 2.3.637 3.026 1.91.606 1.051.91 2.273.91 3.664 0 1.446-.304 2.752-.91 3.92-.739 1.471-1.767 2.206-3.086 2.206-1.252 0-2.247-.63-2.986-1.89-.633-1.077-.95-2.278-.95-3.605zm1.66-.65c0 1.89.284 3.361.852 4.412.395.735.902 1.103 1.522 1.103 1.49 0 2.235-1.536 2.235-4.61 0-1.352-.118-2.494-.355-3.427-.41-1.536-1.101-2.304-2.078-2.304-1.45 0-2.175 1.484-2.175 4.452v.374zm-10.833.65c0-1.431.303-2.752.91-3.96.75-1.496 1.78-2.245 3.085-2.245 1.292 0 2.3.637 3.026 1.91.606 1.051.91 2.273.91 3.664 0 1.446-.304 2.752-.91 3.92-.739 1.471-1.767 2.206-3.086 2.206-1.252 0-2.247-.63-2.986-1.89-.633-1.077-.95-2.278-.95-3.605zm1.66-.65c0 1.89.284 3.361.852 4.412.395.735.902 1.103 1.522 1.103 1.49 0 2.235-1.536 2.235-4.61 0-1.352-.118-2.494-.355-3.427-.41-1.536-1.101-2.304-2.078-2.304-1.45 0-2.175 1.484-2.175 4.452v.374zM9.246 1.35v9.376c0 1.122.482 1.682 1.449 1.682h.252v.642H5.843v-.642h.32c.934 0 1.401-.56 1.401-1.682v-6.15c0-1.135-.403-1.703-1.208-1.703h-.513v-.621h.185c.996 0 1.898-.301 2.705-.902h.512z"
       fill="#0D0F0F"
       id="path2" />
    <g
       id="g5"
       inkscape:label="rounded capsule">
      <path
         style="fill:#cac5c0;fill-opacity:0;stroke:#000000;stroke-width:0.491596;stroke-dasharray:none"
         id="path3"
         sodipodi:type="arc"
         sodipodi:cx="7.5"
         sodipodi:cy="7.5"
         sodipodi:rx="7.25"
         sodipodi:ry="7.25"
         sodipodi:start="1.5707963"
         sodipodi:end="4.712389"
         sodipodi:arc-type="arc"
         d="m 7.5,14.75 a 7.25,7.25 0 0 1 -6.2786841,-3.625 7.25,7.25 0 0 1 -1e-7,-7.25 A 7.25,7.25 0 0 1 7.5,0.25"
         sodipodi:open="true"
         inkscape:label="left-semicircle" />
      <path
         style="fill:#cac5c0;fill-opacity:0;stroke:#000000;stroke-width:0.492;stroke-dasharray:none"
         id="path3-4"
         sodipodi:type="arc"
         sodipodi:cx="-69.149002"
         sodipodi:cy="7.5"
         sodipodi:rx="6.6014867"
         sodipodi:ry="7.25"
         sodipodi:start="1.5707963"
         sodipodi:end="4.712389"
         sodipodi:arc-type="arc"
         d="m -69.149002,14.75 a 6.6014867,7.25 0 0 1 -5.717055,-3.625 6.6014867,7.25 0 0 1 0,-7.25 6.6014867,7.25 0 0 1 5.717055,-3.625"
         transform="scale(-1,1)"
         sodipodi:open="true"
         inkscape:label="right-semicircle" />
      <path
         style="fill:#cac5c0;fill-opacity:0;stroke:#000000;stroke-width:0.492;stroke-dasharray:none"
         d="M 7.5,0.25 H 69.149002"
         id="path4"
         inkscape:label="upper-edge" />
      <path
         style="fill:#cac5c0;fill-opacity:0;stroke:#000000;stroke-width:0.492;stroke-dasharray:none"
         d="M 7.5,14.75 H 69.149002"
         id="path5"
         inkscape:label="lower-edge" />
    </g>
  </g>
</svg>
