<?xml version="1.0" encoding="UTF-8" standalone="no"?>
<svg
   viewBox="0 0 100 100"
   version="1.1"
   id="svg1"
   sodipodi:docname="14.svg"
   inkscape:version="1.4.2 (ebf0e940d0, 2025-05-08)"
   xmlns:inkscape="http://www.inkscape.org/namespaces/inkscape"
   xmlns:sodipodi="http://sodipodi.sourceforge.net/DTD/sodipodi-0.dtd"
   xmlns="http://www.w3.org/2000/svg"
   xmlns:svg="http://www.w3.org/2000/svg">
  <defs
     id="defs1" />
  <sodipodi:namedview
     id="namedview1"
     pagecolor="#505050"
     bordercolor="#eeeeee"
     borderopacity="1"
     inkscape:showpageshadow="0"
     inkscape:pageopacity="0"
     inkscape:pagecheckerboard="0"
     inkscape:deskcolor="#505050"
     inkscape:zoom="5.94"
     inkscape:cx="52.946128"
     inkscape:cy="37.962963"
     inkscape:window-width="1906"
     inkscape:window-height="1028"
     inkscape:window-x="0"
     inkscape:window-y="0"
     inkscape:window-maximized="1"
     inkscape:current-layer="g1" />
  <g
     transform="translate(0 -1)"
     fill="none"
     id="g1">
    <path
       d="M36.308 20.471v49.053c0 5.789 2.427 8.684 7.276 8.684h1.154v3.322h-26.062v-3.322h1.663c4.938 0 7.407-2.895 7.407-8.684v-32.191c0-5.879-2.09-8.816-6.259-8.816h-2.557v-3.32h1.023c5.021 0 9.579-1.574 13.665-4.725l2.69-.001zm43.047 43.687v5.109c0 5.707 1.996 8.561 6.003 8.561h1.658v3.316h-24.398v-3.316h1.918c4.003 0 6.004-2.813 6.004-8.43v-5.24h-24.528v-5.109l25.932-37.814h7.412v38.578h.639c2.47 0 4.299-1.953 5.489-5.873h3.066l-1.533 10.219-7.662-.001zm-6.773-5.109v-32.189l-21.716 32.189h21.716z"
       fill="#0D0F0F"
       id="path1" />
    <circle
       fill="#CAC5C0"
       cx="50"
       cy="50"
       id="circle1-1"
       style="fill:#cac5c0;fill-opacity:0;stroke:#000000;stroke-width:4;stroke-dasharray:none;stroke-opacity:1"
       inkscape:label="circle1"
       r="48"
       transform="translate(0,1)" />
  </g>
</svg>
