<?xml version="1.0" encoding="UTF-8" standalone="no"?>
<svg
   viewBox="0 0 100 100"
   version="1.1"
   id="svg1"
   sodipodi:docname="17.svg"
   inkscape:version="1.4.2 (ebf0e940d0, 2025-05-08)"
   xmlns:inkscape="http://www.inkscape.org/namespaces/inkscape"
   xmlns:sodipodi="http://sodipodi.sourceforge.net/DTD/sodipodi-0.dtd"
   xmlns="http://www.w3.org/2000/svg"
   xmlns:svg="http://www.w3.org/2000/svg">
  <defs
     id="defs1" />
  <sodipodi:namedview
     id="namedview1"
     pagecolor="#505050"
     bordercolor="#eeeeee"
     borderopacity="1"
     inkscape:showpageshadow="0"
     inkscape:pageopacity="0"
     inkscape:pagecheckerboard="0"
     inkscape:deskcolor="#505050"
     inkscape:zoom="5.94"
     inkscape:cx="26.683502"
     inkscape:cy="47.390572"
     inkscape:window-width="1906"
     inkscape:window-height="1028"
     inkscape:window-x="0"
     inkscape:window-y="0"
     inkscape:window-maximized="1"
     inkscape:current-layer="g1" />
  <g
     transform="translate(0 -1)"
     fill="none"
     id="g1">
    <path
       d="M33.711 20.152v49.307c0 5.879 2.43 8.814 7.285 8.814h1.148v3.322h-26.188v-3.322h1.789c4.938 0 7.41-2.936 7.41-8.814v-32.318c0-5.957-2.129-8.941-6.387-8.941h-2.559v-3.32h1.023c5.109 0 9.711-1.576 13.797-4.727l2.682-.001zm32.707 61.825h-8.945v-1.02c0-5.707 1.789-12.902 5.363-21.586 5.453-12.949 10.48-22.912 15.074-29.893l.516-.895h-20.953c-3.066 0-5.387.639-6.961 1.912-1.574 1.279-2.793 3.41-3.645 6.389h-3.445l3.832-16.861h2.301c1.273.598 3.578.895 6.898.895h27.59v4.855c-1.02 1.449-2.297 3.746-3.832 6.896-2.984 5.795-5.707 12.521-8.176 20.182-3.664 11.415-5.535 21.126-5.617 29.126z"
       fill="#0D0F0F"
       id="path1" />
    <circle
       fill="#CAC5C0"
       cx="50"
       cy="50"
       id="circle1-1"
       style="fill:#cac5c0;fill-opacity:0;stroke:#000000;stroke-width:4;stroke-dasharray:none;stroke-opacity:1"
       inkscape:label="circle1"
       r="48"
       transform="translate(0,1)" />
  </g>
</svg>
