<?xml version="1.0" encoding="UTF-8" standalone="no"?>
<svg
   viewBox="0 0 100 100"
   version="1.1"
   id="svg1"
   sodipodi:docname="2.svg"
   inkscape:version="1.4.2 (ebf0e940d0, 2025-05-08)"
   xmlns:inkscape="http://www.inkscape.org/namespaces/inkscape"
   xmlns:sodipodi="http://sodipodi.sourceforge.net/DTD/sodipodi-0.dtd"
   xmlns="http://www.w3.org/2000/svg"
   xmlns:svg="http://www.w3.org/2000/svg">
  <defs
     id="defs1" />
  <sodipodi:namedview
     id="namedview1"
     pagecolor="#505050"
     bordercolor="#eeeeee"
     borderopacity="1"
     inkscape:showpageshadow="0"
     inkscape:pageopacity="0"
     inkscape:pagecheckerboard="0"
     inkscape:deskcolor="#505050"
     inkscape:zoom="5.94"
     inkscape:cx="58.333333"
     inkscape:cy="47.727273"
     inkscape:window-width="1906"
     inkscape:window-height="1028"
     inkscape:window-x="0"
     inkscape:window-y="0"
     inkscape:window-maximized="1"
     inkscape:current-layer="g1" />
  <g
     fill="none"
     fill-rule="evenodd"
     id="g1">
    <path
       d="m78.442 69.105-5.681 19.898H25.555v-4.254c2.293-2.652 7.318-8.001 15.076-16.053a331.261 331.261 0 0 0 13.882-15.371c2.291-2.651 4.057-4.942 5.287-6.862 2.733-4.114 4.1-8.32 4.1-12.624 0-4.204-1.254-7.912-3.766-11.112-2.512-3.204-5.752-4.808-9.722-4.808-8.548 0-15.246 5.998-20.094 17.98l-4.235-1.647c5.73-16.829 14.763-25.249 27.106-25.249 6.083 0 11.261 2.149 15.536 6.448 4.278 4.3 6.414 9.604 6.414 15.92 0 8.052-4.449 15.918-13.353 23.601l-9.254 7.956c-5.908 5.127-10.804 9.929-14.676 14.412-.27.273-.796.916-1.587 1.921h24.59c3.79 0 6.656-.776 8.594-2.335 1.672-1.372 3.309-3.98 4.895-7.821h4.094Z"
       fill="#0D0F0F"
       id="path1" />
    <circle
       fill="#CAC5C0"
       cx="50"
       cy="50"
       id="circle1"
       style="fill:#cac5c0;fill-opacity:0;stroke:#000000;stroke-width:4;stroke-dasharray:none;stroke-opacity:1"
       r="48" />
  </g>
</svg>
