<?xml version="1.0" encoding="UTF-8" standalone="no"?>
<svg
   viewBox="0 0 100 100"
   version="1.1"
   id="svg2"
   sodipodi:docname="2b.svg"
   inkscape:version="1.4.2 (ebf0e940d0, 2025-05-08)"
   xmlns:inkscape="http://www.inkscape.org/namespaces/inkscape"
   xmlns:sodipodi="http://sodipodi.sourceforge.net/DTD/sodipodi-0.dtd"
   xmlns="http://www.w3.org/2000/svg"
   xmlns:svg="http://www.w3.org/2000/svg">
  <defs
     id="defs2" />
  <sodipodi:namedview
     id="namedview2"
     pagecolor="#505050"
     bordercolor="#eeeeee"
     borderopacity="1"
     inkscape:showpageshadow="0"
     inkscape:pageopacity="0"
     inkscape:pagecheckerboard="0"
     inkscape:deskcolor="#505050"
     inkscape:zoom="8.4004286"
     inkscape:cx="47.914222"
     inkscape:cy="46.604765"
     inkscape:window-width="1906"
     inkscape:window-height="1028"
     inkscape:window-x="0"
     inkscape:window-y="0"
     inkscape:window-maximized="1"
     inkscape:current-layer="g3" />
  <g
     fill="none"
     fill-rule="evenodd"
     id="g2">
    <path
       d="m 44.013407,41.906211 -2.756809,9.308317 H 18.343151 v -1.989211 c 1.11292,-1.240853 3.551339,-3.742758 7.317182,-7.507639 a 157.28911,157.28911 0 0 0 6.738118,-7.191172 c 1.112919,-1.238929 1.969973,-2.309525 2.56539,-3.208902 1.326462,-1.922841 1.991135,-3.891852 1.991135,-5.904149 0,-1.967088 -0.608883,-3.701396 -1.828574,-5.19619 -1.218729,-1.501528 -2.792399,-2.249887 -4.718125,-2.249887 -4.148679,0 -7.400867,2.804904 -9.753677,8.409901 l -2.055583,-0.772406 c 2.780856,-7.871237 7.16424,-11.806374 13.156884,-11.806374 2.952074,0 5.465522,1.004224 7.540342,3.014598 2.076745,2.012297 3.112713,4.492078 3.112713,7.446076 0,3.765843 -2.159468,7.442229 -6.48129,11.038777 l -4.490155,3.720634 c -2.867427,2.397058 -5.245246,4.643097 -7.123839,6.738117 -0.130819,0.131781 -0.386685,0.429008 -0.771445,0.90034 H 35.47942 c 1.839155,0 3.231026,-0.362637 4.169841,-1.089834 0.812807,-0.644474 1.606375,-1.863203 2.375896,-3.660996 z m 44.222442,23.469425 c 0,2.598095 -0.944587,4.370879 -2.834723,5.314504 -0.552131,0.276066 -2.283553,0.652169 -5.198114,1.121577 -1.888212,0.317427 -2.83376,1.044624 -2.83376,2.184477 v 4.783535 c 0,0.201037 0.0606,0.80992 0.176989,1.832421 l 0.177952,1.891098 c 0,0.589645 -0.138514,1.555394 -0.414579,2.893398 -0.747397,0.15679 -1.61407,0.334742 -2.598095,0.533855 -0.315504,-1.183138 -0.472294,-1.990173 -0.472294,-2.42399 0,-0.195266 0.04809,-0.492494 0.147171,-0.885911 0.09811,-0.392456 0.148133,-0.688721 0.148133,-0.886873 0,-0.27318 -0.243361,-1.041739 -0.732969,-2.302791 h -0.916691 c -0.1212,0.197189 -0.160638,0.453055 -0.122162,0.766635 0.157752,0.670445 0.216428,1.23989 0.177952,1.713146 -0.670445,0.472293 -1.59387,1.102338 -2.775085,1.890135 -0.277989,-0.07888 -0.374179,-0.118313 -0.296265,-0.118313 V 79.489612 C 69.791395,79.294346 69.595167,79.21547 69.278701,79.252984 H 68.56978 l -0.708921,5.551131 c -0.551169,0.03944 -1.219691,0.03944 -2.006526,0 -0.276065,-1.299528 -0.768559,-3.226216 -1.476518,-5.787759 h -0.474217 c -0.432856,1.378405 -0.668521,2.126764 -0.708921,2.245077 0,0.15679 0.05002,0.460751 0.149094,0.914768 0.09715,0.454018 0.147171,0.757017 0.147171,0.914768 0,0.117352 -0.0404,0.413618 -0.120237,0.885911 l -0.17699,1.418804 a 0.40880797,0.40880797 0 0 1 -0.294342,0.115429 c -1.181214,0 -1.969973,-0.295304 -2.361467,-0.883988 -0.396303,-0.591569 -0.554055,-1.418804 -0.474217,-2.481704 l 0.474217,-7.084402 c 0,-0.118314 0.03751,-0.276066 0.11639,-0.473256 0.07888,-0.195265 0.118314,-0.334741 0.118314,-0.411693 0,-0.315504 -0.334742,-0.946511 -1.003263,-1.893022 -0.118314,-0.03848 -0.728159,-0.177951 -1.83146,-0.414579 -0.668521,-0.155828 -1.988249,-0.431894 -3.955337,-0.824349 -2.717371,-0.51077 -4.076537,-2.696209 -4.076537,-6.554394 0,-5.750245 2.363391,-10.531856 7.086325,-14.351565 0.196228,1.063863 0.532894,2.479781 1.005187,4.251603 l 2.302791,0.532893 c 0.23759,0.07791 1.437081,0.511731 3.60232,1.299528 -1.101377,-0.668521 -2.539419,-1.748736 -4.309317,-3.246416 -0.670445,-0.786835 -1.006149,-2.107525 -1.006149,-3.956299 0,-0.435741 0.748359,-0.944587 2.24604,-1.539042 1.338004,-0.550207 2.341267,-0.861863 3.011712,-0.942663 2.124839,-0.274142 3.759109,-0.413617 4.901848,-0.413617 4.920124,0 8.897585,1.261052 11.928536,3.782195 -0.983063,1.142738 -2.676971,2.359543 -5.077876,3.660995 0.944587,0.03944 2.322991,-0.333779 4.134251,-1.1235 1.810298,-0.78395 2.577895,-1.181215 2.302791,-1.181215 0.314542,0 0.945549,0.631007 1.890136,1.890136 0.706997,0.944587 1.278366,1.792022 1.712184,2.539419 a 22.195868,22.195868 0 0 1 2.540381,7.264277 c 0,0.906111 0.01924,1.555394 0.05868,1.94785 z m -22.620067,1.065787 c 0,-1.693908 -0.737778,-3.298359 -2.213335,-4.815277 -1.47748,-1.515956 -3.063655,-2.272972 -4.755639,-2.272972 -1.495756,0 -2.81356,0.634854 -3.956299,1.90264 -1.141777,1.268748 -1.712184,2.676009 -1.712184,4.222746 0,1.346661 0.649283,2.22103 1.948812,2.615409 0.827235,0.238552 1.987287,0.377065 3.483044,0.417465 h 3.24834 c 2.638494,0.03367 3.957261,-0.656016 3.957261,-2.070011 z m 6.438004,7.321991 V 71.93484 A 59.558031,59.558031 0 0 1 71.228475,70.338084 C 70.991847,69.552211 70.55803,68.449872 69.928946,67.030106 l -0.650245,6.910298 c 0,0.554055 -0.117352,0.828197 -0.354941,0.828197 -0.15679,0 -0.276066,-0.03848 -0.35398,-0.118314 -0.276065,-4.172727 -0.412655,-5.984949 -0.412655,-5.430894 V 67.15323 c -0.07984,-0.1212 -0.177952,-0.180838 -0.296266,-0.180838 -1.338004,1.382252 -2.006526,3.605206 -2.006526,6.67367 0,1.693908 0.15679,2.736609 0.471332,3.132912 a 5.4578269,5.4578269 0 0 0 1.064824,-0.414579 c 0.15679,-0.07984 0.608884,-0.118314 1.357243,-0.118314 0.745473,0 1.65447,0.235666 2.715447,0.706997 0.394379,-0.0029 0.590607,-1.0629 0.590607,-3.189664 z m 13.34734,-8.230026 c 0,-1.583289 -0.590607,-3.000169 -1.771822,-4.249679 -1.181214,-1.247586 -2.539419,-1.870898 -4.072689,-1.870898 -1.65447,0 -3.201207,0.757017 -4.637326,2.271049 -1.438042,1.515956 -2.156582,3.101169 -2.156582,4.756601 0,1.377442 0.670445,2.065202 2.00845,2.065202 h 6.79006 c 2.56058,-0.03848 3.839909,-1.027311 3.839909,-2.972275 z"
       fill="#0d0f0f"
       id="path2"
       style="stroke-width:0.961901" />
    <g
       id="g3"
       inkscape:label="dual mana dividers">
      <circle
         fill="#CAC5C0"
         cx="50"
         cy="50"
         id="circle1-1"
         style="fill:#cac5c0;fill-opacity:0;stroke:#000000;stroke-width:4;stroke-dasharray:none;stroke-opacity:1"
         inkscape:label="circle1"
         r="48" />
      <path
         style="fill:#cac5c0;fill-opacity:0;stroke:#000000;stroke-width:4;stroke-linecap:butt;stroke-dasharray:none"
         d="m 16.058875,83.941125 67.88225,-67.88225"
         id="path3"
         inkscape:label="path3" />
    </g>
  </g>
</svg>
