<?xml version="1.0" encoding="UTF-8" standalone="no"?>
<svg
   viewBox="0 0 100 100"
   version="1.1"
   id="svg2"
   sodipodi:docname="bg.svg"
   inkscape:version="1.4.2 (ebf0e940d0, 2025-05-08)"
   xmlns:inkscape="http://www.inkscape.org/namespaces/inkscape"
   xmlns:sodipodi="http://sodipodi.sourceforge.net/DTD/sodipodi-0.dtd"
   xmlns="http://www.w3.org/2000/svg"
   xmlns:svg="http://www.w3.org/2000/svg">
  <defs
     id="defs2" />
  <sodipodi:namedview
     id="namedview2"
     pagecolor="#505050"
     bordercolor="#eeeeee"
     borderopacity="1"
     inkscape:showpageshadow="0"
     inkscape:pageopacity="0"
     inkscape:pagecheckerboard="0"
     inkscape:deskcolor="#505050"
     inkscape:zoom="8.4004286"
     inkscape:cx="38.50994"
     inkscape:cy="45.771474"
     inkscape:window-width="1906"
     inkscape:window-height="1028"
     inkscape:window-x="0"
     inkscape:window-y="0"
     inkscape:window-maximized="1"
     inkscape:current-layer="svg2" />
  <g
     fill="none"
     fill-rule="evenodd"
     id="g2">
    <path
       d="m 53.132389,29.404302 c 0,2.513127 -0.913695,4.227004 -2.742016,5.140699 -0.534074,0.267037 -2.208873,0.63084 -5.028116,1.084897 -1.826461,0.306115 -2.740155,1.012322 -2.740155,2.113036 v 4.627095 c 0,0.194463 0.05768,0.783434 0.171201,1.773425 l 0.172132,1.828322 c 0,0.570361 -0.133984,1.504526 -0.401021,2.798774 -0.722024,0.151661 -1.561284,0.323794 -2.512197,0.516395 -0.305186,-1.143515 -0.456848,-1.925088 -0.456848,-2.344717 0,-0.18888 0.04652,-0.476387 0.141428,-0.856938 0.09491,-0.379622 0.142357,-0.666198 0.142357,-0.856939 0,-0.264245 -0.235401,-1.008601 -0.708997,-2.226551 h -0.886712 c -0.116306,0.188881 -0.155385,0.436378 -0.118167,0.739702 0.152593,0.64759 0.20935,1.199342 0.173062,1.657121 -0.648519,0.456847 -1.541744,1.066287 -2.685259,1.82832 -0.267967,-0.0763 -0.362873,-0.114444 -0.286577,-0.114444 v -4.055803 c -0.0763,-0.187949 -0.266106,-0.265176 -0.571292,-0.227958 h -0.685736 l -0.684807,5.369588 c -0.532213,0.03815 -1.180733,0.03815 -1.940904,0 C 31.216727,46.942228 30.73941,45.07762 30.055534,42.60171 h -0.457778 c -0.4187,1.333325 -0.646658,2.056279 -0.685737,2.170724 0,0.151662 0.04838,0.446613 0.144219,0.884852 0.09398,0.438238 0.141427,0.732258 0.141427,0.884851 0,0.112584 -0.03815,0.400091 -0.115375,0.856938 l -0.171201,1.371475 a 0.39357753,0.39357753 0 0 1 -0.284717,0.112582 c -1.143514,0 -1.905547,-0.284715 -2.284237,-0.855077 -0.382413,-0.571292 -0.535006,-1.373334 -0.458709,-2.400544 l 0.458709,-6.853645 c 0,-0.112584 0.03536,-0.265177 0.112584,-0.457778 0.07629,-0.18888 0.114443,-0.323795 0.114443,-0.39823 0,-0.305185 -0.323794,-0.915556 -0.970452,-1.830182 -0.114445,-0.03628 -0.705275,-0.171201 -1.771564,-0.400091 -0.646658,-0.151662 -1.923226,-0.418699 -3.825983,-0.79832 -2.627571,-0.493135 -3.942288,-2.608033 -3.942288,-6.340971 0,-5.56126 2.285169,-10.186494 6.854577,-13.880354 0.189809,1.02814 0.514534,2.396822 0.971382,4.110699 l 2.229342,0.516395 c 0.22982,0.07537 1.390083,0.495927 3.484511,1.257961 -1.066289,-0.646658 -2.456371,-1.693407 -4.168387,-3.142107 -0.648519,-0.761103 -0.973243,-2.036741 -0.973243,-3.826915 0,-0.418699 0.723884,-0.912764 2.172585,-1.487777 1.294246,-0.531284 2.264698,-0.834608 2.913217,-0.910905 2.05535,-0.266107 3.635243,-0.401951 4.74154,-0.401951 4.759218,0 8.60567,1.220741 11.537497,3.658503 -0.950914,1.105366 -2.589424,2.282378 -4.91181,3.542197 0.913695,0.03815 2.24702,-0.323794 3.999975,-1.086757 1.751095,-0.759242 2.493588,-1.141655 2.227482,-1.141655 0.304254,0 0.913696,0.608511 1.828321,1.826461 0.683876,0.913696 1.236559,1.735277 1.65619,2.457301 a 21.483006,21.483006 0 0 1 2.458231,7.027638 c 0,0.875548 0.01768,1.503596 0.05676,1.883218 v 0.454986 h -0.0047 z m -21.880305,1.030931 c 0,-1.638511 -0.71365,-3.19049 -2.14188,-4.657799 -1.428231,-1.466379 -2.962532,-2.198638 -4.599182,-2.198638 -1.446839,0 -2.721546,0.614092 -3.826913,1.840417 -1.104436,1.227254 -1.655259,2.588493 -1.655259,4.083715 0,1.303552 0.627118,2.149325 1.885079,2.530806 0.800181,0.23075 1.921364,0.364734 3.369135,0.403813 h 3.141177 c 2.551275,0.03349 3.827843,-0.634562 3.827843,-2.002314 z m 6.227457,7.082535 v -1.768773 a 56.235994,56.235994 0 0 1 -0.79832,-1.544536 c -0.228889,-0.760173 -0.648519,-1.82646 -1.257959,-3.199794 l -0.62898,6.686165 c 0,0.534074 -0.112584,0.799251 -0.342404,0.799251 -0.151661,0 -0.267036,-0.03722 -0.343333,-0.113514 -0.266107,-4.037194 -0.39916,-5.79108 -0.39916,-5.254214 v -1.998592 c -0.07722,-0.117236 -0.172132,-0.174924 -0.286577,-0.174924 -1.294246,1.337048 -1.940904,3.487302 -1.940904,6.455417 0,1.63851 0.150731,2.647111 0.454986,3.030453 a 5.2151348,5.2151348 0 0 0 1.02907,-0.401021 c 0.151663,-0.07722 0.589902,-0.114445 1.313786,-0.114445 0.721094,0 1.599433,0.22889 2.626642,0.683876 0.382412,-9.3e-4 0.573153,-1.028139 0.573153,-3.085349 z m 12.910832,-7.960873 c 0,-1.53151 -0.571292,-2.901122 -1.714807,-4.1107 -1.143515,-1.206785 -2.456371,-1.809712 -3.939497,-1.809712 -1.600363,0 -3.096516,0.73226 -4.484737,2.198638 -1.391013,1.464518 -2.086054,2.998819 -2.086054,4.598252 0,1.333325 0.648519,1.998591 1.942766,1.998591 h 6.568929 c 2.47498,-0.03722 3.7134,-0.993714 3.7134,-2.875069 z m 36.481752,36.606431 c 0,0.705277 -0.27262,1.337047 -0.817859,1.900895 -0.545241,0.561988 -1.170498,0.842052 -1.875774,0.842052 -1.123046,0 -1.952071,-0.526631 -2.477771,-1.582684 l -2.481492,-0.104206 c -0.527561,0 -1.566867,0.228888 -3.112334,0.685737 -1.653397,0.455917 -2.603379,0.826233 -2.850878,1.106296 -0.385203,0.422422 -0.702484,1.408691 -0.949052,2.95695 -0.21214,1.265402 -0.31542,2.198636 -0.31542,2.796912 0,0.949052 0.148871,1.645024 0.446613,2.084193 0.298673,0.4401 0.915556,0.808555 1.845999,1.106297 0.930444,0.295881 1.503596,0.467082 1.715738,0.501509 0.140497,0 0.368456,-0.01675 0.685737,-0.05303 h 0.633631 c 0.456848,0 0.931375,0.07071 1.42544,0.21121 0.702484,0.211212 1.002087,0.490345 0.897877,0.843912 -0.494065,-0.06885 -1.354726,0.03536 -2.584771,0.316351 l 1.475683,0.739703 c 0,0.422421 -0.598275,0.631771 -1.793895,0.631771 -0.318212,0 -0.749937,-0.067 -1.293316,-0.20935 -0.547101,-0.143288 -0.908113,-0.213071 -1.082106,-0.213071 h -0.685736 c -0.03536,0.352638 -0.139567,0.877408 -0.316351,1.582684 -0.601067,-0.03443 -1.30169,-0.387064 -2.112107,-1.054192 -0.809485,-0.66992 -1.319368,-1.003949 -1.528717,-1.003949 -0.212142,0 -0.512675,0.334029 -0.897879,1.003949 -0.387994,0.667128 -0.580596,1.123045 -0.580596,1.372403 -0.456848,-0.249358 -0.842982,-0.705275 -1.162124,-1.372403 a 21.49324,21.49324 0 0 0 -0.473596,-1.376126 c -0.352638,0.03628 -1.002087,0.77785 -1.953001,2.219107 H 64.389823 C 64.318182,81.991102 64.054864,81.253265 63.597085,79.877139 62.506606,79.528223 61.48684,79.3533 60.537788,79.3533 c -0.456848,0 -1.162124,0.104206 -2.112106,0.317281 l -1.476614,-0.105144 c 0.21028,-0.21214 0.826233,-0.615954 1.846,-1.214228 1.194688,-0.705276 2.111175,-1.057915 2.743877,-1.057915 0.104206,0 0.245637,0.01954 0.42242,0.05489 0.174924,0.03628 0.317282,0.05397 0.422422,0.05397 0.243776,0 0.641076,-0.132122 1.186316,-0.397299 0.545239,-0.263315 0.86252,-0.501508 0.948121,-0.71272 0.09119,-0.213071 0.134914,-0.756449 0.134914,-1.636649 0,-2.003245 -0.528492,-3.501258 -1.584545,-4.483807 -0.914626,-0.879269 -2.426595,-1.51197 -4.537772,-1.900895 -0.561988,2.004175 -2.146532,3.009054 -4.748052,3.009054 -0.845773,0 -1.689685,-0.510814 -2.533597,-1.53151 -0.843912,-1.021627 -1.266333,-1.953001 -1.266333,-2.797843 0,-1.30169 0.545239,-2.373561 1.635719,-3.218404 -0.878339,-0.912765 -1.319368,-1.845069 -1.319368,-2.796913 0,-0.878338 0.271688,-1.652467 0.817859,-2.322386 0.545239,-0.666198 1.25889,-1.054193 2.137228,-1.161193 -0.06885,-1.123976 0.298672,-1.899965 1.107227,-2.321457 -0.386133,-0.385202 -0.578735,-1.07001 -0.578735,-2.05721 0,-1.159332 0.385204,-2.127924 1.160263,-2.902052 0.772268,-0.772268 1.740859,-1.161193 2.900192,-1.161193 1.268194,0 2.306568,0.44196 3.115124,1.319368 1.021627,-3.481719 3.218404,-5.222578 6.595913,-5.222578 1.757607,0 3.306795,0.703414 4.642912,2.112106 0.493135,0.5257 0.737841,0.807624 0.737841,0.842051 -0.42056,0 -0.209349,-0.08001 0.633632,-0.236333 0.845773,-0.159106 1.458935,-0.239124 1.847861,-0.239124 1.371473,0 2.584771,0.511744 3.642686,1.531511 0.913694,0.915555 1.547326,2.073957 1.899965,3.481718 0.244706,0.03628 0.631771,0.140498 1.158402,0.317281 0.774128,0.387996 1.162124,1.056053 1.162124,2.005106 0,0.174923 -0.141428,0.510814 -0.422422,1.003948 2.250742,1.266333 3.377509,3.024871 3.377509,5.275614 0,0.633632 -0.247498,1.513831 -0.737841,2.638737 0.917417,0.529422 1.375195,1.303551 1.375195,2.324247 z m -21.7426,2.321456 v -0.684806 c 0,-0.808555 -0.394508,-1.548258 -1.186315,-2.216316 -0.791807,-0.669919 -1.591058,-1.002087 -2.400544,-1.002087 -0.986269,0 -1.899965,0.228888 -2.743877,0.682945 1.864608,-0.102353 3.973924,0.968592 6.330736,3.220264 z M 64.180474,61.943765 A 13.551907,13.551907 0 0 1 62.809,60.096835 c -1.478474,0.385204 -2.217247,0.827165 -2.217247,1.317508 0.421491,-0.03443 1.038375,0.04373 1.846,0.238194 0.809485,0.194463 1.391943,0.291228 1.742721,0.291228 z m 3.221194,-1.63851 v -2.321456 c -0.845773,-0.138636 -1.357517,-0.210281 -1.531509,-0.210281 v 0.791808 z m 6.859228,-1.475683 a 101.34389,101.34389 0 0 1 -2.376352,-1.056054 v 4.537772 c 1.654328,-0.950912 2.445205,-2.110245 2.376352,-3.481718 z m 2.899261,6.226527 -1.159331,-1.422648 c -0.702486,0.492204 -1.415206,0.991852 -2.13816,1.502665 a 9.6300884,9.6300884 0 0 0 -1.871121,1.715738 c 1.580823,-0.847634 3.306795,-1.443118 5.168612,-1.795755 z"
       fill="#0d0f0f"
       id="path2"
       style="stroke-width:0.930443" />
    <g
       id="g3"
       inkscape:label="dual mana dividers">
      <circle
         fill="#CAC5C0"
         cx="50"
         cy="50"
         id="circle1-1"
         style="fill:#cac5c0;fill-opacity:0;stroke:#000000;stroke-width:4;stroke-dasharray:none;stroke-opacity:1"
         inkscape:label="circle1"
         r="48" />
      <path
         style="fill:#cac5c0;fill-opacity:0;stroke:#000000;stroke-width:4;stroke-linecap:butt;stroke-dasharray:none"
         d="m 16.058875,83.941125 67.88225,-67.88225"
         id="path3"
         inkscape:label="path3" />
    </g>
  </g>
</svg>
