<?xml version="1.0" encoding="UTF-8" standalone="no"?>
<svg
   viewBox="0 0 100 100"
   version="1.1"
   id="svg1"
   sodipodi:docname="bp.svg"
   inkscape:version="1.4.2 (ebf0e940d0, 2025-05-08)"
   xmlns:inkscape="http://www.inkscape.org/namespaces/inkscape"
   xmlns:sodipodi="http://sodipodi.sourceforge.net/DTD/sodipodi-0.dtd"
   xmlns="http://www.w3.org/2000/svg"
   xmlns:svg="http://www.w3.org/2000/svg">
  <defs
     id="defs1" />
  <sodipodi:namedview
     id="namedview1"
     pagecolor="#505050"
     bordercolor="#eeeeee"
     borderopacity="1"
     inkscape:showpageshadow="0"
     inkscape:pageopacity="0"
     inkscape:pagecheckerboard="0"
     inkscape:deskcolor="#505050"
     inkscape:zoom="5.94"
     inkscape:cx="41.498317"
     inkscape:cy="39.814815"
     inkscape:window-width="1906"
     inkscape:window-height="1028"
     inkscape:window-x="0"
     inkscape:window-y="0"
     inkscape:window-maximized="1"
     inkscape:current-layer="g1" />
  <g
     transform="translate(0 -1)"
     fill="none"
     id="g1">
    <path
       d="M 77.307,50.928 C 77.366,45.584 75.668,40.19 72.34,36 70.733,34.23 69.409,32.213 67.707,30.539 63.952,26.814 58.332,26.566 53.811,24.219 53.547,21.862 52.686,19.504 53.207,17.125 53.366,16.334 53.6,15.533 53.178,14.777 51.991,12.045 53.012,9.078 52.801,6.23 52.643,4.742 52.743,2.921 51.325,2.001 c -0.33,3.098 -1.469,5.98 -2.392,8.918 -0.426,2.291 -0.426,4.676 -1.413,6.836 0.627,2.189 -0.613,4.031 -1.955,5.646 -2.968,1.52 -6.496,1.881 -9.078,4.109 -1.84,1.563 -3.828,2.932 -5.887,4.203 -1.545,1.934 -3.256,3.797 -3.945,6.24 -2.762,3.334 -3.088,7.811 -4.654,11.717 -0.029,5.799 1.146,12.043 4.85,16.691 2.65,2.188 4.502,5.131 7.149,7.318 2.541,1.518 5.252,2.764 7.875,4.127 1.709,0.4 3.475,0.596 5.176,1.061 1.379,7.109 2.322,14.389 5.092,21.133 0.918,-2.768 0.807,-5.736 1.6,-8.533 1.119,-4.135 -1.176,-8.439 0.117,-12.5 1.938,-1.732 5.17,-0.607 7.32,-2.094 4.092,-2.523 8.422,-4.98 11.391,-8.84 1.105,-2.219 3.426,-3.877 3.426,-6.539 0.019,-3.583 2.109,-6.941 1.31,-10.566 z M 46.934,72.86 c -2.965,-0.721 -5.727,-2.139 -8.213,-3.871 -2.676,-1.783 -3.674,-5.109 -6.314,-6.934 -2.473,-2.949 -1.938,-6.98 -2.951,-10.475 0.406,-2.439 0.885,-4.857 1.139,-7.326 1.205,-1.955 3.066,-3.514 3.582,-5.869 1.769,-2.533 4.459,-4.285 6.619,-6.48 1.572,-1.813 4.074,-1.047 6.139,-1.119 l 8.263,0.037 c 2.342,0.936 4.547,2.197 6.496,3.82 2.354,1.766 5.961,2.908 6.488,6.199 0.268,2.16 2.633,3.467 2.564,5.678 -0.146,5.256 0.579,10.752 -1.335,15.77 -1.963,1.398 -3.637,3.111 -5.35,4.785 -2.979,2.061 -5.924,4.24 -9.469,5.27 z"
       fill="#111212"
       id="path1"
       sodipodi:nodetypes="cccccccccccccccccccccccccccccccccccccccccc" />
    <path
       d="m 66.115875,48.965907 c 0,2.163599 -0.79526,3.639265 -2.384195,4.425812 -0.464166,0.229707 -1.920822,0.540603 -4.371158,0.934668 -1.588935,0.262578 -2.383403,0.868925 -2.383403,1.818642 v 3.983429 c 0,0.165547 0.04951,0.672486 0.148517,1.524776 l 0.149309,1.574282 c 0,0.491889 -0.116041,1.296258 -0.348124,2.409939 -0.628921,0.130695 -1.357645,0.278024 -2.185381,0.443571 -0.26535,-0.98457 -0.39763,-1.656263 -0.39763,-2.017853 0,-0.162775 0.04159,-0.409512 0.123963,-0.737834 0.08198,-0.327133 0.12515,-0.573078 0.12515,-0.738229 0,-0.227726 -0.205944,-0.867736 -0.617435,-1.916465 h -0.770309 c -0.10218,0.163963 -0.13624,0.377035 -0.102972,0.638821 0.132279,0.557633 0.181785,1.032492 0.149309,1.425765 a 111.94432,111.94432 0 0 1 -2.33469,1.573886 c -0.232083,-0.06495 -0.314064,-0.09782 -0.249113,-0.09782 v -3.49154 c -0.06495,-0.163171 -0.23129,-0.227726 -0.496641,-0.196834 h -0.595653 l -0.595653,4.621854 c -0.464957,0.03287 -1.02655,0.03287 -1.688739,0 -0.232875,-1.081205 -0.645951,-2.687171 -1.241603,-4.818689 h -0.39763 c -0.365155,1.148533 -0.563178,1.771909 -0.596445,1.870128 0,0.130695 0.04119,0.384164 0.124358,0.7612 0.08198,0.377432 0.123962,0.630901 0.123962,0.761992 0,0.09822 -0.03327,0.343768 -0.09901,0.737437 l -0.149309,1.180217 a 0.34139147,0.34139147 0 0 1 -0.248321,0.09822 c -0.993283,0 -1.656264,-0.245548 -1.986566,-0.736645 -0.331094,-0.492681 -0.464165,-1.181009 -0.39763,-2.066963 l 0.39763,-5.90029 c 0,-0.09901 0.03248,-0.229707 0.09901,-0.39367 0.06495,-0.163963 0.09901,-0.278816 0.09901,-0.343767 0,-0.262975 -0.281588,-0.787735 -0.843973,-1.574282 -0.09822,-0.03168 -0.613475,-0.147725 -1.53943,-0.34456 -0.56397,-0.130695 -1.673294,-0.360006 -3.327577,-0.688724 -2.28558,-0.424957 -3.42738,-2.244787 -3.42738,-5.458303 0,-4.786609 1.987357,-8.769642 5.960885,-11.949889 0.163963,0.885558 0.446343,2.064982 0.843181,3.540649 0.298619,0.06654 0.944569,0.213865 1.93706,0.442383 0.199607,0.06614 1.209128,0.426937 3.030543,1.082393 -0.928332,-0.557632 -2.135875,-1.45824 -3.626196,-2.704993 -0.563177,-0.655455 -0.844765,-1.752898 -0.844765,-3.293516 0,-0.360798 0.629712,-0.787735 1.888346,-1.28002 1.12477,-0.459017 1.970328,-0.720012 2.533109,-0.786547 1.78775,-0.228519 3.162029,-0.34456 4.122836,-0.34456 4.138283,0 7.481701,1.049521 10.031048,3.148168 -0.826943,0.951302 -2.251124,1.965971 -4.270562,3.047968 0.79526,0.03287 1.95409,-0.277232 3.476886,-0.934668 1.5224,-0.654663 2.168351,-0.983381 1.93706,-0.983381 0.264559,0 0.79526,0.525552 1.589728,1.574282 0.595653,0.786546 1.075264,1.492696 1.440419,2.113696 1.059026,1.869732 1.77072,3.885209 2.135875,6.049203 0,0.754864 0.01624,1.295862 0.0495,1.622996 v 0.393669 z M 47.0934,49.85107 c 0,-1.409131 -0.621,-2.74539 -1.862603,-4.008776 -1.242396,-1.262198 -2.57509,-1.892307 -3.998478,-1.892307 -1.258634,0 -2.367166,0.528722 -3.327577,1.584184 -0.960807,1.055858 -1.440419,2.227757 -1.440419,3.51451 0,1.12081 0.546147,1.84795 1.639234,2.17746 0.695456,0.198023 1.670917,0.314064 2.929947,0.346144 h 2.731923 c 2.217065,0.03287 3.327973,-0.540999 3.327973,-1.721215 z m 5.413154,6.099105 V 54.425003 A 47.902926,47.902926 0 0 1 51.81189,53.096665 c -0.198815,-0.656248 -0.563177,-1.573886 -1.093087,-2.754499 l -0.546939,5.75415 c 0,0.459413 -0.09901,0.688327 -0.297826,0.688327 -0.13228,0 -0.231291,-0.03208 -0.297827,-0.09703 -0.232083,-3.475698 -0.348124,-4.98384 -0.348124,-4.525615 v -1.720423 c -0.06654,-0.09941 -0.148517,-0.148517 -0.247529,-0.148517 -1.126354,1.148929 -1.688739,3.000443 -1.688739,5.557314 0,1.409923 0.130695,2.278452 0.396838,2.606774 0.265351,-0.06495 0.563177,-0.180201 0.894271,-0.343768 0.13228,-0.06614 0.51288,-0.09901 1.143385,-0.09901 0.627336,0 1.39012,0.196835 2.2836,0.590109 0.331094,0 0.496641,-0.884767 0.496641,-2.654695 z m 11.225522,-6.85278 c 0,-1.320021 -0.496642,-2.499841 -1.489924,-3.53867 -0.994075,-1.038432 -2.136667,-1.558836 -3.426589,-1.558836 -1.390912,0 -2.691131,0.630109 -3.899466,1.892307 -1.209128,1.262198 -1.813098,2.581823 -1.813098,3.958874 0,1.148533 0.562385,1.721215 1.688739,1.721215 h 5.711773 c 2.151716,-0.03208 3.228565,-0.857439 3.228565,-2.47489 z"
       fill="#0d0f0f"
       id="path1-2"
       style="stroke-width:0.396046"
       transform="translate(0,1)" />
    <circle
       fill="#CAC5C0"
       cx="50"
       cy="51"
       id="circle1-1"
       style="fill:#cac5c0;fill-opacity:0;stroke:#000000;stroke-width:4;stroke-dasharray:none;stroke-opacity:1"
       inkscape:label="circle1"
       r="48" />
  </g>
</svg>
