<?xml version="1.0" encoding="UTF-8" standalone="no"?>
<svg
   viewBox="0 0 100 100"
   version="1.1"
   id="svg2"
   sodipodi:docname="br.svg"
   inkscape:version="1.4.2 (ebf0e940d0, 2025-05-08)"
   xmlns:inkscape="http://www.inkscape.org/namespaces/inkscape"
   xmlns:sodipodi="http://sodipodi.sourceforge.net/DTD/sodipodi-0.dtd"
   xmlns="http://www.w3.org/2000/svg"
   xmlns:svg="http://www.w3.org/2000/svg">
  <defs
     id="defs2" />
  <sodipodi:namedview
     id="namedview2"
     pagecolor="#505050"
     bordercolor="#eeeeee"
     borderopacity="1"
     inkscape:showpageshadow="0"
     inkscape:pageopacity="0"
     inkscape:pagecheckerboard="0"
     inkscape:deskcolor="#505050"
     inkscape:zoom="5.94"
     inkscape:cx="60.016835"
     inkscape:cy="36.952862"
     inkscape:window-width="1906"
     inkscape:window-height="1028"
     inkscape:window-x="0"
     inkscape:window-y="0"
     inkscape:window-maximized="1"
     inkscape:current-layer="g2" />
  <g
     fill="none"
     fill-rule="evenodd"
     id="g2">
    <path
       d="m 85.696223,72.530803 c -1.597502,3.812433 -4.770191,5.714929 -9.521784,5.714929 -0.87128,0 -1.81509,0.106932 -2.830499,0.325452 -1.524043,0.328241 -2.285601,0.781085 -2.285601,1.362248 0,0.181323 0.126462,0.388682 0.381243,0.626726 0.251994,0.235255 0.472371,0.354278 0.653693,0.354278 -0.908474,0 -0.291976,0.02697 1.847636,0.07904 2.141472,0.05579 3.484192,0.08275 4.029091,0.08275 -3.155951,1.849495 -8.433846,2.702179 -15.834616,2.55712 -2.430659,-0.0344 -4.516339,-1.104676 -6.25704,-3.208953 -1.706296,-1.995483 -2.55805,-4.226222 -2.55805,-6.692215 0,-2.612912 0.87965,-4.833422 2.639878,-6.667109 1.757439,-1.829969 3.944474,-2.745882 6.556455,-2.745882 0.579304,0 1.351089,0.127392 2.311637,0.379384 0.961476,0.253852 1.605871,0.381243 1.931323,0.381243 1.34272,0 3.011821,-0.555128 5.007305,-1.659803 1.995483,-1.105606 2.938363,-1.659803 2.829569,-1.659803 -0.363575,3.809643 -1.632836,6.368623 -3.809644,7.671359 -1.560307,0.909405 -2.339531,1.798353 -2.339531,2.665914 0,0.544898 0.325451,0.981004 0.978214,1.307386 a 3.7436235,3.7436235 0 0 0 1.687699,0.379383 c 0.94288,0 1.867163,-0.579304 2.774708,-1.740701 0.905685,-1.159538 1.304596,-2.212142 1.195803,-3.155952 -0.10787,-1.089797 -0.03441,-2.395323 0.218517,-3.917507 0.0716,-0.437035 0.33568,-0.971706 0.788523,-1.605871 0.453772,-0.636026 0.862911,-1.026568 1.224627,-1.173485 0,0.329171 -0.118092,0.87314 -0.353347,1.632837 -0.236185,0.762486 -0.353347,1.326912 -0.353347,1.686769 0,0.799681 0.217587,1.416179 0.653692,1.850425 0.651834,-0.251993 1.231137,-1.069341 1.740701,-2.449256 0.435176,-1.050744 0.688098,-2.068012 0.762487,-3.044367 -1.524973,-0.07253 -2.985786,-0.762487 -4.380579,-2.070803 -1.395722,-1.305526 -2.094049,-2.719846 -2.094049,-4.242959 a 2.6965991,2.6965991 0 0 1 0.108796,-0.761556 c 0.215729,0.32824 0.542111,0.835945 0.979145,1.524973 0.615568,0.906615 1.087939,1.360387 1.41432,1.360387 0.435175,0 0.652763,-0.453772 0.652763,-1.360387 0,-1.161398 -0.308715,-2.213071 -0.925213,-3.156881 -0.690887,-1.126063 -1.579834,-1.68677 -2.665913,-1.68677 -0.509565,0 -1.270191,0.27152 -2.285601,0.816419 -1.016339,0.54304 -1.941552,0.816419 -2.773777,0.816419 -0.253852,0 -1.379916,-0.328242 -3.374469,-0.980075 3.517668,-0.581163 5.277896,-1.106535 5.277896,-1.579834 0,-1.232068 -2.412061,-2.067083 -7.237115,-2.499469 -0.472369,-0.03627 -1.34179,-0.108797 -2.611981,-0.218518 0.144128,-0.180392 1.179064,-0.378453 3.102018,-0.598831 1.631908,-0.178533 2.773778,-0.272449 3.426541,-0.272449 8.633767,0 14.110653,4.189957 16.433448,12.572661 0.40077,-0.332891 0.60069,-0.883369 0.60069,-1.655154 0,-0.993093 -0.291047,-2.242826 -0.87221,-3.750132 a 121.58872,121.58872 0 0 0 -1.034936,-2.649177 c 2.973697,3.789187 4.463336,7.381243 4.463336,10.770589 0,1.787194 -0.419367,3.409803 -1.253454,4.865037 -0.542109,0.984724 -1.560308,2.240967 -3.046226,3.774309 -1.48778,1.529622 -2.502259,2.714267 -3.047158,3.553002 1.995484,-0.544899 3.30194,-0.962407 3.918438,-1.252524 1.377125,-0.617428 2.629649,-1.54357 3.753852,-2.775637 0,0.474229 -0.19992,1.182783 -0.597901,2.121015 z M 61.971731,51.1477 c 0,0.651834 -0.363576,1.071201 -1.087939,1.253455 l -1.41432,0.215727 c -0.508634,0.252922 -1.252523,1.253454 -2.229808,2.993225 -0.11065,-0.543039 -0.27245,-1.304596 -0.490967,-2.28467 -0.326382,0.0344 -0.869422,0.327311 -1.631908,0.870351 -0.326381,0.253852 -0.852683,0.636025 -1.579835,1.1428 0.218517,-1.304596 0.945669,-2.62779 2.177736,-3.971439 1.305526,-1.48592 2.575717,-2.227949 3.808715,-2.227949 1.631907,-0.0019 2.448326,0.66857 2.448326,2.0085 z m 9.467851,5.007307 c 0,0.615568 -0.335679,1.134431 -1.00704,1.551009 -0.671359,0.415648 -1.333421,0.625797 -1.985254,0.625797 -0.872211,0 -1.652364,-0.487248 -2.340462,-1.470112 -0.835017,-1.194872 -1.68677,-1.975955 -2.557121,-2.339532 a 0.89080758,0.89080758 0 0 1 0.654623,-0.27245 c 0.324522,0 0.87779,0.251993 1.657944,0.760628 0.778294,0.510494 1.27856,0.762486 1.497077,0.762486 0.181324,0 0.479809,-0.251992 0.896387,-0.762486 0.416578,-0.508635 0.879649,-0.760628 1.388283,-0.760628 1.197663,0 1.795563,0.636027 1.795563,1.905288 z M 53.111077,29.452165 c 0,2.511557 -0.913124,4.224363 -2.741232,5.137487 -0.53374,0.266871 -2.206562,0.630447 -5.024044,1.084219 -1.826248,0.305924 -2.739372,1.01169 -2.739372,2.111716 v 4.624203 c 0,0.194341 0.05858,0.782943 0.171094,1.772316 l 0.172025,1.827179 c 0,0.570005 -0.1339,1.503586 -0.400771,2.797024 -0.722502,0.151567 -1.560307,0.323592 -2.510626,0.516073 -0.305925,-1.1428 -0.456562,-1.923884 -0.456562,-2.343252 0,-0.188761 0.04649,-0.476088 0.141339,-0.856403 0.09484,-0.379383 0.143198,-0.66578 0.143198,-0.856401 0,-0.264081 -0.235255,-1.007972 -0.708554,-2.22516 h -0.886159 c -0.117162,0.188762 -0.155287,0.436105 -0.118092,0.73924 0.153427,0.647183 0.209218,1.198591 0.172025,1.656083 -0.648115,0.456562 -1.540781,1.065623 -2.682652,1.827179 -0.26873,-0.07625 -0.361716,-0.114373 -0.286397,-0.114373 v -4.053267 c -0.07624,-0.187832 -0.265941,-0.265011 -0.570936,-0.227817 h -0.685308 l -0.685308,5.366233 c -0.532811,0.03812 -1.179065,0.03812 -1.939691,0 -0.26687,-1.255314 -0.74296,-3.118757 -1.426409,-5.593119 h -0.458422 c -0.418437,1.332492 -0.647183,2.054995 -0.685308,2.169368 0,0.151567 0.04835,0.446334 0.144129,0.884298 0.09392,0.437965 0.14134,0.731802 0.14134,0.884299 0,0.112513 -0.03905,0.39984 -0.116234,0.856403 l -0.170165,1.370616 a 0.39426139,0.39426139 0 0 1 -0.285467,0.112514 c -1.14187,0 -1.904356,-0.284539 -2.282811,-0.854544 -0.382172,-0.570935 -0.535599,-1.372476 -0.458422,-2.399044 l 0.458422,-6.849361 c 0,-0.112513 0.03627,-0.265011 0.112514,-0.457492 0.07625,-0.188762 0.114373,-0.323592 0.114373,-0.39798 0,-0.304995 -0.323592,-0.914984 -0.969846,-1.829039 -0.114373,-0.03627 -0.704835,-0.171094 -1.770457,-0.39984 -0.647184,-0.151568 -1.922024,-0.418438 -3.823592,-0.797822 -2.625929,-0.492827 -3.939824,-2.606403 -3.939824,-6.337008 0,-5.557784 2.283741,-10.180126 6.850292,-13.871678 0.189691,1.027497 0.514213,2.395325 0.970775,4.108129 l 2.22609,0.516074 c 0.229675,0.07532 1.390144,0.495616 3.482332,1.257173 -1.065622,-0.646255 -2.454835,-1.692348 -4.165781,-3.140143 -0.648113,-0.760628 -0.972635,-2.035468 -0.972635,-3.824522 0,-0.418438 0.723433,-0.912194 2.171227,-1.486849 1.293438,-0.530951 2.263284,-0.834086 2.911397,-0.910334 2.054065,-0.265941 3.6339,-0.401701 4.738576,-0.401701 4.756243,0 8.600291,1.219979 11.531215,3.656217 -0.950318,1.104675 -2.587804,2.280951 -4.908739,3.539983 0.913124,0.03812 2.245616,-0.323592 3.996545,-1.086078 1.750001,-0.758767 2.49203,-1.14094 2.226089,-1.14094 0.304066,0 0.913125,0.608129 1.827179,1.825319 0.683448,0.913124 1.235786,1.734192 1.655154,2.455764 a 21.446331,21.446331 0 0 1 2.455765,7.023246 c 0,0.875 0.0186,1.502657 0.05672,1.88204 z m -21.866629,1.030288 c 0,-1.637487 -0.713205,-3.188496 -2.139612,-4.654888 -1.428268,-1.465462 -2.96068,-2.197264 -4.596307,-2.197264 -1.445935,0 -2.719845,0.613709 -3.825452,1.839267 -1.103745,1.226488 -1.655153,2.586875 -1.655153,4.081163 0,1.302736 0.627657,2.147981 1.884829,2.529224 0.798752,0.230606 1.920166,0.364506 3.36703,0.403561 h 3.139214 c 2.549681,0.03348 3.825451,-0.634166 3.825451,-2.001063 z m 6.222635,7.078108 v -1.767668 a 56.200846,56.200846 0 0 1 -0.797822,-1.543571 c -0.228746,-0.759696 -0.648113,-1.825318 -1.256243,-3.197794 l -0.628586,6.681987 c 0,0.53374 -0.112513,0.798751 -0.342189,0.798751 -0.151568,0 -0.266871,-0.0372 -0.34312,-0.113442 -0.26687,-4.034672 -0.398911,-5.787461 -0.398911,-5.25093 v -1.997343 c -0.07718,-0.117164 -0.172023,-0.174815 -0.286397,-0.174815 -1.293437,1.336212 -1.939691,3.485122 -1.939691,6.451381 0,1.637487 0.151567,2.645457 0.455632,3.02856 a 5.2174544,5.2174544 0 0 0 1.029357,-0.40077 c 0.151567,-0.07718 0.588602,-0.114373 1.312965,-0.114373 0.720643,0 1.598432,0.228746 2.624999,0.683448 0.380314,-9.3e-4 0.570006,-1.027497 0.570006,-3.083421 z m 12.902762,-7.955898 c 0,-1.530552 -0.570935,-2.899308 -1.712805,-4.108129 -1.1428,-1.20603 -2.454836,-1.808581 -3.937966,-1.808581 -1.598432,0 -3.09458,0.731801 -4.482863,2.197263 -1.389213,1.463603 -2.08475,2.996945 -2.08475,4.595377 0,1.332492 0.648114,1.997343 1.941551,1.997343 h 6.564825 c 2.475291,-0.03719 3.712008,-0.993092 3.712008,-2.873273 z"
       fill="#0d0f0f"
       id="path2"
       style="stroke-width:0.929862" />
    <g
       id="g3"
       inkscape:label="dual mana dividers">
      <circle
         fill="#CAC5C0"
         cx="50"
         cy="50"
         id="circle1-1"
         style="fill:#cac5c0;fill-opacity:0;stroke:#000000;stroke-width:4;stroke-dasharray:none;stroke-opacity:1"
         inkscape:label="circle1"
         r="48" />
      <path
         style="fill:#cac5c0;fill-opacity:0;stroke:#000000;stroke-width:4;stroke-linecap:butt;stroke-dasharray:none"
         d="m 16.058875,83.941125 67.88225,-67.88225"
         id="path3"
         inkscape:label="path3" />
    </g>
  </g>
</svg>
