<?xml version="1.0" encoding="UTF-8" standalone="no"?>
<svg
   viewBox="0 0 100 100"
   version="1.1"
   id="svg1"
   sodipodi:docname="cp.svg"
   inkscape:version="1.4.2 (ebf0e940d0, 2025-05-08)"
   xmlns:inkscape="http://www.inkscape.org/namespaces/inkscape"
   xmlns:sodipodi="http://sodipodi.sourceforge.net/DTD/sodipodi-0.dtd"
   xmlns="http://www.w3.org/2000/svg"
   xmlns:svg="http://www.w3.org/2000/svg">
  <defs
     id="defs1" />
  <sodipodi:namedview
     id="namedview1"
     pagecolor="#505050"
     bordercolor="#eeeeee"
     borderopacity="1"
     inkscape:showpageshadow="0"
     inkscape:pageopacity="0"
     inkscape:pagecheckerboard="0"
     inkscape:deskcolor="#505050"
     inkscape:zoom="5.94"
     inkscape:cx="62.037037"
     inkscape:cy="34.93266"
     inkscape:window-width="1906"
     inkscape:window-height="1028"
     inkscape:window-x="0"
     inkscape:window-y="0"
     inkscape:window-maximized="1"
     inkscape:current-layer="g1" />
  <g
     fill="none"
     fill-rule="evenodd"
     id="g1">
    <path
       d="M 77.307,49.928 C 77.366,44.584 75.668,39.19 72.34,35 70.733,33.23 69.409,31.213 67.707,29.539 63.952,25.814 58.332,25.566 53.811,23.219 53.547,20.862 52.686,18.504 53.207,16.125 53.366,15.334 53.6,14.533 53.178,13.777 51.991,11.045 53.012,8.078 52.801,5.23 52.643,3.742 52.743,1.921 51.325,1.001 c -0.33,3.098 -1.469,5.98 -2.392,8.918 -0.426,2.291 -0.426,4.676 -1.413,6.836 0.627,2.189 -0.613,4.031 -1.955,5.646 -2.968,1.52 -6.496,1.881 -9.078,4.109 -1.84,1.563 -3.828,2.932 -5.887,4.203 -1.545,1.934 -3.256,3.797 -3.945,6.24 -2.762,3.334 -3.088,7.811 -4.654,11.717 -0.029,5.799 1.146,12.043 4.85,16.691 2.65,2.188 4.502,5.131 7.149,7.318 2.541,1.518 5.252,2.764 7.875,4.127 1.709,0.4 3.475,0.596 5.176,1.061 1.379,7.109 2.322,14.389 5.092,21.133 0.918,-2.768 0.807,-5.736 1.6,-8.533 1.119,-4.135 -1.176,-8.439 0.117,-12.5 1.938,-1.732 5.17,-0.607 7.32,-2.094 4.092,-2.523 8.422,-4.98 11.391,-8.84 1.105,-2.219 3.426,-3.877 3.426,-6.539 0.019,-3.583 2.109,-6.941 1.31,-10.566 z M 46.934,71.86 c -2.965,-0.721 -5.727,-2.139 -8.213,-3.871 -2.676,-1.783 -3.674,-5.109 -6.314,-6.934 -2.473,-2.949 -1.938,-6.98 -2.951,-10.475 0.406,-2.439 0.885,-4.857 1.139,-7.326 1.205,-1.955 3.066,-3.514 3.582,-5.869 1.769,-2.533 4.459,-4.285 6.619,-6.48 1.572,-1.813 4.074,-1.047 6.139,-1.119 l 8.263,0.037 c 2.342,0.936 4.547,2.197 6.496,3.82 2.354,1.766 5.961,2.908 6.488,6.199 0.268,2.16 2.633,3.467 2.564,5.678 -0.146,5.256 0.579,10.752 -1.335,15.77 -1.963,1.398 -3.637,3.111 -5.35,4.785 -2.979,2.061 -5.924,4.24 -9.469,5.27 z"
       fill="#111212"
       id="path1-0"
       sodipodi:nodetypes="cccccccccccccccccccccccccccccccccccccccccc" />
    <path
       d="m 49.687559,33.284669 c 1.091718,2.191376 2.427804,4.319674 4.012229,6.384896 0.673998,0.867199 1.446361,1.773656 2.31753,2.711431 0.859259,0.937774 1.812913,1.87599 2.845524,2.798327 1.040551,0.922336 2.179466,1.797034 3.421158,2.624975 1.241691,0.8275 2.577337,1.584425 4.012229,2.262392 -2.108449,1.127447 -4.19749,2.498822 -6.274622,4.122504 -0.862788,0.677968 -1.765716,1.458271 -2.71143,2.348848 -0.937775,0.883079 -1.860111,1.852612 -2.762598,2.900662 -0.902487,1.063928 -1.769686,2.207255 -2.601156,3.452475 -0.827942,1.237722 -1.580455,2.553959 -2.258423,3.949152 -1.05643,-2.073161 -2.372667,-4.122503 -3.953122,-6.155966 -1.355936,-1.733957 -3.070043,-3.55481 -5.143205,-5.47844 -2.069191,-1.923188 -4.575511,-3.633766 -7.511902,-5.139235 2.112419,-1.095687 4.20146,-2.451182 6.274181,-4.067366 1.769686,-1.395194 3.594509,-3.13709 5.474469,-5.226131 1.88349,-2.089041 3.499232,-4.579923 4.859138,-7.488524 z m -2.427805,23.331888 c 0.981444,1.245662 1.789095,2.506761 2.427805,3.783741 0.83147,-1.773656 1.828793,-3.295004 2.991087,-4.571983 1.166704,-1.284919 2.30165,-2.356788 3.393368,-3.223987 1.24125,-0.969534 2.538079,-1.820853 3.897985,-2.546018 -1.808944,-0.820002 -3.346171,-1.820854 -4.603301,-2.987558 -1.26507,-1.166705 -2.329439,-2.293711 -3.192228,-3.389399 -0.981443,-1.23728 -1.812913,-2.553958 -2.486911,-3.949152 -0.8275,1.804974 -1.820853,3.350141 -2.963739,4.62712 -1.150825,1.284919 -2.269891,2.348848 -3.36205,3.223987 -1.24522,0.977473 -2.542049,1.797034 -3.897985,2.482941 1.808944,0.938216 3.350141,1.994205 4.63109,3.16091 1.280949,1.166705 2.337379,2.30165 3.164879,3.389398 z"
       fill="#000000"
       id="path1"
       style="stroke-width:0.441098" />
    <circle
       fill="#CAC5C0"
       cx="50"
       cy="50"
       id="circle1-1"
       style="fill:#cac5c0;fill-opacity:0;stroke:#000000;stroke-width:4;stroke-dasharray:none;stroke-opacity:1"
       inkscape:label="circle1"
       r="48" />
  </g>
</svg>
