<?xml version="1.0" encoding="UTF-8" standalone="no"?>
<svg
   viewBox="0 0 100 100"
   version="1.1"
   id="svg1"
   sodipodi:docname="gp.svg"
   inkscape:version="1.4.2 (ebf0e940d0, 2025-05-08)"
   xmlns:inkscape="http://www.inkscape.org/namespaces/inkscape"
   xmlns:sodipodi="http://sodipodi.sourceforge.net/DTD/sodipodi-0.dtd"
   xmlns="http://www.w3.org/2000/svg"
   xmlns:svg="http://www.w3.org/2000/svg">
  <defs
     id="defs1" />
  <sodipodi:namedview
     id="namedview1"
     pagecolor="#505050"
     bordercolor="#eeeeee"
     borderopacity="1"
     inkscape:showpageshadow="0"
     inkscape:pageopacity="0"
     inkscape:pagecheckerboard="0"
     inkscape:deskcolor="#505050"
     inkscape:zoom="4.2002143"
     inkscape:cx="7.9757836"
     inkscape:cy="52.021155"
     inkscape:window-width="1906"
     inkscape:window-height="1028"
     inkscape:window-x="0"
     inkscape:window-y="0"
     inkscape:window-maximized="1"
     inkscape:current-layer="g1" />
  <g
     fill="none"
     id="g1">
    <path
       d="M 77.307,49.928 C 77.366,44.584 75.668,39.19 72.34,35 70.733,33.23 69.409,31.213 67.707,29.539 63.952,25.814 58.332,25.566 53.811,23.219 53.547,20.862 52.686,18.504 53.207,16.125 53.366,15.334 53.6,14.533 53.178,13.777 51.991,11.045 53.012,8.078 52.801,5.23 52.643,3.742 52.743,1.921 51.325,1.001 c -0.33,3.098 -1.469,5.98 -2.392,8.918 -0.426,2.291 -0.426,4.676 -1.413,6.836 0.627,2.189 -0.613,4.031 -1.955,5.646 -2.968,1.52 -6.496,1.881 -9.078,4.109 -1.84,1.563 -3.828,2.932 -5.887,4.203 -1.545,1.934 -3.256,3.797 -3.945,6.24 -2.762,3.334 -3.088,7.811 -4.654,11.717 -0.029,5.799 1.146,12.043 4.85,16.691 2.65,2.188 4.502,5.131 7.149,7.318 2.541,1.518 5.252,2.764 7.875,4.127 1.709,0.4 3.475,0.596 5.176,1.061 1.379,7.109 2.322,14.389 5.092,21.133 0.918,-2.768 0.807,-5.736 1.6,-8.533 1.119,-4.135 -1.176,-8.439 0.117,-12.5 1.938,-1.732 5.17,-0.607 7.32,-2.094 4.092,-2.523 8.422,-4.98 11.391,-8.84 1.105,-2.219 3.426,-3.877 3.426,-6.539 0.019,-3.583 2.109,-6.941 1.31,-10.566 z M 46.934,71.86 c -2.965,-0.721 -5.727,-2.139 -8.213,-3.871 -2.676,-1.783 -3.674,-5.109 -6.314,-6.934 -2.473,-2.949 -1.938,-6.98 -2.951,-10.475 0.406,-2.439 0.885,-4.857 1.139,-7.326 1.205,-1.955 3.066,-3.514 3.582,-5.869 1.769,-2.533 4.459,-4.285 6.619,-6.48 1.572,-1.813 4.074,-1.047 6.139,-1.119 l 8.263,0.037 c 2.342,0.936 4.547,2.197 6.496,3.82 2.354,1.766 5.961,2.908 6.488,6.199 0.268,2.16 2.633,3.467 2.564,5.678 -0.146,5.256 0.579,10.752 -1.335,15.77 -1.963,1.398 -3.637,3.111 -5.35,4.785 -2.979,2.061 -5.924,4.24 -9.469,5.27 z"
       fill="#111212"
       id="path1-0"
       sodipodi:nodetypes="cccccccccccccccccccccccccccccccccccccccccc" />
    <path
       d="m 66.927922,52.886183 c 0,0.642753 -0.248547,1.219226 -0.746025,1.733273 -0.496707,0.513277 -1.0674,0.769916 -1.709381,0.769916 -1.025783,0 -1.781441,-0.481679 -2.261579,-1.444266 l -2.262348,-0.09634 c -0.48245,0 -1.429238,0.209241 -2.840365,0.626182 -1.508232,0.416941 -2.375254,0.754116 -2.599524,1.010755 -0.352974,0.384572 -0.64121,1.283963 -0.866251,2.69586 -0.193442,1.155258 -0.288236,2.00571 -0.288236,2.551356 0,0.86548 0.13564,1.500141 0.408849,1.901283 0.273208,0.401142 0.834652,0.738317 1.684334,1.010754 0.849681,0.272438 1.372207,0.425419 1.564878,0.457402 0.127934,0 0.336405,-0.0158 0.626182,-0.04817 h 0.577245 c 0.41617,0 0.849681,0.06551 1.299762,0.192671 0.641981,0.192672 0.915189,0.449311 0.818853,0.770687 -0.45008,-0.06397 -1.235794,0.03237 -2.358684,0.289007 l 1.347159,0.67358 c 0,0.385343 -0.545646,0.577244 -1.636166,0.577244 -0.289778,0 -0.682443,-0.06397 -1.180307,-0.191901 -0.497477,-0.129476 -0.82656,-0.192671 -0.986092,-0.192671 h -0.626183 c -0.0316,0.320605 -0.128704,0.801513 -0.289007,1.443494 -0.546416,-0.03237 -1.186857,-0.353745 -1.925174,-0.962587 -0.739088,-0.608842 -1.203426,-0.914419 -1.395327,-0.914419 -0.193442,0 -0.466651,0.305577 -0.818854,0.914419 -0.353745,0.608842 -0.529847,1.026555 -0.529847,1.251595 -0.416941,-0.22504 -0.769144,-0.642753 -1.059693,-1.251595 -0.127934,-0.417712 -0.272438,-0.834653 -0.431969,-1.251594 -0.320606,0.03237 -0.915191,0.706719 -1.780671,2.02228 h -0.24161 c -0.06397,-0.09711 -0.306348,-0.770686 -0.721748,-2.02228 -0.994955,-0.320605 -1.925173,-0.480908 -2.792195,-0.480908 -0.416941,0 -1.058923,0.09634 -1.925174,0.288237 l -1.347159,-0.09556 c 0.1919,-0.192672 0.753345,-0.561445 1.684334,-1.107091 1.090521,-0.641981 1.925174,-0.963358 2.503188,-0.963358 0.09479,0 0.222729,0.01657 0.385343,0.04817 0.159533,0.03314 0.289008,0.04817 0.385344,0.04817 0.222728,0 0.58495,-0.120227 1.082428,-0.361452 0.497478,-0.240068 0.785715,-0.457016 0.865481,-0.648917 0.08131,-0.194213 0.121768,-0.69092 0.121768,-1.493204 0,-1.828839 -0.481679,-3.192568 -1.445036,-4.091188 -0.835424,-0.802284 -2.214182,-1.379528 -4.140126,-1.733273 -0.513277,1.828839 -1.957543,2.744799 -4.331256,2.744799 -0.770686,0 -1.540602,-0.46511 -2.310517,-1.396098 -0.769144,-0.930989 -1.154488,-1.781441 -1.154488,-2.551357 0,-1.187627 0.495937,-2.166013 1.490893,-2.937469 -0.801514,-0.833112 -1.202656,-1.683565 -1.202656,-2.549815 0,-0.803056 0.247775,-1.508233 0.746024,-2.119387 0.497478,-0.608072 1.147166,-0.961816 1.94945,-1.058923 -0.06397,-1.025783 0.272438,-1.732503 1.010755,-2.117846 -0.352974,-0.352203 -0.529076,-0.977615 -0.529076,-1.876235 0,-1.058923 0.352975,-1.941744 1.058923,-2.647692 0.705178,-0.705949 1.587999,-1.059693 2.646921,-1.059693 1.15603,0 2.102817,0.402683 2.840365,1.204197 0.930988,-3.176768 2.936699,-4.765538 6.016361,-4.765538 1.604568,0 3.016465,0.641982 4.236461,1.925944 0.44931,0.480909 0.67358,0.738318 0.67358,0.769146 -0.385344,0 -0.191901,-0.07245 0.578014,-0.216178 0.769145,-0.144504 1.33059,-0.216948 1.685106,-0.216948 1.250823,0 2.357913,0.465109 3.321271,1.396098 0.833882,0.834653 1.411897,1.892805 1.733273,3.176768 0.223499,0.03237 0.577244,0.127934 1.058923,0.288237 0.705178,0.354515 1.058922,0.962586 1.058922,1.829608 0,0.161074 -0.129475,0.46588 -0.385343,0.914419 2.053108,1.155259 3.080432,2.759828 3.080432,4.813706 0,0.577244 -0.224269,1.381069 -0.673579,2.407238 0.834653,0.480523 1.250824,1.187241 1.250824,2.11746 z m -19.832451,2.117846 v -0.625412 c 0,-0.737546 -0.360681,-1.411897 -1.082429,-2.021509 -0.722518,-0.609613 -1.452743,-0.914419 -2.19029,-0.914419 -0.89939,0 -1.732502,0.20847 -2.503188,0.624641 1.700518,-0.09557 3.626464,0.883591 5.775907,2.936699 z M 46.22999,49.03545 c -0.481678,-0.546417 -0.89862,-1.107861 -1.252364,-1.685105 -1.347931,0.352975 -2.02151,0.754117 -2.02151,1.202656 0.385343,-0.03083 0.946787,0.04046 1.684334,0.217333 0.737547,0.176873 1.268164,0.265116 1.58954,0.265116 z m 2.9367,-1.492433 V 45.425171 C 48.396003,45.297238 47.929353,45.2325 47.770592,45.2325 v 0.721747 z m 6.2572,-1.34793 C 55.038547,46.034784 54.316029,45.713408 53.257877,45.2325 v 4.139354 c 1.507462,-0.867021 2.229209,-1.925944 2.166013,-3.176767 z m 2.646151,5.680342 -1.058152,-1.299762 c -0.641211,0.449695 -1.29167,0.907097 -1.950222,1.372206 -0.65855,0.465109 -1.227702,0.987634 -1.70784,1.564493 1.443881,-0.771457 3.016851,-1.315562 4.716214,-1.636937 z"
       fill="#0d0f0f"
       id="path1"
       style="stroke-width:0.385343" />
    <circle
       fill="#CAC5C0"
       cx="50"
       cy="50"
       id="circle1-1"
       style="fill:#cac5c0;fill-opacity:0;stroke:#000000;stroke-width:4;stroke-dasharray:none;stroke-opacity:1"
       inkscape:label="circle1"
       r="48" />
  </g>
</svg>
