<?xml version="1.0" encoding="UTF-8" standalone="no"?>
<svg
   viewBox="0 0 100 100"
   version="1.1"
   id="svg2"
   sodipodi:docname="gu.svg"
   inkscape:version="1.4.2 (ebf0e940d0, 2025-05-08)"
   xmlns:inkscape="http://www.inkscape.org/namespaces/inkscape"
   xmlns:sodipodi="http://sodipodi.sourceforge.net/DTD/sodipodi-0.dtd"
   xmlns="http://www.w3.org/2000/svg"
   xmlns:svg="http://www.w3.org/2000/svg">
  <defs
     id="defs2" />
  <sodipodi:namedview
     id="namedview2"
     pagecolor="#505050"
     bordercolor="#eeeeee"
     borderopacity="1"
     inkscape:showpageshadow="0"
     inkscape:pageopacity="0"
     inkscape:pagecheckerboard="0"
     inkscape:deskcolor="#505050"
     inkscape:zoom="8.4004286"
     inkscape:cx="34.819652"
     inkscape:cy="47.795181"
     inkscape:window-width="1906"
     inkscape:window-height="1028"
     inkscape:window-x="0"
     inkscape:window-y="0"
     inkscape:window-maximized="1"
     inkscape:current-layer="g2" />
  <g
     fill="none"
     id="g2">
    <path
       d="M 74.34418,81.013109 C 71.862288,83.537396 68.807154,84.8 65.17878,84.8 c -4.077197,0 -7.308357,-1.396237 -9.699011,-4.185026 -2.259784,-2.657919 -3.389677,-6.04391 -3.389677,-10.163501 0,-4.427409 1.927084,-9.475061 5.780331,-15.14572 3.142686,-4.651359 6.842023,-8.72487 11.092483,-12.224219 -0.622086,2.834869 -0.929903,4.849506 -0.929903,6.046676 0,2.746394 0.862626,5.424589 2.590642,8.03735 2.126152,3.101214 3.743575,5.404314 4.849506,6.90838 1.726173,2.612761 2.592485,5.161009 2.592485,7.639215 -0.0018,3.677219 -1.24325,6.777511 -3.721456,9.299954 z M 74.27506,66.831393 c -0.662636,-1.482868 -1.438631,-2.469911 -2.323375,-2.956521 0.134554,0.265423 0.199989,0.643283 0.199989,1.129892 0,0.930825 -0.264502,2.260707 -0.797192,3.985037 l -0.864469,2.658841 c 0,1.548303 0.774151,2.324298 2.323376,2.324298 1.637699,0 2.458852,-1.084734 2.458852,-3.255123 0,-1.106852 -0.331779,-2.403555 -0.997181,-3.886424 z M 51.228388,35.49485 c 0,0.697658 -0.270031,1.325274 -0.810094,1.882847 -0.540985,0.556652 -1.160306,0.833135 -1.858885,0.833135 -1.112382,0 -1.933535,-0.520709 -2.454244,-1.566735 l -2.457009,-0.103221 c -0.523474,0 -1.552911,0.225795 -3.083704,0.678305 -1.637698,0.451588 -2.578661,0.818388 -2.823809,1.097636 -0.381546,0.417488 -0.695815,1.395315 -0.940041,2.927029 -0.210127,1.25431 -0.312425,2.177762 -0.312425,2.7722 0,0.938197 0.147457,1.628482 0.442372,2.064403 0.295836,0.435 0.906863,0.799035 1.828472,1.094872 0.92253,0.293993 1.48932,0.462647 1.699446,0.495825 0.139163,0 0.364958,-0.01659 0.679226,-0.05253 h 0.627616 c 0.45251,0 0.92253,0.07189 1.411904,0.210127 0.695815,0.208284 0.992573,0.48661 0.889353,0.834978 -0.489374,-0.06728 -1.341863,0.03502 -2.560229,0.314268 l 1.461671,0.732679 c 0,0.418411 -0.592594,0.626694 -1.776862,0.626694 -0.31519,0 -0.741895,-0.0682 -1.281036,-0.208283 -0.540984,-0.141006 -0.898568,-0.211049 -1.071831,-0.211049 h -0.678304 c -0.03594,0.34929 -0.139163,0.869999 -0.314269,1.5695 -0.594437,-0.03594 -1.28933,-0.385232 -2.092052,-1.046026 -0.801799,-0.662637 -1.306841,-0.993494 -1.514203,-0.993494 -0.210127,0 -0.507806,0.330857 -0.889352,0.993494 -0.384311,0.660794 -0.575084,1.113304 -0.575084,1.359373 -0.45251,-0.246069 -0.834056,-0.698579 -1.15109,-1.359373 -0.139162,-0.455275 -0.295836,-0.906863 -0.469098,-1.361216 -0.34929,0.0341 -0.992573,0.768622 -1.934457,2.197115 h -0.261737 c -0.07004,-0.105063 -0.331779,-0.835899 -0.785211,-2.197115 -1.080125,-0.347447 -2.090209,-0.520709 -3.03025,-0.520709 -0.45251,0 -1.151089,0.10322 -2.092052,0.314269 l -1.461671,-0.102299 c 0.207362,-0.211048 0.818388,-0.611948 1.82755,-1.204543 1.183346,-0.698579 2.09113,-1.046947 2.717824,-1.046947 0.103221,0 0.243305,0.01935 0.418411,0.05345 0.173262,0.03779 0.314268,0.05438 0.41841,0.05438 0.242383,0 0.634989,-0.13179 1.175051,-0.394449 0.540063,-0.260815 0.854332,-0.494904 0.93912,-0.70503 0.09032,-0.211049 0.134555,-0.749268 0.134555,-1.62111 0,-1.985146 -0.523474,-3.467093 -1.5695,-4.443076 -0.905942,-0.868156 -2.403556,-1.496693 -4.494686,-1.881926 -0.556652,1.985146 -2.126152,2.980483 -4.70297,2.980483 -0.837742,0 -1.67272,-0.50412 -2.509541,-1.516046 -0.834056,-1.01377 -1.254309,-1.935379 -1.254309,-2.772199 0,-1.290253 0.540062,-2.351025 1.620188,-3.188767 -0.869999,-0.904098 -1.306841,-1.82755 -1.306841,-2.769434 0,-0.870921 0.269109,-1.637699 0.810094,-2.300336 0.540063,-0.659872 1.246936,-1.045104 2.116935,-1.151089 -0.0682,-1.112382 0.295837,-1.881926 1.097636,-2.298493 -0.383389,-0.382467 -0.574162,-1.060771 -0.574162,-2.037677 0,-1.149246 0.381546,-2.106798 1.149246,-2.873576 0.764935,-0.766779 1.725252,-1.152011 2.872655,-1.152011 1.256153,0 2.284668,0.437764 3.085546,1.306841 1.011927,-3.44866 3.187845,-5.17299 6.533285,-5.17299 1.741841,0 3.275398,0.697658 4.598828,2.092974 0.488453,0.518865 0.730836,0.799956 0.730836,0.834056 -0.416568,0 -0.207362,-0.07926 0.627615,-0.235932 0.837743,-0.156674 1.445083,-0.235932 1.830315,-0.235932 1.358452,0 2.56023,0.506885 3.608099,1.516968 0.90502,0.906863 1.532635,2.054266 1.881925,3.44866 0.242383,0.03502 0.625772,0.138241 1.148325,0.313347 0.765856,0.385233 1.150167,1.046026 1.150167,1.986989 0,0.174184 -0.140084,0.505963 -0.41841,0.993494 2.229372,1.25431 3.34544,2.995229 3.34544,5.225522 0,0.627616 -0.245148,1.500379 -0.730836,2.614604 0.907785,0.524395 1.362138,1.292096 1.362138,2.3031 z M 29.692233,37.795186 V 37.11596 c 0,-0.801799 -0.391683,-1.533557 -1.175972,-2.195272 -0.78429,-0.66448 -1.575952,-0.992572 -2.377751,-0.992572 -0.976906,0 -1.881925,0.225794 -2.717825,0.677382 1.846904,-0.102299 3.937113,0.957552 6.271548,3.189688 z m -0.940962,-6.479831 c -0.521631,-0.59536 -0.975062,-1.204543 -1.358452,-1.830316 -1.464436,0.38339 -2.195272,0.819311 -2.195272,1.304999 0.416567,-0.0341 1.027594,0.04516 1.82755,0.235931 0.8018,0.193538 1.378727,0.289386 1.726174,0.289386 z m 3.191531,-1.622032 v -2.300336 c -0.838664,-0.138241 -1.344627,-0.209205 -1.516968,-0.209205 v 0.784289 z m 6.793179,-1.463515 c -0.418411,-0.174184 -1.2027,-0.522552 -2.353789,-1.046026 v 4.494686 c 1.639542,-0.941884 2.421988,-2.090208 2.353789,-3.44866 z m 2.871733,6.167406 -1.148325,-1.409139 c -0.695815,0.487531 -1.401767,0.983356 -2.117857,1.488398 -0.714247,0.50412 -1.331725,1.071831 -1.853355,1.699446 1.565813,-0.839585 3.275397,-1.429415 5.119537,-1.778705 z"
       fill="#0d0f0f"
       id="path2"
       style="stroke-width:0.921609" />
    <g
       id="g3"
       inkscape:label="dual mana dividers">
      <circle
         fill="#CAC5C0"
         cx="50"
         cy="50"
         id="circle1-1"
         style="fill:#cac5c0;fill-opacity:0;stroke:#000000;stroke-width:4;stroke-dasharray:none;stroke-opacity:1"
         inkscape:label="circle1"
         r="48" />
      <path
         style="fill:#cac5c0;fill-opacity:0;stroke:#000000;stroke-width:4;stroke-linecap:butt;stroke-dasharray:none"
         d="m 16.058875,83.941125 67.88225,-67.88225"
         id="path3"
         inkscape:label="path3" />
    </g>
  </g>
</svg>
