<?xml version="1.0" encoding="UTF-8" standalone="no"?>
<svg
   viewBox="0 0 100 100"
   version="1.1"
   id="svg1"
   sodipodi:docname="q.svg"
   inkscape:version="1.4.2 (ebf0e940d0, 2025-05-08)"
   xmlns:inkscape="http://www.inkscape.org/namespaces/inkscape"
   xmlns:sodipodi="http://sodipodi.sourceforge.net/DTD/sodipodi-0.dtd"
   xmlns="http://www.w3.org/2000/svg"
   xmlns:svg="http://www.w3.org/2000/svg">
  <defs
     id="defs1" />
  <sodipodi:namedview
     id="namedview1"
     pagecolor="#505050"
     bordercolor="#eeeeee"
     borderopacity="1"
     inkscape:showpageshadow="0"
     inkscape:pageopacity="0"
     inkscape:pagecheckerboard="0"
     inkscape:deskcolor="#505050"
     inkscape:zoom="4.2002143"
     inkscape:cx="27.260514"
     inkscape:cy="36.069588"
     inkscape:window-width="1906"
     inkscape:window-height="1028"
     inkscape:window-x="0"
     inkscape:window-y="0"
     inkscape:window-maximized="1"
     inkscape:current-layer="svg1" />
  <g
     fill="none"
     fill-rule="evenodd"
     id="g1">
    <circle
       fill="#0D0F0F"
       cx="50"
       cy="50"
       id="circle1"
       style="fill:#000000;fill-opacity:0;stroke:#000000;stroke-width:3.84;stroke-dasharray:none;stroke-opacity:1"
       r="48" />
    <path
       d="m78.945 24.039-12.648 7.344c6.16 9.471 9.238 18.224 9.238 26.25 0 6.582-1.969 11.858-5.895 15.83-3.938 3.978-9.219 5.963-15.871 5.963-11.113 0-23.719-5.74-37.824-17.22l10.094-9.877c9.656 8.673 18.73 13.005 27.246 13.005 3.078 0 5.207-.559 6.379-1.683 1.18-1.125 1.766-3.211 1.766-6.259 0-6.1-1.867-11.481-5.594-16.134L46.84 53.776V19.587l32.105 4.452Z"
       fill="#FFF"
       id="path1"
       style="fill:#000000;fill-opacity:1" />
  </g>
</svg>
