<?xml version="1.0" encoding="UTF-8" standalone="no"?>
<svg
   viewBox="0 0 100 100"
   version="1.1"
   id="svg1"
   sodipodi:docname="r.svg"
   inkscape:version="1.4.2 (ebf0e940d0, 2025-05-08)"
   xmlns:inkscape="http://www.inkscape.org/namespaces/inkscape"
   xmlns:sodipodi="http://sodipodi.sourceforge.net/DTD/sodipodi-0.dtd"
   xmlns="http://www.w3.org/2000/svg"
   xmlns:svg="http://www.w3.org/2000/svg">
  <defs
     id="defs1" />
  <sodipodi:namedview
     id="namedview1"
     pagecolor="#505050"
     bordercolor="#eeeeee"
     borderopacity="1"
     inkscape:showpageshadow="0"
     inkscape:pageopacity="0"
     inkscape:pagecheckerboard="0"
     inkscape:deskcolor="#505050"
     inkscape:zoom="5.94"
     inkscape:cx="75.673401"
     inkscape:cy="56.986532"
     inkscape:window-width="1906"
     inkscape:window-height="1028"
     inkscape:window-x="0"
     inkscape:window-y="0"
     inkscape:window-maximized="1"
     inkscape:current-layer="g1" />
  <g
     fill="none"
     id="g1">
    <path
       d="m 88.071249,64.845153 c -3.344645,7.978447 -9.990963,11.966775 -19.94164,11.966775 -1.82362,0 -3.801222,0.227393 -5.927435,0.682179 -3.190662,0.683969 -4.785994,1.636512 -4.785994,2.852259 0,0.379585 0.264098,0.814675 0.797666,1.309747 0.529987,0.495072 0.988353,0.739475 1.367043,0.739475 -1.900611,0 -0.608768,0.05729 3.872841,0.170992 4.4834,0.113696 7.294478,0.170992 8.435023,0.170992 -6.609613,3.872841 -17.665026,5.65707 -33.162657,5.354476 -5.092169,-0.0752 -9.459187,-2.316901 -13.10553,-6.72331 -3.573829,-4.179911 -5.357162,-8.852208 -5.357162,-14.017787 0,-5.468172 1.841524,-10.12346 5.529049,-13.961386 3.682154,-3.833451 8.262241,-5.753757 13.731308,-5.753757 1.214851,0 2.828983,0.265889 4.84329,0.797666 2.012517,0.531777 3.36255,0.797665 4.044729,0.797665 2.810182,0 6.307019,-1.157555 10.486035,-3.476246 4.177225,-2.316901 6.154827,-3.476247 5.927435,-3.476247 -0.760961,7.978447 -3.419846,13.335609 -7.980238,16.067905 -3.265863,1.90061 -4.89969,3.760935 -4.89969,5.582764 0,1.13965 0.683969,2.052803 2.051012,2.736772 1.063555,0.532672 2.23991,0.798561 3.531752,0.798561 1.975812,0 3.913128,-1.213956 5.813738,-3.644553 1.89703,-2.433283 2.734982,-4.634697 2.507589,-6.612299 -0.227393,-2.278405 -0.0752,-5.016073 0.456576,-8.204049 0.150402,-0.913153 0.700979,-2.032213 1.650837,-3.36076 0.949857,-1.330338 1.804819,-2.146804 2.564884,-2.451188 0,0.682179 -0.246193,1.823619 -0.741265,3.418055 -0.495072,1.594436 -0.739474,2.775268 -0.739474,3.533543 0,1.671427 0.454785,2.962374 1.367043,3.872841 1.365252,-0.529987 2.580999,-2.23991 3.647239,-5.128874 0.909571,-2.201414 1.440453,-4.329417 1.594436,-6.380429 -3.192453,-0.152193 -6.250619,-1.594436 -9.174498,-4.331208 -2.925669,-2.736772 -4.386713,-5.698252 -4.386713,-8.888019 0,-0.531777 0.07341,-1.063554 0.229183,-1.596226 0.454786,0.683969 1.13786,1.748418 2.049222,3.190662 1.291842,1.89882 2.280195,2.848678 2.965955,2.848678 0.909572,0 1.365253,-0.949858 1.365253,-2.848678 0,-2.430597 -0.647264,-4.633801 -1.937316,-6.609613 -1.444034,-2.355396 -3.30615,-3.533542 -5.584555,-3.533542 -1.064449,0 -2.65978,0.570272 -4.784203,1.709923 -2.129794,1.137859 -4.06711,1.709923 -5.811948,1.709923 -0.533567,0 -2.890754,-0.68576 -7.06798,-2.052803 7.367888,-1.213061 11.054518,-2.315111 11.054518,-3.304359 0,-2.58279 -5.053673,-4.331208 -15.156542,-5.241675 -0.989249,-0.0752 -2.811973,-0.227393 -5.470858,-0.456576 0.302593,-0.379585 2.469093,-0.797666 6.497707,-1.253347 3.418055,-0.377794 5.811947,-0.570273 7.178095,-0.570273 18.081317,0 29.553915,8.777903 34.416005,26.327442 0.836161,-0.692026 1.255137,-1.849581 1.255137,-3.465503 0,-2.080556 -0.608769,-4.70005 -1.82362,-7.857589 -0.458366,-1.230965 -1.179936,-3.080547 -2.166499,-5.544268 6.228238,7.938161 9.34549,15.460926 9.34549,22.559345 0,3.740344 -0.876447,7.137809 -2.623076,10.188813 -1.136964,2.061755 -3.267653,4.694678 -6.380429,7.901455 -3.115462,3.204987 -5.243466,5.686613 -6.384011,7.442194 4.179016,-1.13786 6.915788,-2.012517 8.20763,-2.621285 2.885383,-1.289157 5.505773,-3.228263 7.86296,-5.811948 0,0.990144 -0.418081,2.472674 -1.253347,4.446695 z M 38.383216,20.060391 c 0,1.365253 -0.760961,2.23991 -2.278405,2.619494 l -2.964165,0.456577 c -1.06445,0.531777 -2.621285,2.621285 -4.672298,6.266733 -0.229183,-1.13786 -0.570272,-2.733191 -1.025953,-4.785994 -0.683969,0.07699 -1.821829,0.68397 -3.418056,1.82362 -0.683969,0.531777 -1.786914,1.328547 -3.306149,2.392101 0.458367,-2.734981 1.975811,-5.503982 4.560391,-8.319536 2.734982,-3.112776 5.393867,-4.670507 7.976657,-4.670507 3.418055,0 5.127978,1.40733 5.127978,4.217512 z m 19.829735,10.482454 c 0,1.291843 -0.70277,2.375988 -2.108308,3.248854 -1.405539,0.874657 -2.792278,1.311538 -4.159321,1.311538 -1.823619,0 -3.458341,-1.025954 -4.89969,-3.077862 -1.750209,-2.507588 -3.533543,-4.14052 -5.357162,-4.903271 0.379585,-0.377794 0.836161,-0.568482 1.368834,-0.568482 0.683969,0 1.839734,0.531777 3.474456,1.594436 1.632931,1.064449 2.67679,1.596226 3.135157,1.596226 0.379585,0 1.005363,-0.531777 1.88002,-1.596226 0.872866,-1.063554 1.841524,-1.594436 2.905974,-1.594436 2.506693,8.95e-4 3.76004,1.331233 3.76004,3.989223 z"
       fill="#0d0f0f"
       id="path1"
       style="stroke-width:0.895248" />
    <circle
       fill="#CAC5C0"
       cx="50"
       cy="50"
       id="circle1-1"
       style="fill:#cac5c0;fill-opacity:0;stroke:#000000;stroke-width:4;stroke-dasharray:none;stroke-opacity:1"
       inkscape:label="circle1"
       r="48" />
  </g>
</svg>
