<?xml version="1.0" encoding="UTF-8" standalone="no"?>
<svg
   viewBox="0 0 100 100"
   version="1.1"
   id="svg2"
   sodipodi:docname="rg.svg"
   inkscape:version="1.4.2 (ebf0e940d0, 2025-05-08)"
   xmlns:inkscape="http://www.inkscape.org/namespaces/inkscape"
   xmlns:sodipodi="http://sodipodi.sourceforge.net/DTD/sodipodi-0.dtd"
   xmlns="http://www.w3.org/2000/svg"
   xmlns:svg="http://www.w3.org/2000/svg">
  <defs
     id="defs2" />
  <sodipodi:namedview
     id="namedview2"
     pagecolor="#505050"
     bordercolor="#eeeeee"
     borderopacity="1"
     inkscape:showpageshadow="0"
     inkscape:pageopacity="0"
     inkscape:pagecheckerboard="0"
     inkscape:deskcolor="#505050"
     inkscape:zoom="5.94"
     inkscape:cx="51.767677"
     inkscape:cy="35.10101"
     inkscape:window-width="1906"
     inkscape:window-height="1028"
     inkscape:window-x="0"
     inkscape:window-y="0"
     inkscape:window-maximized="1"
     inkscape:current-layer="g2" />
  <g
     fill="none"
     id="g2">
    <path
       d="m 51.987661,38.438609 c -1.655023,3.94874 -4.941947,5.920702 -9.864627,5.920702 -0.902652,0 -1.880444,0.110785 -2.932414,0.33717 -1.578918,0.34006 -2.366932,0.810171 -2.366932,1.411297 0,0.187851 0.131014,0.402677 0.394007,0.649292 0.262029,0.243726 0.489378,0.366071 0.677229,0.366071 -0.941185,0 -0.301526,0.0289 1.914162,0.08285 2.217614,0.0578 3.60868,0.08574 4.173199,0.08574 -3.270547,1.915124 -8.737516,2.799473 -16.404758,2.649191 -2.518177,-0.03564 -4.678954,-1.144451 -6.482331,-3.324495 -1.76677,-2.067332 -2.649192,-4.378391 -2.649192,-6.932212 0,-2.706992 0.910359,-5.008417 2.734929,-6.908128 1.820717,-1.894895 4.086499,-2.84475 6.792528,-2.84475 0.600162,0 1.399736,0.131977 2.394869,0.393043 0.996096,0.262993 1.663692,0.394971 2.000862,0.394971 1.391067,0 3.119303,-0.575116 5.186636,-1.719567 2.067333,-1.146377 3.045125,-1.719566 2.932414,-1.719566 -0.376667,3.945851 -1.691629,6.596969 -3.946814,7.948539 -1.617452,0.942148 -2.423769,1.862141 -2.423769,2.760939 0,0.564519 0.336206,1.016326 1.013436,1.354459 0.525985,0.261066 1.108807,0.393044 1.748466,0.393044 0.97683,0 1.934392,-0.600162 2.874614,-1.802414 0.938296,-1.202251 1.35157,-2.292754 1.238859,-3.27151 -0.110785,-1.128074 -0.03564,-2.481571 0.226385,-4.057599 0.07418,-0.453734 0.347767,-1.006693 0.816914,-1.663692 0.470112,-0.658926 0.893982,-1.06353 1.268722,-1.214775 0,0.34006 -0.123307,0.903615 -0.367033,1.690666 -0.244689,0.788978 -0.36607,1.375653 -0.36607,1.747503 0,0.827511 0.224459,1.466207 0.676266,1.917052 0.676267,-0.261066 1.276429,-1.107844 1.803377,-2.537444 0.450845,-1.089541 0.712874,-2.142474 0.789941,-3.15591 -1.579882,-0.07225 -3.093293,-0.788014 -4.539269,-2.143437 -1.446941,-1.352533 -2.169448,-2.81874 -2.169448,-4.395732 0,-0.262029 0.03564,-0.526948 0.112711,-0.788977 0.223496,0.34006 0.561629,0.866045 1.015363,1.579882 0.63677,0.937332 1.127111,1.407443 1.465244,1.407443 0.450844,0 0.675303,-0.470111 0.675303,-1.407443 0,-1.202252 -0.318866,-2.291792 -0.957562,-3.270548 -0.7148,-1.166608 -1.635756,-1.747503 -2.761903,-1.747503 -0.527912,0 -1.315926,0.282259 -2.367896,0.846778 -1.052933,0.562592 -2.011459,0.844851 -2.872687,0.844851 -0.263956,0 -1.4296,-0.341023 -3.496933,-1.016326 3.644325,-0.601126 5.467932,-1.145414 5.467932,-1.634792 0,-1.277392 -2.49891,-2.142474 -7.497694,-2.591391 -0.488415,-0.03661 -1.38914,-0.111748 -2.705066,-0.226386 0.149318,-0.185925 1.221518,-0.393044 3.213711,-0.620392 1.690666,-0.184962 2.87365,-0.283223 3.549916,-0.283223 8.944635,0 14.618722,4.342748 17.025151,13.025353 0.415201,-0.343913 0.622319,-0.914212 0.622319,-1.713786 0,-1.029813 -0.301526,-2.325509 -0.902651,-3.887087 -0.226386,-0.609796 -0.584749,-1.525934 -1.072201,-2.743599 3.079806,3.92562 4.624044,7.647012 4.624044,11.159359 0,1.849617 -0.434467,3.531613 -1.298586,5.038281 -0.561628,1.022106 -1.616488,2.323581 -3.155909,3.910206 -1.540385,1.585662 -2.592355,2.81296 -3.156873,3.681895 2.067332,-0.564518 3.421792,-0.998023 4.060488,-1.298585 1.425747,-0.638696 2.723369,-1.598185 3.88805,-2.874614 -9.63e-4,0.492268 -0.208082,1.223445 -0.619429,2.199311 z M 27.407979,16.284623 c 0,0.676266 -0.376667,1.107843 -1.127111,1.298585 l -1.465244,0.224459 c -0.527912,0.261066 -1.297622,1.296659 -2.310095,3.100036 -0.113674,-0.562592 -0.282259,-1.352533 -0.508645,-2.367896 -0.338133,0.03757 -0.901688,0.34006 -1.690666,0.902652 -0.338133,0.262029 -0.883385,0.658926 -1.635755,1.183948 0.226385,-1.352533 0.979719,-2.722406 2.256148,-4.114436 1.352533,-1.540384 2.669422,-2.308168 3.94585,-2.308168 1.690666,-0.0029 2.535518,0.692643 2.535518,2.08082 z m 9.808752,5.187599 c 0,0.636769 -0.346803,1.176241 -1.0433,1.606855 -0.695533,0.431577 -1.381433,0.649293 -2.056736,0.649293 -0.903615,0 -1.711859,-0.505755 -2.424733,-1.524008 -0.865081,-1.237895 -1.747503,-2.047103 -2.650155,-2.42377 0.185925,-0.187851 0.413274,-0.282259 0.678193,-0.282259 0.33717,0 0.909396,0.261066 1.71764,0.788014 0.806318,0.528875 1.323633,0.789941 1.550018,0.789941 0.187852,0 0.498048,-0.261066 0.929625,-0.789941 0.431578,-0.526948 0.910359,-0.788014 1.438271,-0.788014 1.241748,0 1.861177,0.658926 1.861177,1.973889 z m 50.975265,45.424485 c 0,0.730214 -0.282259,1.384323 -0.846778,1.968109 -0.564519,0.581859 -1.211885,0.871825 -1.942098,0.871825 -1.162755,0 -2.021093,-0.545252 -2.565381,-1.638646 l -2.569234,-0.107894 c -0.546216,0 -1.622269,0.236982 -3.222381,0.709983 -1.711859,0.472038 -2.695432,0.855448 -2.950718,1.145415 -0.398824,0.437357 -0.727323,1.4585 -0.983572,3.061502 -0.219642,1.310145 -0.326573,2.276378 -0.326573,2.895807 0,0.982609 0.154134,1.70319 0.462404,2.157887 0.309233,0.455661 0.947929,0.837145 1.911271,1.145414 0.963343,0.306343 1.556762,0.483598 1.776404,0.519242 0.145464,0 0.381483,-0.01734 0.709983,-0.05491 h 0.656036 c 0.473001,0 0.964306,0.07321 1.475841,0.218679 0.727323,0.218679 1.03752,0.507682 0.929625,0.873752 -0.511534,-0.07129 -1.402626,0.03661 -2.676165,0.327536 l 1.527861,0.765857 c 0,0.437358 -0.619429,0.65411 -1.857324,0.65411 -0.329463,0 -0.776454,-0.06936 -1.339046,-0.216752 -0.566445,-0.148355 -0.940222,-0.220606 -1.120367,-0.220606 H 74.5318 c -0.03661,0.365107 -0.144501,0.908432 -0.327536,1.638646 -0.622319,-0.03564 -1.347716,-0.400751 -2.186787,-1.091467 -0.838108,-0.693607 -1.36602,-1.039447 -1.582772,-1.039447 -0.219642,0 -0.530802,0.34584 -0.929625,1.039447 -0.401714,0.690716 -0.601126,1.162754 -0.601126,1.42093 -0.473001,-0.258176 -0.872788,-0.730214 -1.203215,-1.42093 -0.145465,-0.475891 -0.309233,-0.949856 -0.490341,-1.424784 -0.365107,0.03757 -1.03752,0.805355 -2.022056,2.297572 h -0.273589 c -0.07418,-0.108858 -0.346803,-0.872788 -0.820768,-2.297572 -1.129037,-0.361253 -2.184861,-0.542361 -3.16747,-0.542361 -0.473001,0 -1.203215,0.107894 -2.186787,0.328499 l -1.528825,-0.108857 c 0.217716,-0.219642 0.855449,-0.637733 1.911272,-1.257162 1.236931,-0.730214 2.185824,-1.09532 2.840897,-1.09532 0.107894,0 0.254322,0.02023 0.437357,0.05684 0.181108,0.03757 0.3285,0.05587 0.437358,0.05587 0.252395,0 0.663743,-0.136795 1.228261,-0.411348 0.564519,-0.272626 0.893019,-0.519241 0.981646,-0.73792 0.09441,-0.220605 0.139685,-0.783197 0.139685,-1.694519 0,-2.074077 -0.547179,-3.625058 -1.640572,-4.642347 -0.946966,-0.910359 -2.512397,-1.565432 -4.698221,-1.968109 -0.581859,2.07504 -2.222431,3.115449 -4.915937,3.115449 -0.875678,0 -1.74943,-0.528875 -2.623181,-1.585661 -0.873752,-1.056787 -1.311109,-2.022056 -1.311109,-2.896771 0,-1.347716 0.564518,-2.457486 1.693556,-3.332201 -0.909396,-0.945039 -1.36602,-1.910308 -1.36602,-2.895808 0,-0.909395 0.281296,-1.710896 0.846778,-2.404502 0.564519,-0.689754 1.303402,-1.091467 2.212798,-1.202252 -0.07129,-1.163717 0.309233,-1.967145 1.146377,-2.403539 -0.399787,-0.398824 -0.599199,-1.107844 -0.599199,-2.12995 0,-1.200325 0.398824,-2.203164 1.201288,-3.004665 0.799574,-0.799575 1.802414,-1.202252 3.002739,-1.202252 1.313035,0 2.388125,0.457588 3.22527,1.36602 1.05775,-3.604828 3.332201,-5.407241 6.829134,-5.407241 1.819754,0 3.423719,0.728287 4.807079,2.186787 0.510572,0.544289 0.763931,0.836181 0.763931,0.871825 -0.435431,0 -0.216752,-0.08285 0.656036,-0.244689 0.875678,-0.164732 1.510521,-0.247579 1.913198,-0.247579 1.419967,0 2.676165,0.529838 3.771486,1.585662 0.946002,0.947929 1.602038,2.14729 1.967145,3.604827 0.253359,0.03757 0.654109,0.145465 1.199361,0.3285 0.801501,0.401714 1.203215,1.093393 1.203215,2.076003 0,0.181108 -0.146428,0.528875 -0.437358,1.039446 2.330326,1.311109 3.496933,3.131826 3.496933,5.462152 0,0.656036 -0.256249,1.567358 -0.76393,2.732039 0.949856,0.548142 1.42382,1.349643 1.42382,2.406429 z m -22.511386,2.40354 v -0.70902 c 0,-0.837145 -0.408457,-1.603002 -1.228262,-2.294682 -0.819804,-0.693607 -1.647315,-1.03752 -2.485423,-1.03752 -1.021143,0 -1.967145,0.236982 -2.840897,0.707094 1.930538,-0.105968 4.114436,1.002839 6.554582,3.334128 z m -0.982609,-6.772298 c -0.545252,-0.622319 -1.019216,-1.258125 -1.419967,-1.912234 -1.530751,0.398823 -2.295645,0.856411 -2.295645,1.364093 0.436394,-0.03564 1.07509,0.04528 1.911271,0.246615 0.838108,0.201339 1.441161,0.301526 1.804341,0.301526 z m 3.335091,-1.696446 v -2.403539 c -0.875678,-0.143538 -1.405516,-0.217715 -1.585661,-0.217715 v 0.819804 z m 7.101761,-1.527861 c -0.437358,-0.182071 -1.257162,-0.547178 -2.460377,-1.093393 v 4.698221 c 1.712823,-0.984536 2.531664,-2.184861 2.460377,-3.604828 z m 3.001775,6.446688 -1.200325,-1.472951 c -0.727323,0.509608 -1.465244,1.026923 -2.213761,1.555798 -0.74659,0.526949 -1.39203,1.119404 -1.937281,1.776404 1.636718,-0.877605 3.423719,-1.494144 5.351367,-1.859251 z"
       fill="#0d0f0f"
       id="path2"
       style="stroke-width:0.963342" />
    <g
       id="g3"
       inkscape:label="dual mana dividers">
      <circle
         fill="#CAC5C0"
         cx="50"
         cy="50"
         id="circle1-1"
         style="fill:#cac5c0;fill-opacity:0;stroke:#000000;stroke-width:4;stroke-dasharray:none;stroke-opacity:1"
         inkscape:label="circle1"
         r="48" />
      <path
         style="fill:#cac5c0;fill-opacity:0;stroke:#000000;stroke-width:4;stroke-linecap:butt;stroke-dasharray:none"
         d="m 16.058875,83.941125 67.88225,-67.88225"
         id="path3"
         inkscape:label="path3" />
    </g>
  </g>
</svg>
