<?xml version="1.0" encoding="UTF-8" standalone="no"?>
<svg
   viewBox="0 0 100 100"
   version="1.1"
   id="svg1"
   sodipodi:docname="rp.svg"
   inkscape:version="1.4.2 (ebf0e940d0, 2025-05-08)"
   xmlns:inkscape="http://www.inkscape.org/namespaces/inkscape"
   xmlns:sodipodi="http://sodipodi.sourceforge.net/DTD/sodipodi-0.dtd"
   xmlns="http://www.w3.org/2000/svg"
   xmlns:svg="http://www.w3.org/2000/svg">
  <defs
     id="defs1" />
  <sodipodi:namedview
     id="namedview1"
     pagecolor="#505050"
     bordercolor="#eeeeee"
     borderopacity="1"
     inkscape:showpageshadow="0"
     inkscape:pageopacity="0"
     inkscape:pagecheckerboard="0"
     inkscape:deskcolor="#505050"
     inkscape:zoom="2.97"
     inkscape:cx="35.858586"
     inkscape:cy="64.478114"
     inkscape:window-width="1078"
     inkscape:window-height="1028"
     inkscape:window-x="0"
     inkscape:window-y="0"
     inkscape:window-maximized="1"
     inkscape:current-layer="g1" />
  <g
     fill="none"
     id="g1">
    <path
       d="M 77.307,49.928 C 77.366,44.584 75.668,39.19 72.34,35 70.733,33.23 69.409,31.213 67.707,29.539 63.952,25.814 58.332,25.566 53.811,23.219 53.547,20.862 52.686,18.504 53.207,16.125 53.366,15.334 53.6,14.533 53.178,13.777 51.991,11.045 53.012,8.078 52.801,5.23 52.643,3.742 52.743,1.921 51.325,1.001 c -0.33,3.098 -1.469,5.98 -2.392,8.918 -0.426,2.291 -0.426,4.676 -1.413,6.836 0.627,2.189 -0.613,4.031 -1.955,5.646 -2.968,1.52 -6.496,1.881 -9.078,4.109 -1.84,1.563 -3.828,2.932 -5.887,4.203 -1.545,1.934 -3.256,3.797 -3.945,6.24 -2.762,3.334 -3.088,7.811 -4.654,11.717 -0.029,5.799 1.146,12.043 4.85,16.691 2.65,2.188 4.502,5.131 7.149,7.318 2.541,1.518 5.252,2.764 7.875,4.127 1.709,0.4 3.475,0.596 5.176,1.061 1.379,7.109 2.322,14.389 5.092,21.133 0.918,-2.768 0.807,-5.736 1.6,-8.533 1.119,-4.135 -1.176,-8.439 0.117,-12.5 1.938,-1.732 5.17,-0.607 7.32,-2.094 4.092,-2.523 8.422,-4.98 11.391,-8.84 1.105,-2.219 3.426,-3.877 3.426,-6.539 0.019,-3.583 2.109,-6.941 1.31,-10.566 z M 46.934,71.86 c -2.965,-0.721 -5.727,-2.139 -8.213,-3.871 -2.676,-1.783 -3.674,-5.109 -6.314,-6.934 -2.473,-2.949 -1.938,-6.98 -2.951,-10.475 0.406,-2.439 0.885,-4.857 1.139,-7.326 1.205,-1.955 3.066,-3.514 3.582,-5.869 1.769,-2.533 4.459,-4.285 6.619,-6.48 1.572,-1.813 4.074,-1.047 6.139,-1.119 l 8.263,0.037 c 2.342,0.936 4.547,2.197 6.496,3.82 2.354,1.766 5.961,2.908 6.488,6.199 0.268,2.16 2.633,3.467 2.564,5.678 -0.146,5.256 0.579,10.752 -1.335,15.77 -1.963,1.398 -3.637,3.111 -5.35,4.785 -2.979,2.061 -5.924,4.24 -9.469,5.27 z"
       fill="#111212"
       id="path1-4"
       sodipodi:nodetypes="cccccccccccccccccccccccccccccccccccccccccc" />
    <path
       d="m 68.138157,57.141034 c -1.529665,3.648922 -4.569341,5.472974 -9.120258,5.472974 -0.834028,0 -1.738479,0.103998 -2.710897,0.311993 -1.459242,0.312811 -2.188863,0.748455 -2.188863,1.304473 0,0.173603 0.120785,0.37259 0.364811,0.59901 0.242388,0.22642 0.452021,0.338197 0.625214,0.338197 -0.86924,0 -0.278419,0.0262 1.771234,0.0782 2.050471,0.052 3.33611,0.0782 3.857736,0.0782 -3.02289,1.771235 -8.079055,2.587247 -15.166857,2.448856 -2.328891,-0.03439 -4.326135,-1.059628 -5.993781,-3.074888 -1.634481,-1.911672 -2.450084,-4.048535 -2.450084,-6.411 0,-2.500854 0.842216,-4.629938 2.528696,-6.385204 1.684024,-1.753219 3.778715,-2.631466 6.279979,-2.631466 0.555609,0 1.293828,0.121603 2.215066,0.36481 C 49.070573,49.878396 49.688007,50 50,50 c 1.285229,0 2.884499,-0.529405 4.795761,-1.589853 1.910444,-1.059629 2.814895,-1.589852 2.710898,-1.589852 -0.348024,3.648922 -1.564058,6.099006 -3.649742,7.348615 -1.493634,0.869239 -2.240861,1.720054 -2.240861,2.553263 0,0.521216 0.312812,0.938844 0.938026,1.251655 0.486413,0.243617 1.024417,0.36522 1.615237,0.36522 0.903633,0 1.789659,-0.555199 2.658899,-1.666827 0.867601,-1.112856 1.250837,-2.119667 1.146839,-3.024118 -0.103998,-1.042023 -0.03439,-2.294088 0.208814,-3.752101 0.06879,-0.417628 0.320591,-0.929427 0.755006,-1.537035 0.434415,-0.608427 0.825429,-0.981835 1.173043,-1.121044 0,0.311992 -0.112595,0.834027 -0.339015,1.563239 -0.22642,0.729211 -0.338197,1.269261 -0.338197,1.616056 0,0.764423 0.207995,1.354835 0.625214,1.771234 0.624394,-0.242388 1.180413,-1.024417 1.668055,-2.345677 0.41599,-1.006811 0.658788,-1.980048 0.729211,-2.918073 -1.46006,-0.0696 -2.858704,-0.729212 -4.195933,-1.980867 -1.338047,-1.251656 -2.006252,-2.606081 -2.006252,-4.064913 0,-0.243207 0.03357,-0.486414 0.104816,-0.73003 0.207995,0.312811 0.520397,0.799635 0.937207,1.459241 0.59082,0.868421 1.042841,1.302836 1.356472,1.302836 0.41599,0 0.624395,-0.434415 0.624395,-1.302836 0,-1.111627 -0.296025,-2.119257 -0.886027,-3.02289 -0.660425,-1.077234 -1.512059,-1.616056 -2.554082,-1.616056 -0.486823,0 -1.216444,0.260813 -2.188043,0.782029 -0.974056,0.520397 -1.860082,0.782029 -2.658079,0.782029 -0.244026,0 -1.32208,-0.313631 -3.232523,-0.938844 3.369685,-0.554791 5.055755,-1.05881 5.055755,-1.511241 0,-1.181232 -2.311284,-1.980867 -6.931806,-2.397266 -0.45243,-0.03439 -1.286048,-0.103998 -2.502083,-0.208814 0.138391,-0.173603 1.129234,-0.364811 2.97171,-0.573215 1.563239,-0.172784 2.65808,-0.260813 3.282884,-0.260813 8.269444,0 13.516408,4.014552 15.740072,12.040789 0.382416,-0.316497 0.574034,-0.845902 0.574034,-1.58494 0,-0.951536 -0.278419,-2.149555 -0.834028,-3.593648 -0.209633,-0.562979 -0.539641,-1.40888 -0.990843,-2.535657 2.848469,3.630498 4.274136,7.071016 4.274136,10.317459 0,1.710637 -0.400841,3.264459 -1.199657,4.659828 -0.519988,0.942939 -1.494453,2.147099 -2.918073,3.613711 -1.424849,1.465792 -2.398086,2.600758 -2.919711,3.403668 1.911262,-0.520397 3.162918,-0.920419 3.753739,-1.198838 1.319622,-0.589593 2.518051,-1.476438 3.596104,-2.65808 0,0.45284 -0.191208,1.130872 -0.573215,2.033685 z M 45.413462,36.658837 c 0,0.624395 -0.348024,1.024417 -1.042023,1.198019 l -1.355654,0.208814 c -0.486823,0.243207 -1.198838,1.198838 -2.136863,2.866075 -0.104816,-0.520398 -0.260813,-1.250018 -0.469217,-2.188862 -0.312812,0.03521 -0.833209,0.312811 -1.563239,0.834027 -0.312812,0.243207 -0.817241,0.607608 -1.512059,1.094022 0.209633,-1.250837 0.903632,-2.517233 2.085683,-3.804919 1.250837,-1.42362 2.466872,-2.136044 3.648104,-2.136044 1.563239,0 2.345268,0.643638 2.345268,1.928868 z m 9.069078,4.794124 c 0,0.590821 -0.321409,1.086651 -0.964229,1.485855 -0.64282,0.400022 -1.277041,0.599828 -1.902255,0.599828 -0.834027,0 -1.581663,-0.469217 -2.24086,-1.407652 -0.800454,-1.146839 -1.616057,-1.893656 -2.450085,-2.242499 0.173602,-0.172783 0.382416,-0.259993 0.626033,-0.259993 0.312811,0 0.841397,0.243206 1.589033,0.729211 0.746818,0.486823 1.224224,0.73003 1.433857,0.73003 0.173602,0 0.4598,-0.243207 0.859822,-0.73003 0.399203,-0.486414 0.842216,-0.729211 1.32904,-0.729211 1.146429,4.09e-4 1.719644,0.608836 1.719644,1.824461 z"
       fill="#0d0f0f"
       id="path1"
       style="stroke-width:0.409439" />
  </g>
</svg>
