<?xml version="1.0" encoding="UTF-8" standalone="no"?>
<svg
   viewBox="0 0 100 100"
   version="1.1"
   id="svg1"
   sodipodi:docname="up.svg"
   inkscape:version="1.4.2 (ebf0e940d0, 2025-05-08)"
   xmlns:inkscape="http://www.inkscape.org/namespaces/inkscape"
   xmlns:sodipodi="http://sodipodi.sourceforge.net/DTD/sodipodi-0.dtd"
   xmlns="http://www.w3.org/2000/svg"
   xmlns:svg="http://www.w3.org/2000/svg">
  <defs
     id="defs1" />
  <sodipodi:namedview
     id="namedview1"
     pagecolor="#505050"
     bordercolor="#eeeeee"
     borderopacity="1"
     inkscape:showpageshadow="0"
     inkscape:pageopacity="0"
     inkscape:pagecheckerboard="0"
     inkscape:deskcolor="#505050"
     inkscape:zoom="5.94"
     inkscape:cx="58.838384"
     inkscape:cy="34.93266"
     inkscape:window-width="1906"
     inkscape:window-height="1028"
     inkscape:window-x="0"
     inkscape:window-y="0"
     inkscape:window-maximized="1"
     inkscape:current-layer="g1" />
  <g
     fill="none"
     id="g1">
    <path
       d="M 77.307,49.928 C 77.366,44.584 75.668,39.19 72.34,35 70.733,33.23 69.409,31.213 67.707,29.539 63.952,25.814 58.332,25.566 53.811,23.219 53.547,20.862 52.686,18.504 53.207,16.125 53.366,15.334 53.6,14.533 53.178,13.777 51.991,11.045 53.012,8.078 52.801,5.23 52.643,3.742 52.743,1.921 51.325,1.001 c -0.33,3.098 -1.469,5.98 -2.392,8.918 -0.426,2.291 -0.426,4.676 -1.413,6.836 0.627,2.189 -0.613,4.031 -1.955,5.646 -2.968,1.52 -6.496,1.881 -9.078,4.109 -1.84,1.563 -3.828,2.932 -5.887,4.203 -1.545,1.934 -3.256,3.797 -3.945,6.24 -2.762,3.334 -3.088,7.811 -4.654,11.717 -0.029,5.799 1.146,12.043 4.85,16.691 2.65,2.188 4.502,5.131 7.149,7.318 2.541,1.518 5.252,2.764 7.875,4.127 1.709,0.4 3.475,0.596 5.176,1.061 1.379,7.109 2.322,14.389 5.092,21.133 0.918,-2.768 0.807,-5.736 1.6,-8.533 1.119,-4.135 -1.176,-8.439 0.117,-12.5 1.938,-1.732 5.17,-0.607 7.32,-2.094 4.092,-2.523 8.422,-4.98 11.391,-8.84 1.105,-2.219 3.426,-3.877 3.426,-6.539 0.019,-3.583 2.109,-6.941 1.31,-10.566 z M 46.934,71.86 c -2.965,-0.721 -5.727,-2.139 -8.213,-3.871 -2.676,-1.783 -3.674,-5.109 -6.314,-6.934 -2.473,-2.949 -1.938,-6.98 -2.951,-10.475 0.406,-2.439 0.885,-4.857 1.139,-7.326 1.205,-1.955 3.066,-3.514 3.582,-5.869 1.769,-2.533 4.459,-4.285 6.619,-6.48 1.572,-1.813 4.074,-1.047 6.139,-1.119 l 8.263,0.037 c 2.342,0.936 4.547,2.197 6.496,3.82 2.354,1.766 5.961,2.908 6.488,6.199 0.268,2.16 2.633,3.467 2.564,5.678 -0.146,5.256 0.579,10.752 -1.335,15.77 -1.963,1.398 -3.637,3.111 -5.35,4.785 -2.979,2.061 -5.924,4.24 -9.469,5.27 z"
       fill="#111212"
       id="path1-2"
       sodipodi:nodetypes="cccccccccccccccccccccccccccccccccccccccccc" />
    <path
       d="m 57.317961,64.987096 c -2.064335,2.100559 -4.607343,3.151053 -7.627732,3.151053 -3.389959,0 -6.079588,-1.160028 -8.068887,-3.481381 -1.879765,-2.210955 -2.819001,-5.029093 -2.819001,-8.454845 0,-3.684063 1.60291,-7.885612 4.8083,-12.602489 2.615025,-3.867771 5.691906,-7.25773 9.229348,-10.168583 -0.516192,2.358438 -0.773209,4.034228 -0.773209,5.029093 0,2.285128 0.717579,4.513764 2.154463,6.687633 1.768937,2.578802 3.113105,4.496084 4.035091,5.747536 1.436883,2.174731 2.155325,4.292971 2.155325,6.355149 8.31e-4,3.058768 -1.031089,5.638001 -3.093698,7.736834 z m -0.05563,-11.799524 c -0.552415,-1.233771 -1.197547,-2.053554 -1.934531,-2.459348 0.110396,0.221655 0.166026,0.534735 0.166026,0.940097 0,0.774072 -0.220794,1.878903 -0.663675,3.315786 l -0.717579,2.210956 c 0,1.289401 0.643407,1.934532 1.933669,1.934532 1.362711,0 2.044929,-0.903443 2.044929,-2.708603 0,-0.920261 -0.275992,-1.997493 -0.828839,-3.23342 z"
       fill="#0d0f0f"
       id="path1"
       style="stroke-width:0.431238" />
    <circle
       fill="#CAC5C0"
       cx="50"
       cy="50"
       id="circle1-1"
       style="fill:#cac5c0;fill-opacity:0;stroke:#000000;stroke-width:4;stroke-dasharray:none;stroke-opacity:1"
       inkscape:label="circle1"
       r="48" />
  </g>
</svg>
