<?xml version="1.0" encoding="UTF-8" standalone="no"?>
<svg
   viewBox="0 0 100 100"
   version="1.1"
   id="svg2"
   sodipodi:docname="ur.svg"
   inkscape:version="1.4.2 (ebf0e940d0, 2025-05-08)"
   xmlns:inkscape="http://www.inkscape.org/namespaces/inkscape"
   xmlns:sodipodi="http://sodipodi.sourceforge.net/DTD/sodipodi-0.dtd"
   xmlns="http://www.w3.org/2000/svg"
   xmlns:svg="http://www.w3.org/2000/svg">
  <defs
     id="defs2" />
  <sodipodi:namedview
     id="namedview2"
     pagecolor="#505050"
     bordercolor="#eeeeee"
     borderopacity="1"
     inkscape:showpageshadow="0"
     inkscape:pageopacity="0"
     inkscape:pagecheckerboard="0"
     inkscape:deskcolor="#505050"
     inkscape:zoom="5.94"
     inkscape:cx="49.410774"
     inkscape:cy="45.03367"
     inkscape:window-width="1906"
     inkscape:window-height="1028"
     inkscape:window-x="0"
     inkscape:window-y="0"
     inkscape:window-maximized="1"
     inkscape:current-layer="g2" />
  <g
     fill="none"
     id="g2">
    <path
       d="m 86.114444,72.723496 c -1.611764,3.84647 -4.812777,5.765952 -9.606792,5.765952 -0.879059,0 -1.831295,0.107889 -2.855769,0.328357 -1.53765,0.331172 -2.306006,0.788057 -2.306006,1.374409 0,0.182942 0.127591,0.392153 0.384647,0.632322 0.255181,0.237356 0.476587,0.357441 0.659529,0.357441 -0.916585,0 -0.294583,0.02721 1.864131,0.07974 2.16059,0.05629 3.515298,0.0835 4.065061,0.0835 -3.184126,1.866007 -8.509141,2.726303 -15.975983,2.579949 -2.452359,-0.03471 -4.556659,-1.114538 -6.312901,-3.237601 -1.721529,-2.013299 -2.580887,-4.263953 -2.580887,-6.751962 0,-2.636239 0.887502,-4.876573 2.663446,-6.726631 1.773128,-1.846305 3.979688,-2.770396 6.614989,-2.770396 0.584476,0 1.363151,0.128528 2.332274,0.382771 0.970061,0.256118 1.620208,0.384647 1.948565,0.384647 1.354708,0 3.038711,-0.560084 5.05201,-1.674622 2.013298,-1.115476 2.964596,-1.674622 2.854831,-1.674622 -0.366822,3.843656 -1.647415,6.425481 -3.843655,7.739848 -1.574238,0.917524 -2.360419,1.814408 -2.360419,2.689714 0,0.549764 0.328357,0.989762 0.986948,1.319058 0.512237,0.254242 1.079826,0.38277 1.702766,0.38277 0.951298,0 1.883832,-0.584475 2.799479,-1.756241 0.913771,-1.16989 1.316244,-2.231891 1.206478,-3.184127 -0.108827,-1.099527 -0.03471,-2.416708 0.220469,-3.952482 0.07224,-0.440936 0.338677,-0.98038 0.795562,-1.620208 0.457824,-0.641703 0.870616,-1.035732 1.235561,-1.183962 0,0.33211 -0.119146,0.880935 -0.356502,1.647415 -0.238293,0.769294 -0.356502,1.338759 -0.356502,1.701828 0,0.806821 0.21953,1.428823 0.659529,1.866945 0.657653,-0.254242 1.242128,-1.078888 1.756242,-2.471122 0.43906,-1.060125 0.694241,-2.086475 0.769294,-3.071547 -1.538588,-0.07318 -3.012443,-0.769294 -4.419688,-2.089289 -1.408183,-1.317182 -2.112743,-2.744128 -2.112743,-4.28084 0,-0.254242 0.03471,-0.513175 0.109765,-0.768355 0.217654,0.331171 0.546949,0.843408 0.987886,1.538587 0.621064,0.91471 1.097651,1.372533 1.426946,1.372533 0.43906,0 0.658591,-0.457823 0.658591,-1.372533 0,-1.171766 -0.311471,-2.232828 -0.933473,-3.185064 -0.697055,-1.136116 -1.593939,-1.701828 -2.689714,-1.701828 -0.514114,0 -1.281531,0.273943 -2.306006,0.823707 -1.025412,0.547887 -1.958885,0.823707 -2.798541,0.823707 -0.256118,0 -1.392234,-0.331171 -3.404594,-0.988824 3.549071,-0.586352 5.325015,-1.116414 5.325015,-1.593939 0,-1.243067 -2.433596,-2.085537 -7.301726,-2.521783 -0.476586,-0.03659 -1.353769,-0.109765 -2.6353,-0.220469 0.145415,-0.182003 1.189591,-0.381832 3.129713,-0.604177 1.646476,-0.180127 2.798541,-0.274882 3.457131,-0.274882 8.710847,0 14.236629,4.227364 16.580161,12.684907 0.404348,-0.335863 0.605115,-0.891255 0.605115,-1.669931 0,-1.001958 -0.292707,-2.26285 -0.879059,-3.783613 -0.220468,-0.595733 -0.569465,-1.48605 -1.044176,-2.672827 3.000247,3.823016 4.503184,7.44714 4.503184,10.866746 0,1.80315 -0.423111,3.440245 -1.264644,4.90847 -0.546949,0.993515 -1.574238,2.260974 -3.073423,3.808005 -1.501061,1.543279 -2.524597,2.738499 -3.074361,3.584722 2.013298,-0.549764 3.331418,-0.970999 3.95342,-1.263706 1.38942,-0.62294 2.653126,-1.557351 3.787365,-2.800417 0,0.478463 -0.201705,1.193343 -0.603239,2.13995 z M 62.178145,51.149493 c 0,0.657652 -0.366821,1.080764 -1.097651,1.264644 l -1.426946,0.217654 c -0.513175,0.25518 -1.263706,1.264644 -2.249716,3.019947 -0.111641,-0.547887 -0.274882,-1.316243 -0.49535,-2.305067 -0.329295,0.03471 -0.877183,0.330234 -1.646477,0.878121 -0.329295,0.256118 -0.860295,0.641704 -1.593939,1.153003 0.220468,-1.316244 0.954112,-2.65125 2.197178,-4.006896 1.317182,-1.499185 2.598713,-2.247839 3.842717,-2.247839 1.646477,-0.0019 2.470184,0.674539 2.470184,2.026433 z m 9.552379,5.052009 c 0,0.621064 -0.338677,1.144559 -1.016031,1.564856 -0.677353,0.419359 -1.345326,0.631384 -2.002978,0.631384 -0.879997,0 -1.667116,-0.491597 -2.361357,-1.483236 -0.842471,-1.20554 -1.701829,-1.993597 -2.579949,-2.360419 0.182003,-0.182942 0.402472,-0.274882 0.660467,-0.274882 0.327419,0 0.885626,0.254243 1.672745,0.767418 0.785242,0.515052 1.289974,0.769294 1.510443,0.769294 0.182942,0 0.484092,-0.254242 0.904389,-0.769294 0.420297,-0.513175 0.887503,-0.767418 1.400678,-0.767418 1.208354,0 1.811593,0.641704 1.811593,1.922297 z M 41.848146,48.06575 c -2.526474,2.566815 -5.635547,3.853036 -9.330972,3.853036 -4.148558,0 -7.438697,-1.419441 -9.873231,-4.260199 -2.300376,-2.706601 -3.449626,-6.154352 -3.449626,-10.345127 0,-4.507875 1.960761,-9.648072 5.88416,-15.419652 3.200075,-4.732096 6.963986,-8.879716 11.292672,-12.4419224 -0.631384,2.8867284 -0.946607,4.9366154 -0.946607,6.1534134 0,2.795727 0.877183,5.524844 2.637177,8.183598 2.163405,3.155044 3.809881,5.500452 4.936616,7.032473 1.758118,2.660631 2.638115,5.253714 2.638115,7.774559 -9.38e-4,3.746086 -1.264644,6.899253 -3.788304,9.469821 z m -0.06755,-14.434581 c -0.676416,-1.511381 -1.464473,-2.515216 -2.366987,-3.012443 0.136034,0.27113 0.202644,0.6539 0.202644,1.152065 0,0.947545 -0.269253,2.2985 -0.810573,4.05568 l -0.879998,2.706601 c 0,1.577053 0.788996,2.36511 2.366987,2.36511 1.667116,0 2.503019,-1.105156 2.503019,-3.312655 -9.38e-4,-1.127672 -0.339615,-2.445792 -1.015092,-3.954358 z"
       fill="#0d0f0f"
       id="path2"
       style="stroke-width:0.938163" />
    <g
       id="g3"
       inkscape:label="dual mana dividers">
      <circle
         fill="#CAC5C0"
         cx="50"
         cy="50"
         id="circle1-1"
         style="fill:#cac5c0;fill-opacity:0;stroke:#000000;stroke-width:4;stroke-dasharray:none;stroke-opacity:1"
         inkscape:label="circle1"
         r="48" />
      <path
         style="fill:#cac5c0;fill-opacity:0;stroke:#000000;stroke-width:4;stroke-linecap:butt;stroke-dasharray:none"
         d="m 16.058875,83.941125 67.88225,-67.88225"
         id="path3"
         inkscape:label="path3" />
    </g>
  </g>
</svg>
