<?xml version="1.0" encoding="UTF-8" standalone="no"?>
<svg
   viewBox="0 0 100 100"
   version="1.1"
   id="svg1"
   sodipodi:docname="wp.svg"
   inkscape:version="1.4.2 (ebf0e940d0, 2025-05-08)"
   xmlns:inkscape="http://www.inkscape.org/namespaces/inkscape"
   xmlns:sodipodi="http://sodipodi.sourceforge.net/DTD/sodipodi-0.dtd"
   xmlns="http://www.w3.org/2000/svg"
   xmlns:svg="http://www.w3.org/2000/svg">
  <defs
     id="defs1" />
  <sodipodi:namedview
     id="namedview1"
     pagecolor="#505050"
     bordercolor="#eeeeee"
     borderopacity="1"
     inkscape:showpageshadow="0"
     inkscape:pageopacity="0"
     inkscape:pagecheckerboard="0"
     inkscape:deskcolor="#505050"
     showgrid="false"
     inkscape:zoom="2.8885312"
     inkscape:cx="58.334146"
     inkscape:cy="70.797227"
     inkscape:window-width="1078"
     inkscape:window-height="1028"
     inkscape:window-x="0"
     inkscape:window-y="0"
     inkscape:window-maximized="1"
     inkscape:current-layer="g1" />
  <g
     fill="none"
     id="g1">
    <path
       d="M 77.307,49.928 C 77.366,44.584 75.668,39.19 72.34,35 70.733,33.23 69.409,31.213 67.707,29.539 63.952,25.814 58.332,25.566 53.811,23.219 53.547,20.862 52.686,18.504 53.207,16.125 53.366,15.334 53.6,14.533 53.178,13.777 51.991,11.045 53.012,8.078 52.801,5.23 52.643,3.742 52.743,1.921 51.325,1.001 c -0.33,3.098 -1.469,5.98 -2.392,8.918 -0.426,2.291 -0.426,4.676 -1.413,6.836 0.627,2.189 -0.613,4.031 -1.955,5.646 -2.968,1.52 -6.496,1.881 -9.078,4.109 -1.84,1.563 -3.828,2.932 -5.887,4.203 -1.545,1.934 -3.256,3.797 -3.945,6.24 -2.762,3.334 -3.088,7.811 -4.654,11.717 -0.029,5.799 1.146,12.043 4.85,16.691 2.65,2.188 4.502,5.131 7.149,7.318 2.541,1.518 5.252,2.764 7.875,4.127 1.709,0.4 3.475,0.596 5.176,1.061 1.379,7.109 2.322,14.389 5.092,21.133 0.918,-2.768 0.807,-5.736 1.6,-8.533 1.119,-4.135 -1.176,-8.439 0.117,-12.5 1.938,-1.732 5.17,-0.607 7.32,-2.094 4.092,-2.523 8.422,-4.98 11.391,-8.84 1.105,-2.219 3.426,-3.877 3.426,-6.539 0.019,-3.583 2.109,-6.941 1.31,-10.566 z M 46.934,71.86 c -2.965,-0.721 -5.727,-2.139 -8.213,-3.871 -2.676,-1.783 -3.674,-5.109 -6.314,-6.934 -2.473,-2.949 -1.938,-6.98 -2.951,-10.475 0.406,-2.439 0.885,-4.857 1.139,-7.326 1.205,-1.955 3.066,-3.514 3.582,-5.869 1.769,-2.533 4.459,-4.285 6.619,-6.48 1.572,-1.813 4.074,-1.047 6.139,-1.119 l 8.263,0.037 c 2.342,0.936 4.547,2.197 6.496,3.82 2.354,1.766 5.961,2.908 6.488,6.199 0.268,2.16 2.633,3.467 2.564,5.678 -0.146,5.256 0.579,10.752 -1.335,15.77 -1.963,1.398 -3.637,3.111 -5.35,4.785 -2.979,2.061 -5.924,4.24 -9.469,5.27 z"
       fill="#111212"
       id="path1-3"
       sodipodi:nodetypes="cccccccccccccccccccccccccccccccccccccccccc" />
    <path
       d="m 68.682432,52.765116 c -2.570201,-1.449043 -4.218247,-2.174544 -4.942573,-2.174544 -0.526497,0 -0.938215,0.404275 -1.235545,1.211258 -0.296938,0.808158 -0.889248,1.210474 -1.778888,1.210474 -0.36275,0 -1.103921,-0.131624 -2.224295,-0.394873 -0.625999,0.955843 -0.93939,1.565389 -0.93939,1.828638 0,0.362751 0.269908,0.789746 0.80855,1.285296 0.538641,0.494375 0.993058,0.740779 1.364035,0.740779 0.235827,0 0.554703,-0.04897 0.959369,-0.148469 0.403884,-0.09793 0.674184,-0.147686 0.80855,-0.147686 0.404667,0 0.606021,0.741563 0.606021,2.224295 0,1.416921 -0.329061,3.591465 -0.988358,6.524024 -0.857126,-3.361122 -1.762827,-5.042075 -2.717887,-5.042075 -0.132407,0 -0.403883,0.09872 -0.815601,0.297722 -0.412501,0.196653 -0.716882,0.295372 -0.914319,0.295372 -0.95506,0 -1.811793,-0.872404 -2.5702,-2.619952 -1.515639,0.231126 -2.274046,1.005594 -2.274046,2.32458 0,0.659689 0.304381,1.185795 0.915103,1.580668 0.60837,0.394873 0.914319,0.676533 0.914319,0.84028 0,0.890423 -1.302141,2.257985 -3.905248,4.102684 -1.383231,0.988358 -2.339858,1.68017 -2.865964,2.075043 0.459902,-0.59231 0.921371,-1.365995 1.384015,-2.32223 0.526497,-1.087076 0.79053,-1.927357 0.79053,-2.521233 0,-0.329061 -0.378812,-0.791313 -1.136828,-1.384015 -0.758407,-0.592309 -1.136043,-1.2187 -1.136043,-1.877605 0,-0.559404 0.196653,-1.250824 0.59231,-2.075826 -0.428563,-0.494375 -0.938216,-0.742346 -1.531701,-0.742346 -1.318202,0 -1.976324,0.429346 -1.976324,1.284904 v 1.334264 c 0.03212,1.087468 -0.791313,1.631202 -2.472265,1.631202 -1.284513,0 -3.443779,-0.29733 -6.474273,-0.88964 3.426934,-0.857125 5.140009,-1.845483 5.140009,-2.965465 0,0.131624 -0.06581,-0.263249 -0.197437,-1.186186 -0.132407,-1.020089 0.593094,-1.943418 2.174545,-2.766854 -0.296939,-1.514855 -1.086293,-2.274437 -2.372765,-2.274437 -0.197436,0 -0.56097,0.346297 -1.087076,1.036933 -0.527281,0.69377 -1.021264,1.038892 -1.481949,1.038892 -0.791313,0 -1.81336,-0.856341 -3.064184,-2.570984 -0.593876,-0.855558 -1.500361,-2.124793 -2.719061,-3.805746 0.757623,0.39644 1.515639,0.791313 2.274046,1.187362 0.988358,0.460685 1.778887,0.691811 2.372764,0.691811 0.461469,0 0.914319,-0.403883 1.358943,-1.211257 0.444624,-0.807375 1.029882,-1.211258 1.7546,-1.211258 0.0995,0 0.758407,0.197437 1.977107,0.593877 0.625216,-0.955452 0.939391,-1.664108 0.939391,-2.125577 0,-0.395657 -0.239353,-0.848507 -0.716883,-1.359727 -0.478314,-0.510436 -0.914319,-0.76585 -1.309976,-0.76585 -0.165314,0 -0.419944,0.04897 -0.766633,0.14847 -0.345122,0.09872 -0.600536,0.148469 -0.765067,0.148469 -0.593876,0 -0.890423,-0.741563 -0.890423,-2.224295 0,-0.395657 0.379595,-2.652074 1.137611,-6.771212 -0.03369,0.493592 0.180591,1.416921 0.64206,2.767246 0.560187,1.648046 1.218701,2.471482 1.977891,2.471482 0.130841,0 0.394873,-0.09872 0.79053,-0.296938 0.394873,-0.197437 0.707872,-0.295371 0.938607,-0.295371 0.757623,0 1.383231,0.428562 1.878389,1.283729 l 0.741562,1.334263 c 0.691811,0 1.268451,-0.246404 1.729137,-0.740778 0.461468,-0.494375 0.692595,-1.08786 0.692595,-1.779671 0,-0.724718 -0.304382,-1.27707 -0.91432,-1.655882 -0.610721,-0.378812 -0.915102,-0.667132 -0.915102,-0.864568 0,-0.692595 1.087859,-1.861545 3.262403,-3.509199 1.745982,-1.317419 2.882809,-2.091888 3.410873,-2.323014 -1.41692,1.911296 -2.125576,3.310588 -2.125576,4.201011 0,0.461469 0.27931,0.956235 0.84028,1.482733 0.691811,0.625999 1.087076,1.071015 1.185794,1.334263 0.329061,0.759191 0.296155,1.796516 -0.09872,3.113935 0.88964,0.626782 1.564606,0.938607 2.026859,0.938607 0.954276,0 1.432981,-0.495158 1.432981,-1.482733 0,-0.09872 -0.04113,-0.411718 -0.123006,-0.938607 -0.08344,-0.526497 -0.106944,-0.823436 -0.07482,-0.889639 0.131625,-0.461469 1.038109,-0.692595 2.718278,-0.692595 1.05417,0 3.244776,0.296938 6.573775,0.890423 -0.725501,0.197436 -1.812577,0.493591 -3.26162,0.889248 -1.318203,0.395656 -1.977891,0.84028 -1.977891,1.334263 0,0.231126 0.08187,0.625999 0.247187,1.185795 0.164531,0.56097 0.247971,0.971513 0.247971,1.236328 0,0.460686 -0.296938,0.889248 -0.88964,1.28373 l -1.680952,1.187361 c 0.395656,0.725501 0.658905,1.153672 0.791313,1.284513 0.329061,0.394873 0.773685,0.593093 1.334263,0.593093 0.395657,0 0.757624,-0.345906 1.087076,-1.037325 0.329061,-0.692595 0.857126,-1.038109 1.581451,-1.038109 0.889248,0 1.895235,0.824219 3.015217,2.472266 0.62404,0.924504 1.596337,2.324188 2.914539,4.202185 z M 57.710994,49.899153 c 0,-2.107949 -0.775252,-3.93737 -2.323797,-5.486699 -1.548545,-1.548545 -3.377183,-2.323013 -5.485915,-2.323013 -2.142422,0 -3.987905,0.766634 -5.535666,2.299117 -1.548545,1.5317 -2.339858,3.368957 -2.371981,5.510203 -0.03369,2.108732 0.749005,3.929144 2.347301,5.46006 1.598296,1.532484 3.451614,2.299118 5.559954,2.299118 2.240356,0 4.110127,-0.733728 5.608921,-2.199616 1.500361,-1.465104 2.233305,-3.31803 2.201183,-5.55917 z m -0.741563,0 c 0,2.010013 -0.67575,3.674905 -2.026858,4.990757 -1.351892,1.318985 -3.032061,1.977891 -5.041291,1.977891 -1.944202,0 -3.60831,-0.674967 -4.991541,-2.026859 -1.383231,-1.349541 -2.075825,-2.997588 -2.075825,-4.941789 0,-1.910512 0.699254,-3.550724 2.09933,-4.917502 1.401642,-1.367169 3.05674,-2.051929 4.968036,-2.051929 1.910512,0 3.566393,0.691811 4.967252,2.076609 1.400076,1.384014 2.100897,3.014433 2.100897,4.892822 z"
       fill="#0d0f0f"
       id="path1"
       style="stroke-width:0.391739" />
    <circle
       fill="#CAC5C0"
       cx="50"
       cy="50"
       id="circle1-1"
       style="fill:#cac5c0;fill-opacity:0;stroke:#000000;stroke-width:4;stroke-dasharray:none;stroke-opacity:1"
       inkscape:label="circle1"
       r="48" />
  </g>
</svg>
