<?xml version="1.0" encoding="UTF-8" standalone="no"?>
<svg
   viewBox="0 0 100 100"
   version="1.1"
   id="svg1"
   sodipodi:docname="x.svg"
   inkscape:version="1.4.2 (ebf0e940d0, 2025-05-08)"
   xmlns:inkscape="http://www.inkscape.org/namespaces/inkscape"
   xmlns:sodipodi="http://sodipodi.sourceforge.net/DTD/sodipodi-0.dtd"
   xmlns="http://www.w3.org/2000/svg"
   xmlns:svg="http://www.w3.org/2000/svg">
  <defs
     id="defs1" />
  <sodipodi:namedview
     id="namedview1"
     pagecolor="#505050"
     bordercolor="#eeeeee"
     borderopacity="1"
     inkscape:showpageshadow="0"
     inkscape:pageopacity="0"
     inkscape:pagecheckerboard="0"
     inkscape:deskcolor="#505050"
     inkscape:zoom="2.97"
     inkscape:cx="50"
     inkscape:cy="50"
     inkscape:window-width="1906"
     inkscape:window-height="1028"
     inkscape:window-x="0"
     inkscape:window-y="0"
     inkscape:window-maximized="1"
     inkscape:current-layer="svg1" />
  <g
     fill="none"
     id="g1"
     transform="translate(0,2)">
    <path
       d="m 56.641,80 v -3.297 c 4.703,-0.521 7.059,-1.887 7.059,-4.082 0,-1.582 -0.629,-3.164 -1.883,-4.746 L 48.809,51.865 38.536,63.976 c -2.57,2.973 -3.863,5.432 -3.863,7.354 0,2.976 2.354,4.771 7.07,5.387 V 80 H 16.692 v -3.287 c 3.172,-0.609 5.867,-1.752 8.102,-3.416 1.539,-1.223 3.637,-3.371 6.285,-6.438 L 46.528,48.944 28.661,27.284 C 26.346,24.487 24.54,22.651 23.26,21.774 21.536,20.549 19.139,19.762 16.057,19.413 V 16 h 29.539 v 3.285 c -4.453,0.877 -6.676,2.234 -6.676,4.074 0,1.23 0.594,2.586 1.793,4.072 l 11.816,14.322 9.508,-11.691 c 1.711,-2.104 2.57,-3.941 2.57,-5.52 0,-2.629 -2.105,-4.34 -6.301,-5.129 V 16 h 23.512 v 3.291 c -2.055,0.439 -3.473,0.834 -4.23,1.188 -2.57,1.229 -6.496,4.869 -11.797,10.92 -0.852,0.969 -4.453,5.393 -10.789,13.285 l 18.977,23.363 c 4.113,5.078 8.305,7.971 12.586,8.666 V 80 Z"
       fill="#0d0f0f"
       id="path1"
       inkscape:label="path1" />
  </g>
  <circle
     fill="#CAC5C0"
     cx="50"
     cy="50"
     id="circle1-1"
     style="fill:#cac5c0;fill-opacity:0;stroke:#000000;stroke-width:4;stroke-dasharray:none;stroke-opacity:1"
     inkscape:label="circle1"
     r="48" />
</svg>
