<?xml version="1.0" encoding="UTF-8" standalone="no"?>
<svg
   viewBox="0 0 100 100"
   version="1.1"
   id="svg1"
   sodipodi:docname="y.svg"
   inkscape:version="1.4.2 (ebf0e940d0, 2025-05-08)"
   xmlns:inkscape="http://www.inkscape.org/namespaces/inkscape"
   xmlns:sodipodi="http://sodipodi.sourceforge.net/DTD/sodipodi-0.dtd"
   xmlns="http://www.w3.org/2000/svg"
   xmlns:svg="http://www.w3.org/2000/svg">
  <defs
     id="defs1" />
  <sodipodi:namedview
     id="namedview1"
     pagecolor="#505050"
     bordercolor="#eeeeee"
     borderopacity="1"
     inkscape:showpageshadow="0"
     inkscape:pageopacity="0"
     inkscape:pagecheckerboard="0"
     inkscape:deskcolor="#505050"
     inkscape:zoom="2.97"
     inkscape:cx="50"
     inkscape:cy="50"
     inkscape:window-width="1906"
     inkscape:window-height="1028"
     inkscape:window-x="0"
     inkscape:window-y="0"
     inkscape:window-maximized="1"
     inkscape:current-layer="g1" />
  <g
     fill="none"
     id="g1">
    <path
       d="m 54.91,69.695 c 0,3.988 0.654,6.793 1.963,8.414 1.309,1.621 3.521,2.431 6.639,2.431 L 64.26,80.445 V 84 H 35.464 v -3.553 h 0.934 c 3.117,0.063 5.33,-0.717 6.639,-2.338 C 44.346,76.49 45,73.715 45,69.79 V 57.26 L 26.675,30.427 24.711,27.809 C 24.15,27.061 23.62,26.47 23.122,26.033 22.311,25.347 21.454,24.864 20.551,24.583 19.647,24.302 18.478,24.069 17.045,23.882 V 20.235 H 45 v 3.553 c -2.805,0.25 -4.708,0.64 -5.703,1.168 -0.998,0.53 -1.496,1.512 -1.496,2.945 0,0.624 0.124,1.248 0.373,1.87 0.249,0.624 0.592,1.278 1.029,1.963 l 14.212,20.569 10.378,-15.24 c 0.996,-1.371 1.713,-2.555 2.15,-3.553 0.435,-0.996 0.715,-1.931 0.841,-2.804 v -0.749 c 0,-1.931 -0.53,-3.366 -1.589,-4.3 -1.06,-0.936 -2.899,-1.527 -5.516,-1.776 v -3.647 h 23.093 v 3.553 c -0.748,0.125 -1.435,0.296 -2.056,0.514 -0.624,0.219 -1.216,0.515 -1.777,0.889 -0.998,0.561 -2.026,1.449 -3.085,2.665 -1.061,1.215 -2.337,2.915 -3.833,5.096 L 54.911,57.26 V 69.696 H 54.91 Z"
       fill="#0d0f0f"
       id="path1" />
    <circle
       fill="#CAC5C0"
       cx="50"
       cy="50"
       id="circle1-1"
       style="fill:#cac5c0;fill-opacity:0;stroke:#000000;stroke-width:4;stroke-dasharray:none;stroke-opacity:1"
       inkscape:label="circle1"
       r="48" />
  </g>
</svg>
